<?xml version="1.0" encoding="UTF-8"?>
<!-- Created with Inkscape (http://www.inkscape.org/) -->
<svg width="500" height="500" version="1.1" viewBox="0 0 132.29 132.29" xmlns="http://www.w3.org/2000/svg" xmlns:cc="http://creativecommons.org/ns#" xmlns:dc="http://purl.org/dc/elements/1.1/" xmlns:rdf="http://www.w3.org/1999/02/22-rdf-syntax-ns#">
 <metadata>
  <rdf:RDF>
   <cc:Work rdf:about="">
    <dc:format>image/svg+xml</dc:format>
    <dc:type rdf:resource="http://purl.org/dc/dcmitype/StillImage"/>
    <dc:title/>
   </cc:Work>
  </rdf:RDF>
 </metadata>
 <g transform="translate(0 -164.71)">
  <g stroke-width=".054643">
   <path d="m88.905 296.94c-11.393-0.16523-22.94-1.1709-30.136-2.6244-2.977-0.60136-5.5158-1.3811-6.6375-2.0385-0.18445-0.1081-0.34516-0.19655-0.35714-0.19655-0.01198 0-0.17785 0.1091-0.36861 0.24245-1.6358 1.1435-4.3898 2.0539-7.616 2.5176-0.53712 0.0772-1.2471 0.19455-1.5777 0.26079-0.80836 0.16193-2.4902 0.17314-3.184 0.0212-2.2403-0.49062-3.9699-1.8052-5.4532-4.1446-2.8739-4.5328-4.3501-12.965-4.2117-24.061 0.03259-2.6136 0.06412-3.5093 0.20299-5.7649 0.07078-1.1497 0.0153-1.001 0.75432-2.0218 0.93643-1.2935 2.5542-3.0586 3.7953-4.1408l0.53735-0.4686-0.03645-0.38647c-0.10239-1.0856-0.28022-1.4986-1.5309-3.5558-1.954-3.2142-2.8683-4.744-3.3147-5.5463-3.1072-5.5852-4.4794-9.8962-4.2493-13.351 0.09388-1.4099 0.34717-2.3562 0.95315-3.5612 1.1472-2.2813 2.3585-3.745 3.7975-4.5891 0.36494-0.21406 1.2881-0.57251 1.4834-0.57598 0.04257-8.3e-4 0.16459-0.23443 0.2878-0.55115 0.41863-1.0762 1.172-2.0749 1.9655-2.6056 0.83625-0.55932 1.775-0.68031 2.7385-0.35297 0.27048 0.0919 0.49922 0.16 0.50829 0.15136 0.0091-9e-3 -0.01377-0.85457-0.05077-1.8798l-0.06728-1.8641-0.33173-4e-3c-8.9119-0.0986-16.622 1.4741-20.768 4.2363-0.64596 0.43032-0.78958 0.56525-1.5491 1.4554-1.2048 1.4121-2.5251 2.385-3.5556 2.6202-0.35483 0.081-1.1385 0.0398-1.6165-0.0849-2.7308-0.71267-4.822-4.5998-5.732-10.655-0.22145-1.4734-0.25685-2.0354-0.28915-4.5914-0.029642-2.3451 0.018214-3.717 0.14863-4.2608 0.02883-0.12022 0.11425-0.66705 0.18983-1.2152 0.39241-2.8461 1.067-5.0604 2.0781-6.8211 1.4514-2.5275 3.1151-3.693 4.8735-3.4142 1.0585 0.16784 2.0014 0.81879 2.8927 1.9972 1.5881 2.0996 5.5756 4.0048 10.401 4.9694 2.8729 0.57434 5.6523 0.8151 9.426 0.81647 2.9912 1e-3 4.9253-0.10353 8.0599-0.43598 0.70627-0.0749 1.3339-0.12375 1.3948-0.10855 0.11302 0.0282 0.97479 0.88579 1.3664 1.3597l0.21686 0.26247 0.40983-0.0692c0.62304-0.10526 2.3695-0.0886 3.0054 0.0287 2.6598 0.49064 4.4244 2.1268 4.8336 4.4816 0.10939 0.62951 0.10884 1.8761-0.0012 2.6648-0.10349 0.74203-0.34869 1.7164-0.5418 2.1531-0.18914 0.42769-0.65721 1.0463-1.1984 1.5838-0.70698 0.70216-1.3714 1.0426-2.342 1.2-0.76062 0.12336-1.3579 0.10314-2.8402-0.0962-0.0732-0.01-0.15625 0.12733-0.35613 0.58824-0.39013 0.89961-0.68876 1.4585-0.83679 1.5662-0.12538 0.0912-0.19072 0.0917-1.2418 0.0102-0.61022-0.0473-1.1194-0.0761-1.1316-0.0639-0.01216 0.0122 0.02213 0.47598 0.0762 1.0307l0.09832 1.0086 0.4608 0.68358c1.208 1.792 1.9995 4.075 2.2922 6.6113 0.07155 0.62007 0.07379 2.5163 0.0035 2.9781-0.04863 0.31965-0.04508 0.33518 0.14182 0.61981 0.79616 1.2124 1.4801 4.0334 1.7119 7.0606 0.08664 1.1315 0.04098 3.8339-0.08019 4.7462-0.36267 2.7305-1.0742 4.7112-2.2544 6.2761l-0.35476 0.47038 0.03488 0.57712c0.04787 0.79183 0.12743 1.5586 0.19769 1.9052l0.05876 0.28991 0.20041-0.0167c0.18472-0.0154 0.20659-0.0359 0.27937-0.26259 1.0428-3.2474 2.5035-6.2652 4.4568-9.2074 4.9339-7.4318 12.18-12.701 20.928-15.218 1.1323-0.32581 2.2208-0.60098 2.3772-0.60098 0.06373 0 0.33322-0.0625 0.59889-0.13897 0.26566-0.0764 0.82355-0.20933 1.2398-0.29534l0.75674-0.15639-0.012-0.19617c-0.0066-0.1079-0.08097-0.36227-0.16527-0.56528l-0.15328-0.36912-0.27188-0.0388c-0.14953-0.0213-0.65063-0.0775-1.1135-0.12496-1.1124-0.11393-2.2343-0.30885-3.3386-0.58002-7.5234-1.8476-11.925-7.036-12.974-15.294-0.21331-1.6791-0.27543-4.3431-0.14398-6.1747 0.1742-2.4272 0.56066-4.8929 1.1266-7.1879l0.2431-0.98587-0.10673-1.1452c-0.21651-2.3232-0.27095-4.9615-0.13696-6.6369l0.02841-0.35518-0.33122-0.23287c-0.18217-0.12807-0.35509-0.29565-0.38427-0.3724-0.06983-0.18367-0.06792-1.5559 0.0032-2.2714 0.37243-3.7488 2.0876-7.3355 4.8047-10.048 1.048-1.0461 2.1409-1.9138 3.4829-2.765 3.7108-2.3539 7.8233-3.7761 12.257-4.2389 0.91241-0.0952 4.1785-0.0952 5.0545-1e-5 4.8423 0.52634 9.2383 2.127 13.497 4.9145 1.0747 0.70345 1.7394 1.2366 2.3566 1.8904 4.6326 4.9064 7.1794 15.247 5.9169 24.025-1.0382 7.2175-4.4208 12.474-9.6934 15.065-0.3301 0.16217-0.6163 0.32454-0.63599 0.36085-0.03786 0.0698-0.28099 1.9663-0.37624 2.9348-0.09751 0.99149-0.13034 3.2372-0.05906 4.0391 0.16777 1.8871 0.5578 3.0894 1.2419 3.8283 0.38924 0.42042 0.6379 0.56495 1.2219 0.71022 1.894 0.4711 2.898 1.136 3.1672 2.0976 0.08192 0.2926 0.13889 0.32099 0.18469 0.092 0.0396-0.19782 0.26237-0.35333 0.49672-0.34668 0.2487 7e-3 2.7368 1.5704 6.1512 3.8648 6.9456 4.6675 11.807 8.6877 13.981 11.561 2.518 3.3285 4.4021 8.2788 5.4968 14.442 0.40303 2.2691 0.66272 4.376 0.95784 7.7708 0.0915 1.0519 0.1779 1.974 0.1921 2.0491 0.0142 0.0751 0.0516 0.75135 0.083 1.5027 0.0892 2.1312 0.22674 3.6184 0.70986 7.6774 0.76673 6.4417 0.83894 7.3214 0.84328 10.273 4e-3 2.4712-0.0255 2.9137-0.2787 4.232-0.23891 1.244-0.68596 2.4115-1.2307 3.2142-0.68105 1.0035-2.8517 2.1984-5.4815 3.0175-4.8052 1.4967-12.013 2.4376-21.557 2.8139-1.4004 0.0552-7.6385 0.17023-8.3604 0.15412-0.19535-4e-3 -1.597-0.0259-3.1147-0.0479zm-14.355-84.463c0.76066-0.34049 1.3265-1.3757 1.5904-2.9098 0.08363-0.48607 0.21482-2.0193 0.1761-2.0581-0.01223-0.0122-0.19101 0.0867-0.39728 0.21982-1.1688 0.75437-3.547 1.7199-5.5525 2.2542-0.32308 0.0861-0.58742 0.17441-0.58742 0.19627 0 0.0868 0.56655 0.71335 0.92024 1.0178 0.78883 0.67891 1.578 1.128 2.3746 1.3513 0.4086 0.11454 1.1393 0.0791 1.4758-0.0715z" fill="#b0c6f9"/>
   <path d="m88.905 296.94c-11.393-0.16523-22.94-1.1709-30.136-2.6244-2.977-0.60136-5.5158-1.3811-6.6375-2.0385-0.18445-0.1081-0.34516-0.19655-0.35714-0.19655-0.01198 0-0.17785 0.1091-0.36861 0.24245-1.6358 1.1435-4.3898 2.0539-7.616 2.5176-0.53712 0.0772-1.2471 0.19455-1.5777 0.26079-0.80836 0.16193-2.4902 0.17314-3.184 0.0212-2.2403-0.49062-3.9699-1.8052-5.4532-4.1446-2.8739-4.5328-4.3501-12.965-4.2117-24.061 0.03259-2.6136 0.06412-3.5093 0.20299-5.7649 0.07078-1.1497 0.0153-1.001 0.75432-2.0218 0.93643-1.2935 2.5542-3.0586 3.7953-4.1408l0.53735-0.4686-0.03645-0.38647c-0.10239-1.0856-0.28022-1.4986-1.5309-3.5558-1.954-3.2142-2.8683-4.744-3.3147-5.5463-3.8078-6.8444-5.0076-11.723-3.844-15.628 0.07612-0.25545 0.3224-0.83331 0.54729-1.2841 1.4395-2.8856 3.2348-4.6868 5.1006-5.1175 0.27062-0.0625 0.27481-0.0667 0.39294-0.39626 0.32594-0.9093 1.0269-1.977 1.6415-2.5003 0.36862-0.31389 0.9066-0.60986 1.328-0.73056 0.48124-0.13786 1.3526-0.0921 1.8893 0.0991 0.22384 0.0798 0.41789 0.13413 0.43122 0.1208 0.01333-0.0133-4e-3 -0.75639-0.03856-1.6512-0.03454-0.89486-0.06262-1.7438-0.06238-1.8866l4.13e-4 -0.25955-0.72402 4.1e-4c-1.1797 8.3e-4 -3.8609 0.10187-5.1228 0.19303-4.578 0.33071-8.5886 1.1273-11.803 2.3443-0.96264 0.36448-2.7635 1.2601-3.4425 1.7121-0.67944 0.45225-0.8893 0.64884-1.6066 1.5051-1.1511 1.3741-2.4368 2.3254-3.4954 2.5864-0.32588 0.0803-0.45368 0.0843-0.96974 0.0304-1.1295-0.11809-1.829-0.46969-2.7303-1.3722-0.67235-0.67323-1.133-1.3377-1.6515-2.3822-0.91983-1.8529-1.5721-4.0913-1.9984-6.8577-0.26452-1.7166-0.30746-2.4836-0.3044-5.437 0.00236-2.2777 0.01684-2.7591 0.096949-3.224 0.051796-0.30054 0.14215-0.88897 0.20079-1.3076 0.26761-1.9107 0.57971-3.3051 1.0427-4.6588 0.69259-2.0248 1.949-4.0294 3.0998-4.9455 1.744-1.3884 3.6716-1.1656 5.2895 0.61164 0.12312 0.13524 0.31516 0.36884 0.42676 0.51911 1.0518 1.4162 3.4871 2.9027 6.3977 3.9051 2.7932 0.96196 5.9376 1.5407 9.8631 1.8153 1.3095 0.0916 5.8901 0.0909 7.3495-1e-3 1.4423-0.091 3.4276-0.25895 4.6348-0.39214 0.84393-0.0931 0.99324-0.0973 1.1202-0.0313 0.15159 0.0788 0.69004 0.62201 1.2153 1.226l0.30177 0.34699 0.40757-0.0578c1.4152-0.20076 2.9202-0.0902 4.096 0.30078 1.677 0.55769 2.9818 1.7845 3.5075 3.2977 0.19696 0.56697 0.26741 1.0122 0.29836 1.8854 0.03488 0.98404-0.04766 1.7912-0.28135 2.7515-0.27499 1.13-0.62865 1.7473-1.505 2.6269-0.65219 0.65463-1.265 0.99497-2.1464 1.1921-0.52667 0.11779-1.9042 0.11634-2.6047-3e-3 -0.28521-0.0485-0.53483-0.0707-0.55471-0.0493-0.01989 0.0213-0.12502 0.25517-0.23362 0.5196-0.26634 0.64848-0.71252 1.5303-0.819 1.6187-0.10338 0.0858-0.27021 0.0858-1.4683-4e-5 -0.50418-0.0361-0.92921-0.0532-0.9445-0.0379-0.01528 0.0153 0.01495 0.48811 0.06721 1.0507l0.09501 1.0229 0.23612 0.30407c0.54318 0.69951 1.2828 2.1226 1.697 3.2655 0.38425 1.06 0.68502 2.3892 0.83463 3.6884 0.07436 0.64574 0.07707 2.4696 0.0044 2.9649l-0.05419 0.36936 0.19465 0.28636c0.68923 1.014 1.2999 3.3056 1.6377 6.1461 0.13976 1.1751 0.14022 4.4792 8.26e-4 5.5607-0.35742 2.7722-1.1475 4.958-2.3286 6.4424l-0.28808 0.36204 0.03554 0.58677c0.04855 0.80157 0.12785 1.5671 0.19835 1.9149l0.05876 0.28991 0.20041-0.0167c0.18472-0.0154 0.20659-0.036 0.27937-0.26259 1.0428-3.2474 2.5035-6.2652 4.4568-9.2074 4.9338-7.4317 12.182-12.702 20.928-15.218 1.1448-0.32929 1.9816-0.54203 2.377-0.60425 0.1653-0.026 0.5239-0.10738 0.7969-0.18081 0.27299-0.0734 0.75249-0.18526 1.0655-0.24849 0.31305-0.0632 0.62261-0.12704 0.68791-0.14177l0.11872-0.0268-0.127-0.39618c-0.24831-0.77462-0.22088-0.74055-0.62667-0.77825-1.8323-0.17024-3.0259-0.3584-4.3744-0.68954-7.5234-1.8476-11.925-7.036-12.974-15.294-0.21331-1.6791-0.27543-4.3431-0.14398-6.1747 0.1742-2.4272 0.56066-4.8929 1.1266-7.1879l0.2431-0.98588-0.10673-1.1452c-0.21651-2.3232-0.27095-4.9615-0.13696-6.6369l0.02841-0.35518-0.33122-0.23286c-0.18217-0.12808-0.35509-0.29566-0.38427-0.3724-0.06983-0.18367-0.06792-1.5559 0.0032-2.2714 0.37243-3.7488 2.0876-7.3355 4.8047-10.048 1.048-1.0461 2.1409-1.9138 3.4829-2.765 3.7108-2.3539 7.8233-3.7761 12.257-4.2389 0.91242-0.0952 4.1785-0.0952 5.0545-2e-5 4.8423 0.52635 9.2383 2.127 13.497 4.9145 1.0747 0.70344 1.7394 1.2366 2.3566 1.8904 4.6326 4.9064 7.1794 15.247 5.9169 24.025-1.0406 7.2348-4.4492 12.516-9.7364 15.086-0.42261 0.20539-0.5957 0.31829-0.61401 0.40049-0.0502 0.22524-0.24103 1.7157-0.33649 2.6281-0.13897 1.3283-0.1404 4.226-0.0025 5.0965 0.28931 1.8265 0.85029 2.9842 1.6822 3.4717 0.13571 0.0795 0.53974 0.22068 0.89782 0.31365 1.7331 0.45 2.6931 1.0986 2.9539 1.9957 0.09691 0.33334 0.15882 0.37398 0.2065 0.13556 0.0396-0.19783 0.26237-0.35333 0.49673-0.34668 0.24869 7e-3 2.7368 1.5703 6.1511 3.8648 6.9456 4.6675 11.807 8.6877 13.981 11.561 2.518 3.3284 4.4021 8.2788 5.4968 14.442 0.40302 2.2691 0.66273 4.376 0.95785 7.7708 0.0914 1.0519 0.17789 1.974 0.1921 2.0491 0.0142 0.0751 0.0516 0.75134 0.083 1.5027 0.0892 2.1312 0.22674 3.6184 0.70986 7.6774 0.76673 6.4417 0.83894 7.3214 0.84327 10.273 4e-3 2.4711-0.0255 2.9137-0.27869 4.232-0.23891 1.244-0.68596 2.4115-1.2307 3.2142-0.68105 1.0035-2.8517 2.1984-5.4815 3.0175-4.8052 1.4967-12.013 2.4376-21.557 2.8139-1.4004 0.0552-7.6385 0.17023-8.3604 0.15413-0.19535-4e-3 -1.597-0.0259-3.1147-0.0479zm-73.331-77.573c4.2336-2.8089 11.754-4.3899 20.874-4.388 2.2643 4.2e-4 6.5498 0.17694 7.3824 0.30397l0.19679 0.03 0.27791-0.61817c0.39002-0.86755 0.58618-1.3789 0.79938-2.0839 1.3002-4.2995 0.54532-8.1055-2.1706-10.943l-0.44782-0.4679-1.0109 0.11078c-1.014 0.11112-2.4009 0.23207-3.8797 0.33833-1.2817 0.0921-5.8781 0.12793-7.2402 0.0564-4.6472-0.2439-8.5221-0.98971-11.806-2.2723-1.1279-0.44054-2.3345-1.0586-3.6414-1.8653-0.0208-0.0128 0.05923 0.21519 0.17786 0.50673 1.9575 4.8108 2.3313 12.46 0.89151 18.242-0.30527 1.226-0.87484 2.9045-1.197 3.5274l-0.09188 0.17769 0.23795-0.19164c0.13087-0.10539 0.42237-0.31399 0.64778-0.46354zm33.021-6.2246c0.85939-0.1907 1.509-0.6406 2.1912-1.5175 0.4137-0.53181 0.4691-0.63584 0.65793-1.2356 0.42818-1.3599 0.51602-3.1102 0.21531-4.2906-0.33398-1.311-1.397-2.4266-2.8498-2.9907-0.83704-0.32502-1.2824-0.3922-2.6172-0.39482-0.66618-1e-3 -1.2267 0.0131-1.2456 0.032-0.01892 0.0189 0.04233 0.16447 0.1361 0.3235 0.73758 1.2509 1.2076 2.616 1.3971 4.0576 0.06669 0.50726 0.0811 0.94692 0.06035 1.8412-0.03086 1.3304-0.11178 1.9359-0.41986 3.142-0.11516 0.45081-0.21781 0.85647-0.22811 0.90148-0.04534 0.19796 1.9627 0.29562 2.7026 0.13143zm-0.12389-0.98823c-0.16905-0.21492-0.12263-0.35842 0.29518-0.91238 1.1129-1.4756 1.3846-3.1802 0.76841-4.8215-0.16404-0.43695-0.48653-0.99917-0.7628-1.3298-0.23442-0.28058-0.25762-0.52435-0.06697-0.70346 0.22003-0.2067 0.4279-0.1595 0.71787 0.16302 0.13936 0.15501 0.33712 0.4247 0.43946 0.59931 1.2968 2.2126 1.0957 4.7481-0.53668 6.7689-0.25922 0.3209-0.30852 0.35677-0.51081 0.37168-0.19011 0.014-0.24198-6e-3 -0.34366-0.13575zm25.979 0.36128c0.82209-0.30757 1.4297-1.3473 1.6903-2.8922 0.08338-0.49437 0.19446-1.6301 0.19631-2.007l8.26e-4 -0.17649-0.42349 0.27814c-1.1566 0.75964-3.5608 1.7279-5.7164 2.3022l-0.48432 0.12904 0.27083 0.32544c0.78105 0.93852 1.9835 1.7632 2.9924 2.0522 0.46899 0.13436 1.0971 0.12953 1.4736-0.0113z" fill="#fda6a6"/>
   <path d="m87.703 296.91c-6.1955-0.16711-10.586-0.39971-15.382-0.81496-9.8125-0.84949-17.11-2.2173-20.033-3.7552l-0.52557-0.27645-0.51223 0.34262c-1.6536 1.1061-4.5635 2.0307-7.726 2.455-0.45081 0.0605-0.99178 0.14634-1.2022 0.19079-1.7359 0.36679-3.5073 0.18254-4.9818-0.51819-1.3221-0.62831-2.6336-1.845-3.6168-3.3552-2.2399-3.4408-3.6794-9.2098-4.1584-16.666-0.19004-2.958-0.24607-8.0013-0.119-10.71 0.13109-2.7942 0.18258-3.5562 0.25109-3.7158 0.1058-0.24641 0.88973-1.3204 1.5489-2.122 0.73642-0.89558 2.0665-2.2641 2.8236-2.9051l0.58079-0.49179-0.02726-0.49179c-0.05339-0.96326-0.26214-1.4534-1.4547-3.4152-3.1478-5.1786-3.6696-6.0856-4.6995-8.1692-1.6075-3.2522-2.498-5.8744-2.8485-8.3878-0.09562-0.68573-0.09644-2.7369-0.0013-3.2786 0.17438-0.99289 0.4474-1.875 0.80331-2.5956 0.93933-1.9016 2.0761-3.4091 3.2286-4.2813 0.48355-0.36596 1.3185-0.78717 1.8128-0.9145l0.38749-0.0998 0.11836-0.33025c0.32483-0.90632 1.0266-1.9748 1.6404-2.4975 0.36862-0.31389 0.9066-0.60986 1.328-0.73056 0.48124-0.13786 1.3526-0.0921 1.8893 0.0991 0.22384 0.0798 0.41789 0.13413 0.43122 0.1208 0.01333-0.0133-4e-3 -0.75639-0.03856-1.6512-0.03454-0.89486-0.06262-1.7438-0.06238-1.8866l4.13e-4 -0.25955-0.72402 4.1e-4c-1.1797 8.3e-4 -3.8609 0.10187-5.1228 0.19303-4.578 0.33071-8.5886 1.1273-11.803 2.3443-0.96264 0.36448-2.7635 1.2601-3.4425 1.7121-0.67944 0.45225-0.8893 0.64884-1.6066 1.5051-1.1511 1.3741-2.4368 2.3254-3.4954 2.5864-0.32588 0.0803-0.45368 0.0843-0.96974 0.0304-1.1295-0.11809-1.829-0.46969-2.7303-1.3722-0.67235-0.67323-1.133-1.3377-1.6515-2.3822-0.91983-1.8529-1.5721-4.0913-1.9984-6.8577-0.26452-1.7166-0.30746-2.4836-0.3044-5.437 0.00236-2.2777 0.01684-2.7591 0.096949-3.224 0.051796-0.30054 0.14215-0.88897 0.20079-1.3076 0.26761-1.9107 0.57971-3.3051 1.0427-4.6588 0.69259-2.0248 1.949-4.0294 3.0998-4.9455 1.744-1.3884 3.6716-1.1656 5.2895 0.61164 0.12312 0.13524 0.31516 0.36884 0.42676 0.51911 1.0518 1.4162 3.4871 2.9027 6.3977 3.9051 2.7932 0.96196 5.9376 1.5407 9.8631 1.8153 1.3095 0.0916 5.8901 0.0909 7.3495-1e-3 1.4423-0.091 3.4276-0.25895 4.6348-0.39214 0.84393-0.0931 0.99324-0.0973 1.1202-0.0313 0.15159 0.0788 0.69004 0.62201 1.2153 1.226l0.30177 0.34699 0.40757-0.0578c1.4152-0.20076 2.9202-0.0902 4.096 0.30078 1.677 0.55769 2.9818 1.7845 3.5075 3.2977 0.19696 0.56697 0.26741 1.0122 0.29836 1.8854 0.03488 0.98404-0.04766 1.7912-0.28135 2.7515-0.27499 1.13-0.62865 1.7473-1.505 2.6269-0.65219 0.65463-1.265 0.99497-2.1464 1.1921-0.52667 0.11779-1.9042 0.11634-2.6047-3e-3 -0.28521-0.0485-0.53483-0.0707-0.55471-0.0493-0.01989 0.0213-0.12502 0.25517-0.23362 0.5196-0.26634 0.64848-0.71252 1.5303-0.819 1.6187-0.10338 0.0858-0.27021 0.0858-1.4683-4e-5 -0.50418-0.0361-0.92921-0.0532-0.9445-0.0379-0.01528 0.0153 0.01495 0.48811 0.06721 1.0507l0.09501 1.0229 0.23612 0.30407c1.0986 1.4148 2.0708 3.9008 2.4275 6.2072 0.13757 0.88962 0.19923 2.9608 0.10827 3.6367-0.05891 0.43773-0.05673 0.45747 0.06924 0.62519 0.80483 1.0716 1.5566 4.1223 1.7851 7.2434 0.08102 1.107 0.03591 3.6456-0.08119 4.5689-0.3516 2.7722-1.0306 4.682-2.252 6.3337l-0.3481 0.47077 4.5e-5 0.39548c5.2e-5 0.46093 0.08322 1.4266 0.17171 1.9938l0.06181 0.39616h0.24011c0.14501 0 0.24803-0.0271 0.26009-0.0683 1.1697-3.9992 3.5957-8.5333 6.4979-12.144 1.4831-1.8453 3.4877-3.8803 5.2816-5.3616 3.378-2.7892 7.3652-4.9975 11.776-6.5217 0.96758-0.33438 2.9965-0.92237 3.7704-1.0926 0.30054-0.0661 0.92757-0.21396 1.3934-0.32852 0.46583-0.11457 1.0314-0.23923 1.2568-0.27703 0.2254-0.0378 0.42716-0.0835 0.44834-0.10166 0.05321-0.0455-0.25632-0.94859-0.42205-1.2314-0.24814-0.42342-0.12165-0.86145 0.26997-0.93492 0.32232-0.0605 0.50577 0.0864 0.74267 0.59449 0.29525 0.63324 0.42922 1.0725 0.52789 1.7307 0.27414 1.8285-0.54213 3.3509-2.3256 4.3375-0.65769 0.36379-1.0099 0.33304-1.1531-0.10069-0.10566-0.32014 0.02674-0.50214 0.58849-0.80893l0.47715-0.26059 0.69634-1.0849c0.38299-0.59669 0.69634-1.1025 0.69634-1.124 0-0.0946-1.7611 0.31287-2.6229 0.60688-1.6494 0.56271-2.8108 1.3782-3.113 2.186-0.2732 0.73019-0.03767 1.6229 0.67547 2.5601 1.75 2.2999 4.0294 3.3833 7.3781 3.5069 4.1095 0.15173 10.021-1.4874 15.879-4.4026 2.6155-1.3017 4.8649-3.2792 5.1429-4.5212 0.05546-0.24783 0.05121-0.32446-0.02979-0.53654-0.19133-0.501-0.86602-0.89534-2.0611-1.2047-0.99759-0.25821-1.4424-0.48689-1.9579-1.0066-0.68375-0.68932-1.1225-1.626-1.3921-2.972-0.21007-1.0488-0.26436-1.711-0.26292-3.2072 0.0019-1.9347 0.17305-3.7691 0.58895-6.3113 0.36969-2.2597 0.33961-2.1928 1.0196-2.2691 1.4935-0.16749 2.5585-1.4282 3.1339-3.7098 0.20566-0.81555 0.30771-1.7684 0.33703-3.1466 0.0475-2.2332-0.08041-3.277-0.50933-4.1566-0.51273-1.0515-1.3529-1.5189-2.4791-1.3794-0.55544 0.0688-1.0871 0.25581-1.9436 0.68357-0.78563 0.39237-0.89493 0.40696-1.1485 0.15336-0.09645-0.0965-0.1319-0.19199-0.1319-0.35545 0-0.29366 0.1277-0.41761 0.75473-0.73252 0.27154-0.13637 0.50787-0.27088 0.52518-0.2989 0.01731-0.028 0.06086-0.36258 0.09675-0.74346 0.13952-1.4804-0.17963-2.9624-0.85931-3.9903-0.11914-0.18017-0.39839-0.51835-0.62056-0.75151l-0.40393-0.42393 0.02917-0.94216c0.01605-0.51819 8e-3 -1.434-0.01801-2.035-0.09515-2.204-0.38228-3.4174-0.93347-3.9451-0.45142-0.43217-2.0636-0.88945-4.6633-1.3227-6.2295-1.0382-14.043-1.4035-19.316-0.90309-3.4994 0.33207-6.5042 1.1774-7.2944 2.052-0.38359 0.42459-0.77264 1.5107-0.87951 2.4552l-0.03612 0.31926-0.32613-0.22937c-0.17937-0.12615-0.34991-0.27347-0.37897-0.32738-0.09089-0.1686-0.11774-1.1806-0.05248-1.9784 0.17752-2.1707 0.68584-4.0121 1.6441-5.9561 0.85883-1.7422 1.8023-3.0455 3.2461-4.4839 1.0157-1.0119 1.7392-1.6042 2.9298-2.3988 5.9789-3.9897 13.187-5.4954 20.164-4.2119 3.8483 0.70798 7.8125 2.3578 11.366 4.73 0.8298 0.55402 1.3961 1.0087 1.9409 1.5584 3.1059 3.134 5.4627 9.0708 6.1706 15.543 0.20853 1.9068 0.27073 4.7179 0.14086 6.366-0.43022 5.4596-1.9572 9.777-4.6384 13.114-0.72944 0.90798-2.0103 2.1177-3.0401 2.8712-0.52134 0.38147-1.6441 1.0392-2.2813 1.3363-0.40316 0.18802-0.59469 0.30729-0.6142 0.3825-0.06868 0.26473-0.3034 2.2889-0.38673 3.335-0.11202 1.4065-0.08431 3.611 0.05666 4.5063 0.28164 1.7887 0.83411 2.9132 1.6727 3.4047 0.13361 0.0783 0.56995 0.22943 0.96964 0.33584 1.2316 0.32789 1.9179 0.67216 2.4216 1.2147 0.28538 0.3074 0.38966 0.48612 0.48036 0.82325 0.06081 0.22604 0.16755 0.3191 0.16755 0.14606 0-0.0474 0.07188-0.15804 0.15972-0.24589 0.2694-0.2694 0.39636-0.23225 1.4469 0.42344 6.3842 3.9847 12.02 8.0475 15.579 11.231 0.99602 0.89089 2.6096 2.5423 3.1932 3.2681 1.7897 2.2257 3.4227 5.6499 4.5457 9.532 1.0553 3.648 1.7157 7.6661 2.1784 13.254 0.061 0.73632 0.13357 1.5109 0.16134 1.7213 0.0278 0.21038 0.0651 0.83741 0.083 1.3934 0.0636 1.9772 0.21706 3.6119 0.82081 8.7429 0.66115 5.619 0.75773 6.8279 0.76179 9.5353 2e-3 1.6313-0.016 2.1748-0.0954 2.8141-0.29735 2.3946-0.92602 4.0742-1.8524 4.9487-1.9753 1.8649-6.5516 3.3295-13.376 4.2807-3.8097 0.53109-8.0291 0.86952-13.743 1.1023-1.3233 0.0539-10.756 0.10966-12.158 0.0718zm-72.129-77.543c4.2336-2.8089 11.754-4.3899 20.874-4.388 2.2643 4.2e-4 6.5498 0.17694 7.3824 0.30397l0.19679 0.03 0.27791-0.61817c0.39002-0.86755 0.58618-1.3789 0.79938-2.0839 1.3002-4.2995 0.54532-8.1055-2.1706-10.943l-0.44782-0.4679-1.0109 0.11078c-1.014 0.11112-2.4009 0.23207-3.8797 0.33833-1.2817 0.0921-5.8781 0.12793-7.2402 0.0564-4.6472-0.2439-8.5221-0.98971-11.806-2.2723-1.1279-0.44054-2.3345-1.0586-3.6414-1.8653-0.0208-0.0128 0.05923 0.21519 0.17786 0.50673 1.9575 4.8108 2.3313 12.46 0.89151 18.242-0.30527 1.226-0.87484 2.9045-1.197 3.5274l-0.09188 0.17769 0.23795-0.19164c0.13087-0.10539 0.42237-0.31399 0.64778-0.46354zm33.021-6.2246c0.85939-0.1907 1.509-0.6406 2.1912-1.5175 0.4137-0.53181 0.4691-0.63584 0.65793-1.2356 0.42818-1.3599 0.51602-3.1102 0.21531-4.2906-0.33398-1.311-1.397-2.4266-2.8498-2.9907-0.83704-0.32502-1.2824-0.3922-2.6172-0.39482-0.66618-1e-3 -1.2267 0.0131-1.2456 0.032-0.01892 0.0189 0.04233 0.16447 0.1361 0.3235 0.73758 1.2509 1.2076 2.616 1.3971 4.0576 0.06669 0.50726 0.0811 0.94692 0.06035 1.8412-0.03086 1.3304-0.11178 1.9359-0.41986 3.142-0.11516 0.45081-0.21781 0.85647-0.22811 0.90148-0.04534 0.19796 1.9627 0.29562 2.7026 0.13143zm-0.12389-0.98823c-0.16905-0.21492-0.12263-0.35842 0.29518-0.91238 1.1129-1.4756 1.3846-3.1802 0.76841-4.8215-0.16404-0.43695-0.48653-0.99917-0.7628-1.3298-0.23442-0.28058-0.25762-0.52435-0.06697-0.70346 0.22003-0.2067 0.4279-0.1595 0.71787 0.16302 0.13936 0.15501 0.33712 0.4247 0.43946 0.59931 1.2968 2.2126 1.0957 4.7481-0.53668 6.7689-0.25922 0.3209-0.30852 0.35677-0.51081 0.37168-0.19011 0.014-0.24198-6e-3 -0.34366-0.13575zm29.568 9.8414c-0.33035-0.13891-0.40515-0.59803-0.13828-0.84875 0.11262-0.1058 0.23438-0.134 0.8293-0.19206 2.8119-0.27441 5.1834-1.4241 7.3095-3.5438 1.0438-1.0406 1.7957-2.0238 2.3707-3.0999 0.15185-0.28421 0.2761-0.55635 0.2761-0.60477 0-0.17192 0.23588-0.37274 0.47558-0.40489 0.20346-0.0273 0.24843-0.0119 0.39608 0.13579 0.13442 0.13441 0.16657 0.21228 0.16657 0.40339 0 0.46741-0.83772 1.9177-1.7934 3.1048-0.52403 0.65092-1.6399 1.7719-2.2502 2.2604-1.8655 1.4934-4.0219 2.4443-6.202 2.7347-0.94499 0.12589-1.2442 0.13733-1.4399 0.055zm-4.7807-8.3346c-1.1401-0.15078-2.598-0.96745-3.6562-2.048-0.72375-0.73909-1.0858-1.3369-1.0929-1.8043-0.0059-0.39042 0.12342-0.48043 1.0164-0.70735 1.7399-0.44217 3.4212-1.0372 4.7076-1.666 0.86774-0.42421 1.3925-0.75821 2.0179-1.2844 0.40792-0.3432 0.44587-0.36279 0.65008-0.3354 0.41538 0.0557 0.44427 0.13031 0.46473 1.1999 0.06992 3.6549-0.88688 5.9748-2.6955 6.5359-0.42381 0.13146-0.94292 0.17182-1.412 0.1098zm1.1911-1.1456c0.82209-0.30757 1.4297-1.3473 1.6903-2.8922 0.08338-0.49437 0.19446-1.6301 0.19631-2.007l8.26e-4 -0.17649-0.42349 0.27814c-1.1566 0.75964-3.5608 1.7279-5.7164 2.3022l-0.48432 0.12904 0.27083 0.32544c0.78105 0.93852 1.9835 1.7632 2.9924 2.0522 0.46899 0.13436 1.0971 0.12953 1.4736-0.0113zm-6.065-7.672c-0.49557-0.10789-0.83936-0.29142-1.1754-0.62749-0.50092-0.50092-0.70795-1.0874-0.70795-2.0057 0-1.0042 0.15637-1.3548 0.60416-1.3548 0.16235 0 0.25255 0.0371 0.36576 0.15048 0.13881 0.13901 0.1484 0.17642 0.12565 0.49055-0.04708 0.65039-0.02955 1.1614 0.04915 1.4328 0.10767 0.3713 0.48443 0.74947 0.83449 0.83761 0.32088 0.0808 0.93989 0.0824 1.3923 4e-3 0.41597-0.0724 0.63487-6e-3 0.75667 0.22947 0.1184 0.22896 0.0968 0.41106-0.07088 0.59762-0.13115 0.14591-0.21282 0.17727-0.64206 0.24655-0.59373 0.0958-1.0896 0.0956-1.5318-6.8e-4zm9.3699-7.3267c-1.0797-0.9926-1.9861-1.1525-2.9719-0.52441-0.35176 0.22414-0.5842 0.22777-0.79949 0.0125-0.24001-0.24001-0.22351-0.50689 0.04727-0.76447 0.2774-0.26388 0.8484-0.53767 1.335-0.64009 0.70329-0.14805 1.5169 9e-3 2.2126 0.42705 0.46755 0.28097 1.1093 0.85206 1.1992 1.0671 0.15915 0.3809-0.06933 0.72582-0.48079 0.72582-0.18078 0-0.25988-0.0443-0.54183-0.30352zm-11.558-1.2615c-0.17806-0.13944-0.48358-0.33001-0.67893-0.42348-0.32043-0.15332-0.40598-0.16995-0.87429-0.16995-0.47821 0-0.5471 0.0141-0.8743 0.17942-0.19535 0.0987-0.44272 0.23162-0.54971 0.29541-0.35789 0.21338-0.76173-0.0264-0.76173-0.45224 0-0.19297 0.03167-0.25813 0.20484-0.42145 0.3986-0.37593 1.3444-0.71944 1.9809-0.71944 0.39815 0 0.98286 0.14682 1.3978 0.35098 0.51129 0.25157 1.0925 0.70392 1.1625 0.90473 0.07447 0.21363-0.01268 0.51074-0.18244 0.62198-0.24153 0.15825-0.46917 0.11244-0.82467-0.16596zm14.351-6.3324c-0.79199-0.60001-1.5199-0.95156-2.512-1.2132-0.4407-0.11621-0.68407-0.14228-1.5347-0.16443-1.1302-0.0294-1.8954 0.0649-2.7868 0.34367-0.66111 0.20673-0.92117 0.2258-1.1052 0.081-0.33725-0.26528-0.22905-0.72828 0.21457-0.91817 0.34122-0.14605 1.1656-0.36595 1.8196-0.48533 0.73268-0.13375 2.4528-0.13393 3.1693-3.2e-4 1.3123 0.2447 2.7968 0.93913 3.6206 1.6938 0.17384 0.15922 0.20441 0.22149 0.20441 0.4163 0 0.18032-0.03399 0.26305-0.15973 0.38879-0.25144 0.25144-0.45072 0.22097-0.93005-0.14217zm-19.767-0.96567c-0.16182-0.0782-0.30863-0.39839-0.26406-0.57594 0.05247-0.20906 0.28585-0.39669 0.8272-0.66506 1.794-0.88937 3.67-1.1342 5.254-0.68559 0.54037 0.15304 1.5517 0.62949 1.7437 0.82143 0.09529 0.0953 0.12737 0.18871 0.12737 0.3709 0 0.20485-0.0267 0.26599-0.16812 0.38499-0.09247 0.0778-0.23386 0.14176-0.3142 0.14213-0.08034 3.8e-4 -0.41656-0.13639-0.74716-0.3039-0.74729-0.37863-1.2419-0.51172-2.0491-0.55134-1.1084-0.0544-2.252 0.2198-3.4595 0.82951-0.60033 0.30311-0.73589 0.33633-0.95003 0.23287z" fill="#90b1fb"/>
   <path d="m87.703 296.91c-6.1955-0.16711-10.586-0.39971-15.382-0.81496-9.8125-0.84949-17.11-2.2173-20.033-3.7552l-0.52557-0.27645-0.51223 0.34262c-1.6536 1.1061-4.5635 2.0307-7.726 2.455-0.45081 0.0605-0.99178 0.14634-1.2022 0.19079-1.7359 0.36679-3.5073 0.18254-4.9818-0.51819-1.3221-0.62831-2.6336-1.845-3.6168-3.3552-2.2399-3.4408-3.6794-9.2098-4.1584-16.666-0.19004-2.958-0.24607-8.0013-0.119-10.71 0.13109-2.7942 0.18258-3.5562 0.25109-3.7158 0.1058-0.24641 0.88973-1.3204 1.5489-2.122 0.73642-0.89558 2.0665-2.2641 2.8236-2.9051l0.58079-0.49179-0.02726-0.49179c-0.05339-0.96326-0.26214-1.4534-1.4547-3.4152-3.1478-5.1786-3.6696-6.0856-4.6995-8.1692-1.6075-3.2522-2.498-5.8744-2.8485-8.3878-0.09562-0.68573-0.09644-2.7369-0.0013-3.2786 0.17438-0.99289 0.4474-1.875 0.80331-2.5956 0.93933-1.9016 2.0761-3.4091 3.2286-4.2813 0.48355-0.36596 1.3185-0.78717 1.8128-0.9145l0.38749-0.0998 0.11836-0.33025c0.32483-0.90632 1.0266-1.9748 1.6404-2.4975 0.36862-0.31389 0.9066-0.60986 1.328-0.73056 0.48124-0.13786 1.3526-0.0921 1.8893 0.0991 0.22384 0.0798 0.41789 0.13413 0.43122 0.1208 0.01333-0.0133-4e-3 -0.75639-0.03856-1.6512-0.03454-0.89486-0.06262-1.7438-0.06238-1.8866l4.13e-4 -0.25955-0.72402 4.1e-4c-1.1797 8.3e-4 -3.8609 0.10187-5.1228 0.19303-4.578 0.33071-8.5886 1.1273-11.803 2.3443-0.96264 0.36448-2.7635 1.2601-3.4425 1.7121-0.67944 0.45225-0.8893 0.64884-1.6066 1.5051-1.1511 1.3741-2.4368 2.3254-3.4954 2.5864-0.32588 0.0803-0.45368 0.0843-0.96974 0.0304-1.1295-0.11809-1.829-0.46969-2.7303-1.3722-0.67235-0.67323-1.133-1.3377-1.6515-2.3822-0.91983-1.8529-1.5721-4.0913-1.9984-6.8577-0.26452-1.7166-0.30746-2.4836-0.3044-5.437 0.00236-2.2777 0.01684-2.7591 0.096949-3.224 0.051796-0.30054 0.14215-0.88897 0.20079-1.3076 0.26761-1.9107 0.57971-3.3051 1.0427-4.6588 0.69259-2.0248 1.949-4.0294 3.0998-4.9455 1.744-1.3884 3.6716-1.1656 5.2895 0.61164 0.12312 0.13524 0.31516 0.36884 0.42676 0.51911 1.0518 1.4162 3.4871 2.9027 6.3977 3.9051 2.7932 0.96196 5.9376 1.5407 9.8631 1.8153 1.3095 0.0916 5.8901 0.0909 7.3495-1e-3 1.4423-0.091 3.4276-0.25895 4.6348-0.39214 0.84393-0.0931 0.99324-0.0973 1.1202-0.0313 0.15159 0.0788 0.69004 0.62201 1.2153 1.226l0.30177 0.34699 0.40757-0.0578c1.4152-0.20076 2.9202-0.0902 4.096 0.30078 1.677 0.55769 2.9818 1.7845 3.5075 3.2977 0.19696 0.56697 0.26741 1.0122 0.29836 1.8854 0.03488 0.98404-0.04766 1.7912-0.28135 2.7515-0.27499 1.13-0.62865 1.7473-1.505 2.6269-0.65219 0.65463-1.265 0.99497-2.1464 1.1921-0.52667 0.11779-1.9042 0.11634-2.6047-3e-3 -0.28521-0.0485-0.53483-0.0707-0.55471-0.0493-0.01989 0.0213-0.12502 0.25517-0.23362 0.5196-0.26634 0.64848-0.71252 1.5303-0.819 1.6187-0.10338 0.0858-0.27021 0.0858-1.4683-4e-5 -0.50418-0.0361-0.92921-0.0532-0.9445-0.0379-0.01528 0.0153 0.01495 0.48811 0.06721 1.0507l0.09501 1.0229 0.23612 0.30407c1.0986 1.4148 2.0708 3.9008 2.4275 6.2072 0.13757 0.88962 0.19923 2.9608 0.10827 3.6367-0.05891 0.43773-0.05673 0.45747 0.06924 0.62519 0.80483 1.0716 1.5566 4.1223 1.7851 7.2434 0.08102 1.107 0.03591 3.6456-0.08119 4.5689-0.3516 2.7722-1.0306 4.682-2.252 6.3337l-0.3481 0.47077 4.5e-5 0.39548c5.2e-5 0.46093 0.08322 1.4266 0.17171 1.9938l0.06181 0.39616h0.24011c0.14501 0 0.24803-0.0271 0.26009-0.0683 1.1697-3.9992 3.5957-8.5333 6.4979-12.144 1.4831-1.8453 3.4877-3.8803 5.2816-5.3616 3.378-2.7892 7.3652-4.9975 11.776-6.5217 0.96758-0.33438 2.9965-0.92237 3.7704-1.0926 0.30054-0.0661 0.92757-0.21396 1.3934-0.32852 0.46583-0.11457 1.0314-0.23923 1.2568-0.27703 0.2254-0.0378 0.42716-0.0835 0.44834-0.10166 0.05321-0.0455-0.25632-0.94859-0.42205-1.2314-0.24814-0.42342-0.12165-0.86145 0.26997-0.93492 0.32232-0.0605 0.50577 0.0864 0.74267 0.59449 0.29525 0.63324 0.42922 1.0725 0.52789 1.7307 0.27414 1.8285-0.54213 3.3509-2.3256 4.3375-0.65769 0.36379-1.0099 0.33304-1.1531-0.10069-0.10566-0.32014 0.02674-0.50214 0.58849-0.80893l0.47715-0.26059 0.69634-1.0849c0.38299-0.59669 0.69634-1.1025 0.69634-1.124 0-0.0946-1.7611 0.31287-2.6229 0.60688-1.6494 0.56271-2.8108 1.3782-3.113 2.186-0.2732 0.73019-0.03767 1.6229 0.67547 2.5601 1.75 2.2999 4.0294 3.3833 7.3781 3.5069 4.1095 0.15173 10.021-1.4874 15.879-4.4026 2.6155-1.3017 4.8649-3.2792 5.1429-4.5212 0.05546-0.24783 0.05121-0.32446-0.02979-0.53654-0.19133-0.501-0.86602-0.89534-2.0611-1.2047-0.99759-0.25821-1.4424-0.48689-1.9579-1.0066-0.68375-0.68932-1.1225-1.626-1.3921-2.972-0.21007-1.0488-0.26436-1.711-0.26292-3.2072 0.0019-1.9347 0.17305-3.7691 0.58895-6.3113 0.36969-2.2597 0.33961-2.1928 1.0196-2.2691 1.4935-0.16749 2.5585-1.4282 3.1339-3.7098 0.20566-0.81555 0.30771-1.7684 0.33703-3.1466 0.0475-2.2332-0.08041-3.277-0.50933-4.1566-0.51273-1.0515-1.3529-1.5189-2.4791-1.3794-0.55544 0.0688-1.0871 0.25581-1.9436 0.68357-0.78563 0.39237-0.89493 0.40696-1.1485 0.15336-0.09645-0.0965-0.1319-0.19199-0.1319-0.35545 0-0.29366 0.1277-0.41761 0.75473-0.73252 0.27154-0.13637 0.50787-0.27088 0.52518-0.2989 0.01731-0.028 0.06086-0.36258 0.09675-0.74346 0.13952-1.4804-0.17963-2.9624-0.85931-3.9903-0.11914-0.18017-0.39839-0.51835-0.62056-0.75151l-0.40393-0.42393 0.02917-0.94216c0.01605-0.51819 8e-3 -1.434-0.01801-2.035-0.09515-2.204-0.38228-3.4174-0.93347-3.9451-0.45142-0.43217-2.0636-0.88945-4.6633-1.3227-6.2295-1.0382-14.043-1.4035-19.316-0.90309-3.4994 0.33207-6.5042 1.1774-7.2944 2.052-0.38359 0.42459-0.77264 1.5107-0.87951 2.4552l-0.03612 0.31926-0.32613-0.22937c-0.17937-0.12615-0.34991-0.27347-0.37897-0.32738-0.09089-0.1686-0.11774-1.1806-0.05248-1.9784 0.17752-2.1707 0.68584-4.0121 1.6441-5.9561 0.85883-1.7422 1.8023-3.0455 3.2461-4.4839 1.0157-1.0119 1.7392-1.6042 2.9298-2.3988 5.9789-3.9897 13.187-5.4954 20.164-4.2119 3.8483 0.70798 7.8125 2.3578 11.366 4.73 0.8298 0.55402 1.3961 1.0087 1.9409 1.5584 3.1059 3.134 5.4627 9.0708 6.1706 15.543 0.20853 1.9068 0.27073 4.7179 0.14086 6.366-0.43022 5.4596-1.9572 9.777-4.6384 13.114-0.72944 0.90798-2.0103 2.1177-3.0401 2.8712-0.52134 0.38147-1.6441 1.0392-2.2813 1.3363-0.40316 0.18802-0.59469 0.30729-0.6142 0.3825-0.06868 0.26473-0.3034 2.2889-0.38673 3.335-0.11202 1.4065-0.08431 3.611 0.05666 4.5063 0.28164 1.7887 0.83411 2.9132 1.6727 3.4047 0.13361 0.0783 0.56995 0.22943 0.96964 0.33584 1.2316 0.32789 1.9179 0.67216 2.4216 1.2147 0.28538 0.3074 0.38966 0.48612 0.48036 0.82325 0.06081 0.22604 0.16755 0.3191 0.16755 0.14606 0-0.0474 0.07188-0.15804 0.15972-0.24589 0.2694-0.2694 0.39636-0.23225 1.4469 0.42344 6.3842 3.9847 12.02 8.0475 15.579 11.231 0.99602 0.89089 2.6096 2.5423 3.1932 3.2681 1.7897 2.2257 3.4227 5.6499 4.5457 9.532 1.0553 3.648 1.7157 7.6661 2.1784 13.254 0.061 0.73632 0.13357 1.5109 0.16134 1.7213 0.0278 0.21038 0.0651 0.83741 0.083 1.3934 0.0636 1.9772 0.21706 3.6119 0.82081 8.7429 0.66115 5.619 0.75773 6.8279 0.76179 9.5353 2e-3 1.6313-0.016 2.1748-0.0954 2.8141-0.29735 2.3946-0.92602 4.0742-1.8524 4.9487-1.9753 1.8649-6.5516 3.3295-13.376 4.2807-3.8097 0.53109-8.0291 0.86952-13.743 1.1023-1.3233 0.0539-10.756 0.10966-12.158 0.0718zm-46.406-64.791c0.22359-0.11932 0.31936-0.2663 0.4767-0.73158 0.19443-0.57497 0.2998-1.3062 0.36852-2.5573 0.05383-0.98014 0.04909-1.3707-0.03248-2.6775-0.19118-3.0627-0.83047-10.143-0.92092-10.199-0.03113-0.0194-0.58803-0.0503-1.2376-0.0687-0.64954-0.0185-1.3593-0.0467-1.5771-0.0627l-0.39616-0.0292 0.0025 0.39844c4e-3 0.63539 0.14422 3.9792 0.16757 3.9957 0.15906 0.11211 0.93111 0.77501 1.0387 0.89188 0.07879 0.0856 0.73976 1.2706 1.4688 2.6334l1.3256 2.4779-0.0302 0.29261c-0.0166 0.16093-0.09517 0.42291-0.17457 0.58217-0.5075 1.0179-1.7901 1.473-3.0482 1.0815l-0.31537-0.0981 0.03234 0.28151c0.17818 1.5508 0.34184 2.4188 0.57856 3.0683 0.20607 0.56544 0.2983 0.67897 0.62584 0.77036 0.38373 0.10707 1.4118 0.076 1.6475-0.0497zm-30.426-8.948c0.49677-0.17461 0.88204-0.43733 1.3974-0.95289 1.4232-1.4238 2.566-4.0659 3.2203-7.4453 0.179-0.9245 0.17926-0.96388 0.0061-0.92041-0.40155 0.10078-2.083-0.16851-3.5542-0.56922-1.5942-0.43421-2.3021-0.92561-2.8109-1.9511-0.24832-0.50049-0.34002-0.89993-0.37129-1.6173-0.078505-1.8009 0.61995-3.5125 1.7682-4.3331 0.44162-0.3156 0.82638-0.48674 1.4781-0.65744 0.45888-0.12019 0.68798-0.14432 1.5752-0.16588 0.73972-0.018 1.211-2e-3 1.6393 0.056 0.33059 0.0447 0.60629 0.0761 0.61266 0.0699 0.0064-6e-3 -0.03671-0.35448-0.09574-0.77387-0.74734-5.3095-2.6978-9.2069-4.9625-9.9159-2.4246-0.75904-4.8706 2.4566-6.0422 7.9435-1.4516 6.7982-0.4666 15.151 2.2691 19.242 1.1684 1.7474 2.5465 2.4561 3.8705 1.9908zm4.2946-3.4876c1.2792-0.97252 3.5537-2.026 5.955-2.7581 5.6157-1.7123 13.087-2.2982 21.631-1.6966 0.65712 0.0463 1.2252 0.0724 1.2625 0.0581 0.09056-0.0347 0.6779-1.3795 0.95247-2.1808 0.26092-0.76139 0.50724-1.7496 0.64344-2.5814 0.12391-0.75675 0.13995-2.8896 0.02651-3.5245-0.38252-2.141-1.203-3.769-2.7247-5.4064l-0.37779-0.4065-1.5268 0.14881c-9.4847 0.92444-16.803 0.28918-22.537-1.9564-0.76872-0.30103-2.4059-1.1214-3.0529-1.5298-0.31165-0.19671-0.57371-0.35766-0.58236-0.35766-0.0086 0 0.07003 0.20286 0.17483 0.45081 0.82468 1.951 1.4516 4.7908 1.722 7.8003 0.09447 1.0514 0.09446 4.6316-1.4e-5 5.6829-0.28522 3.1738-0.93617 6.0438-1.833 8.0817-0.17673 0.40158-0.21873 0.54018-0.14789 0.48811 0.05441-0.04 0.24096-0.1807 0.41455-0.31267zm33.061-6.4577c1.1468-0.15951 1.8424-0.60408 2.6734-1.7086 0.34539-0.45912 0.48018-0.75362 0.65781-1.4373 0.2923-1.125 0.38221-2.5933 0.21687-3.5415-0.16276-0.93332-0.51617-1.6197-1.1925-2.3162-0.73715-0.75904-1.6569-1.2143-2.9593-1.4646-0.52257-0.10047-2.1574-0.13606-2.556-0.0556l-0.20637 0.0416 0.14176 0.22949c0.07797 0.12622 0.28703 0.52054 0.46458 0.87627 1.2485 2.5015 1.4223 5.5016 0.50631 8.7423-0.07496 0.26519-0.12382 0.49464-0.10858 0.50987 0.04361 0.0436 1.1731 0.17031 1.5768 0.17687 0.20069 3e-3 0.55408-0.0204 0.78533-0.0526zm0.29784-1.0344c-0.16658-0.16658-0.13999-0.41532 0.07241-0.67741 0.53789-0.6637 0.92376-1.3886 1.1404-2.1425 0.10455-0.36374 0.12341-0.55569 0.12022-1.2237-0.0033-0.6991-0.02129-0.85019-0.15259-1.2841-0.19927-0.65855-0.46406-1.1962-0.8262-1.6776-0.16481-0.21908-0.29965-0.45105-0.29965-0.51548 0-0.20598 0.18138-0.3697 0.40956-0.3697 0.17503 0 0.23562 0.0356 0.41362 0.24316 0.4724 0.55079 0.93829 1.513 1.1547 2.3848 0.16954 0.68295 0.16915 1.8111-8.27e-4 2.4962-0.13839 0.55762-0.4157 1.2277-0.70388 1.7008-0.22822 0.37466-0.62897 0.91183-0.79717 1.0685-0.1473 0.13723-0.3918 0.13585-0.53064-3e-3zm-32.834 0.84031 0.19821-0.0328 0.02828-0.77261c0.01556-0.42493 0.05968-1.3996 0.09804-2.166 0.05581-1.1148 0.05639-1.6993 0.0029-2.9234-0.03678-0.84151-0.08516-1.5484-0.10751-1.5708-0.09026-0.0905-1.2363-0.20319-2.0762-0.20413-2.058-2e-3 -3.1046 0.50505-3.7511 1.8184-0.34783 0.70662-0.47362 1.227-0.50546 2.0909-0.030686 0.8328 0.024104 1.1632 0.2822 1.7018 0.21977 0.45859 0.59802 0.85331 1.0471 1.0926 0.54088 0.28829 2.4854 0.79415 3.6032 0.93738 0.47355 0.0607 0.92103 0.0716 1.1803 0.0287zm-4.1577-1.1785c-0.14172-0.15212-0.1413-0.35467 0.0012-0.56345 0.21188-0.31053 0.53363-0.9899 0.66119-1.3961 0.1069-0.34042 0.1272-0.51904 0.12386-1.0902-0.0034-0.58497-0.02474-0.74587-0.14849-1.1207-0.07947-0.24071-0.24578-0.60557-0.36956-0.81082-0.16056-0.26621-0.21586-0.40984-0.19295-0.50113 0.07528-0.29995 0.39289-0.43227 0.62413-0.26003 0.20259 0.15091 0.57486 0.87681 0.75038 1.4632 0.12562 0.41967 0.14777 0.59596 0.15101 1.2022 0.0042 0.78514-0.06786 1.1718-0.3495 1.8752-0.17537 0.43797-0.48563 0.99275-0.67029 1.1985-0.14644 0.1632-0.4305 0.16484-0.58094 3e-3zm66.507 10.142c-0.33035-0.13891-0.40515-0.59803-0.13828-0.84875 0.11262-0.1058 0.23438-0.134 0.8293-0.19206 2.8119-0.27441 5.1834-1.4241 7.3095-3.5438 1.0438-1.0406 1.7957-2.0238 2.3707-3.0999 0.15185-0.28421 0.2761-0.55635 0.2761-0.60477 0-0.17192 0.23588-0.37274 0.47558-0.40489 0.20346-0.0273 0.24843-0.0119 0.39608 0.13579 0.13442 0.13441 0.16657 0.21228 0.16657 0.40339 0 0.46741-0.83772 1.9177-1.7934 3.1048-0.52403 0.65092-1.6399 1.7719-2.2502 2.2604-1.8655 1.4934-4.0219 2.4443-6.202 2.7347-0.94499 0.12589-1.2442 0.13733-1.4399 0.055zm-4.7807-8.3346c-1.1401-0.15078-2.598-0.96745-3.6562-2.048-0.72375-0.73909-1.0858-1.3369-1.0929-1.8043-0.0059-0.39042 0.12342-0.48043 1.0164-0.70735 1.7399-0.44217 3.4212-1.0372 4.7076-1.666 0.86774-0.42421 1.3925-0.75821 2.0179-1.2844 0.40792-0.3432 0.44587-0.36279 0.65008-0.3354 0.41538 0.0557 0.44427 0.13031 0.46473 1.1999 0.06992 3.6549-0.88688 5.9748-2.6955 6.5359-0.42381 0.13146-0.94292 0.17182-1.412 0.1098zm1.1911-1.1456c0.82209-0.30757 1.4297-1.3473 1.6903-2.8922 0.08338-0.49437 0.19446-1.6301 0.19631-2.007l8.26e-4 -0.17649-0.42349 0.27814c-1.1566 0.75964-3.5608 1.7279-5.7164 2.3022l-0.48432 0.12904 0.27083 0.32544c0.78105 0.93852 1.9835 1.7632 2.9924 2.0522 0.46899 0.13436 1.0971 0.12953 1.4736-0.0113zm-6.065-7.672c-0.49557-0.10789-0.83936-0.29142-1.1754-0.62749-0.50092-0.50092-0.70795-1.0874-0.70795-2.0057 0-1.0042 0.15637-1.3548 0.60416-1.3548 0.16235 0 0.25255 0.0371 0.36576 0.15048 0.13881 0.13901 0.1484 0.17642 0.12565 0.49055-0.04708 0.65039-0.02955 1.1614 0.04915 1.4328 0.10767 0.3713 0.48443 0.74947 0.83449 0.83761 0.32088 0.0808 0.93989 0.0824 1.3923 4e-3 0.41597-0.0724 0.63487-6e-3 0.75667 0.22947 0.1184 0.22896 0.0968 0.41106-0.07088 0.59762-0.13115 0.14591-0.21282 0.17727-0.64206 0.24655-0.59373 0.0958-1.0896 0.0956-1.5318-6.8e-4zm9.3699-7.3267c-1.0797-0.9926-1.9861-1.1525-2.9719-0.52441-0.35176 0.22414-0.5842 0.22777-0.79949 0.0125-0.24001-0.24001-0.22351-0.50689 0.04727-0.76447 0.2774-0.26388 0.8484-0.53767 1.335-0.64009 0.70329-0.14805 1.5169 9e-3 2.2126 0.42705 0.46755 0.28097 1.1093 0.85206 1.1992 1.0671 0.15915 0.3809-0.06933 0.72582-0.48079 0.72582-0.18078 0-0.25988-0.0443-0.54183-0.30352zm-11.558-1.2615c-0.17806-0.13944-0.48358-0.33001-0.67893-0.42348-0.32043-0.15332-0.40598-0.16995-0.87429-0.16995-0.47821 0-0.5471 0.0141-0.8743 0.17942-0.19535 0.0987-0.44272 0.23162-0.54971 0.29541-0.35789 0.21338-0.76173-0.0264-0.76173-0.45224 0-0.19297 0.03167-0.25813 0.20484-0.42145 0.3986-0.37593 1.3444-0.71944 1.9809-0.71944 0.39815 0 0.98286 0.14682 1.3978 0.35098 0.51129 0.25157 1.0925 0.70392 1.1625 0.90473 0.07447 0.21363-0.01268 0.51074-0.18244 0.62198-0.24153 0.15825-0.46917 0.11244-0.82467-0.16596zm14.351-6.3324c-0.79199-0.60001-1.5199-0.95156-2.512-1.2132-0.4407-0.11621-0.68407-0.14228-1.5347-0.16443-1.1302-0.0294-1.8954 0.0649-2.7868 0.34367-0.66111 0.20673-0.92117 0.2258-1.1052 0.081-0.33725-0.26528-0.22905-0.72828 0.21457-0.91817 0.34122-0.14605 1.1656-0.36595 1.8196-0.48533 0.73268-0.13375 2.4528-0.13393 3.1693-3.2e-4 1.3123 0.2447 2.7968 0.93913 3.6206 1.6938 0.17384 0.15922 0.20441 0.22149 0.20441 0.4163 0 0.18032-0.03399 0.26305-0.15973 0.38879-0.25144 0.25144-0.45072 0.22097-0.93005-0.14217zm-19.767-0.96567c-0.16182-0.0782-0.30863-0.39839-0.26406-0.57594 0.05247-0.20906 0.28585-0.39669 0.8272-0.66506 1.794-0.88937 3.67-1.1342 5.254-0.68559 0.54037 0.15304 1.5517 0.62949 1.7437 0.82143 0.09529 0.0953 0.12737 0.18871 0.12737 0.3709 0 0.20485-0.0267 0.26599-0.16812 0.38499-0.09247 0.0778-0.23386 0.14176-0.3142 0.14213-0.08034 3.8e-4 -0.41656-0.13639-0.74716-0.3039-0.74729-0.37863-1.2419-0.51172-2.0491-0.55134-1.1084-0.0544-2.252 0.2198-3.4595 0.82951-0.60033 0.30311-0.73589 0.33633-0.95003 0.23287z" fill="#f59a9a"/>
   <path d="m88.276 296.91c-2.344-0.0569-5.0434-0.14476-6.6118-0.21527-14.537-0.6535-26.332-2.4629-29.726-4.5601l-0.16661-0.10296-0.46731 0.32126c-1.6419 1.1288-4.3231 1.9974-7.6724 2.4855-0.51091 0.0745-1.2117 0.18763-1.5573 0.25148-0.81222 0.15006-2.1461 0.16587-2.872 0.034-5.8524-1.0629-9.1633-8.8416-9.7502-22.907-0.06785-1.6261-0.06901-6.6978-0.0019-8.2785 0.09886-2.3281 0.17305-3.5826 0.22297-3.7704 0.0595-0.22385 0.85133-1.3242 1.6494-2.292 0.63771-0.77339 2.0704-2.2421 2.8011-2.8715l0.49179-0.42361 0.01802 0.18277c0.02679 0.27164-0.08756 1.188-0.24448 1.9592-0.1773 0.87138-0.54468 2.1018-0.89917 3.0114-0.30911 0.7932-0.31856 0.9558-0.07257 1.2481 0.63642 0.75634 2.6418-0.0629 5.6243-2.2976 2.98-2.2328 5.3069-4.7697 5.7734-6.2946 0.15698-0.51311 0.12569-1.1395-0.07196-1.4404-0.12543-0.19097-0.2644-0.51827-0.2644-0.62269 0-0.0238 0.09938-0.0509 0.22084-0.0601l0.22084-0.0168 0.34886-1.0382c0.9404-2.7987 2.4474-5.822 4.2309-8.4883 4.6204-6.9072 11.225-11.931 19.189-14.597 1.3747-0.4601 3.4045-1.0274 3.9987-1.1174 0.11221-0.017 0.3827-0.0809 0.60108-0.142 0.55044-0.15396 1.5122-0.36991 1.8427-0.41376 0.15159-0.0201 0.27563-0.0548 0.27563-0.0772 0-0.12555-0.30338-0.94363-0.44041-1.1876-0.24707-0.43986-0.20708-0.75081 0.11816-0.919 0.33805-0.17481 0.58873-0.0101 0.87079 0.57219 0.68847 1.4213 0.73893 2.9999 0.13278 4.1534-0.39994 0.7611-1.0875 1.4206-1.9928 1.9113-0.49815 0.27006-0.73825 0.29021-0.94881 0.0797-0.10674-0.10674-0.14406-0.19966-0.14406-0.35867 0-0.26543 0.13635-0.40466 0.70562-0.72055l0.40509-0.22477 0.67412-1.0548c0.37077-0.58012 0.67412-1.0812 0.67412-1.1135 0-0.0707-0.22062-0.0398-1.0929 0.15325-1.9072 0.42204-3.7268 1.2862-4.3233 2.0531-0.86141 1.1076-0.49151 2.3804 1.1813 4.0647 0.77411 0.77945 1.2155 1.1158 1.9977 1.5223 3.4073 1.7707 8.8053 1.3368 15.701-1.262 2.3644-0.891 5.3088-2.2771 6.4168-3.0208 2.138-1.4349 3.5064-2.9305 3.5064-3.8322 0-0.66753-0.76495-1.1727-2.3932-1.5804-0.57623-0.14428-0.9439-0.30902-1.3226-0.59259-1.0664-0.79858-1.7456-2.4034-1.9661-4.6459-0.08192-0.83275-0.06774-3.0197 0.02716-4.1898 0.12742-1.571 0.4438-3.8629 0.75419-5.4634 0.12699-0.65481 0.20162-0.72457 0.85298-0.79731 0.78907-0.0881 1.5781-0.61819 2.1091-1.417 0.64432-0.9692 1.0198-2.2054 1.2093-3.9813 0.10901-1.0216 0.07145-3.9216-0.05812-4.4864-0.19626-0.85553-0.49887-1.4817-0.92129-1.9064-0.88318-0.88782-2.1061-0.85327-3.9776 0.11239-0.7058 0.36419-0.8233 0.37413-1.0625 0.0899-0.30402-0.3613-0.12801-0.64933 0.6446-1.0549 0.60264-0.31633 0.5619-0.22455 0.62086-1.3988 0.05812-1.1576-0.13746-2.2254-0.5625-3.071-0.27569-0.54845-0.47179-0.8236-0.91465-1.2833l-0.38288-0.39746-0.01002-1.8429c-0.01512-2.7785-0.21931-4.0974-0.76055-4.9126-0.16427-0.2474-0.25308-0.31699-0.64215-0.50312-1.8013-0.86175-7.6497-1.7224-14.222-2.0928-1.5903-0.0896-6.376-0.09-7.6501-6e-4 -2.4531 0.17215-4.2945 0.43243-5.8292 0.82397-1.4069 0.35894-2.5611 0.84302-3.0211 1.2671-0.43465 0.40065-0.81044 1.318-0.96333 2.3516-0.0373 0.25217-0.07533 0.46809-0.08451 0.47981-0.03055 0.039-0.62912-0.39946-0.68317-0.50046-0.09122-0.17044-0.11819-1.1808-0.05284-1.9798 0.17752-2.1707 0.68583-4.0121 1.6441-5.9561 0.85883-1.7422 1.8023-3.0455 3.2461-4.4839 1.0157-1.0119 1.7392-1.6042 2.9298-2.3988 5.9789-3.9897 13.187-5.4954 20.164-4.2119 3.8483 0.70797 7.8125 2.3578 11.366 4.73 0.8298 0.55402 1.3961 1.0087 1.9409 1.5584 3.1059 3.134 5.4627 9.0708 6.1706 15.543 0.28003 2.5607 0.27936 5.4177-2e-3 7.8413-0.48795 4.2054-1.8198 7.942-3.837 10.765-0.54917 0.76851-0.91399 1.2032-1.6221 1.9327-1.2838 1.3227-2.6144 2.2939-4.2208 3.0807-0.38359 0.18788-0.71291 0.36285-0.73182 0.38881-0.03325 0.0456-0.21235 1.3236-0.31884 2.2751-0.21486 1.9198-0.21647 4.6377-0.0034 5.8468 0.23268 1.3208 0.63103 2.2756 1.1775 2.8223 0.34726 0.34743 0.70776 0.53436 1.2951 0.67155 1.7685 0.41312 2.7789 1.1201 3.0484 2.1331 0.06061 0.22782 0.07027 0.23737 0.1416 0.13982 0.0421-0.0576 0.07655-0.13509 0.07655-0.17224 0-0.1081 0.27465-0.29406 0.4343-0.29406 0.17058 0 0.39212 0.12985 2.4072 1.4109 7.2877 4.633 12.983 8.9393 16.16 12.218 1.0041 1.0364 1.5622 1.7205 2.2324 2.7364 2.4654 3.7369 4.2123 8.9971 5.1534 15.519 0.3452 2.392 0.80181 7.0489 0.88135 8.9888 0.0911 2.2224 0.2378 3.7934 0.7908 8.4697 0.69178 5.8499 0.80984 7.2916 0.81216 9.9178 2e-3 2.0795-0.0645 2.9426-0.32385 4.2117-0.18932 0.92649-0.41052 1.5817-0.80114 2.3728-0.29098 0.5894-0.39383 0.7396-0.75011 1.0955-2.1368 2.1348-7.757 3.7647-16.178 4.6916-3.3241 0.36593-6.7608 0.60062-11.311 0.77242-1.4453 0.0546-9.8207 0.10945-11.284 0.0739zm-44.87-49.226c-0.1502-0.1052-0.25897-0.37669-0.21736-0.5425 0.0183-0.0729 0.15221-0.27628 0.29756-0.45186 1.2212-1.4753 1.9622-3.496 2.2811-6.2207 0.12018-1.027 0.15979-2.9947 0.0825-4.0982-0.2261-3.2279-0.94846-6.1626-1.7314-7.034-0.23281-0.25911-0.26347-0.38963-0.18474-0.78648 0.03507-0.17678 0.07633-0.75175 0.09167-1.2777 0.05456-1.8704-0.29174-3.8892-0.96234-5.6099-0.26562-0.68158-0.54489-1.2341-0.54791-1.0839-0.0012 0.0601 0.07017 0.96991 0.15862 2.0218 0.08845 1.0519 0.20183 2.5396 0.25196 3.3059 0.18471 2.8239-0.01704 5.0971-0.55088 6.207-0.20137 0.41866-0.4167 0.63204-0.79667 0.78943l-0.17335 0.0718 0.03036 0.933c0.01669 0.51313 0.06093 1.1454 0.0983 1.4051 0.0819 0.56911 0.02816 0.75793-0.25382 0.89174-0.40567 0.1925-0.6867-0.0647-0.7838-0.71726-0.08589-0.57723-0.18362-2.0856-0.14507-2.2392 0.02723-0.10849 6e-3 -0.12729-0.17431-0.15444-1.0567-0.15911-1.3461-0.30115-1.6466-0.8079l-0.18448-0.31117-0.15959 0.22031c-0.30591 0.4223-0.80733 0.76985-1.3356 0.92573l-0.22483 0.0663-0.03047 0.40285c-0.09072 1.1996-0.95226 1.8751-2.3957 1.8784l-0.41684 1e-3 -0.06278 0.42349c-0.11778 0.79454-0.51371 1.4097-1.0892 1.6923-0.28708 0.14099-0.35644 0.15176-0.96503 0.14986-0.59466-2e-3 -0.69232-0.0168-1.0487-0.16082-0.83495-0.33735-1.4922-0.91919-1.4922-1.3209 0-0.26804 0.24587-0.51066 0.51751-0.51066 0.16552 0 0.24418 0.0461 0.47876 0.2807 0.57229 0.57228 1.5832 0.86892 2.0638 0.60557 0.39804-0.21813 0.57399-0.85875 0.48347-1.7603-0.16172-1.6108-1.1599-2.8241-3.1337-3.8089-0.27048-0.13495-0.53428-0.29836-0.5862-0.36312-0.13953-0.17403-0.12107-0.43576 0.04462-0.63268 0.21222-0.25221 0.4627-0.23095 1.1427 0.097 0.30054 0.14495 0.68529 0.35273 0.855 0.46176 1.3301 0.85446 2.3893 2.2 2.7076 3.4394l0.09853 0.38372 0.51586-0.0338c0.94621-0.062 1.2303-0.31682 1.2235-1.0974-0.0076-0.87792-0.34189-1.9042-0.99577-3.0576-0.67433-1.1894-1.7681-2.0347-3.1216-2.4124-0.63718-0.17779-0.85002-0.35678-0.7989-0.67183 0.04825-0.29732 0.2297-0.44097 0.6437-0.50957 0.52762-0.0874 1.0357 0.0137 1.6548 0.32924 0.41313 0.21061 0.59256 0.3487 1.0743 0.82678 1.0374 1.0294 1.8062 2.258 2.2909 3.6613 0.23719 0.68667 0.23065 0.68131 0.59945 0.49152 0.46089-0.23717 0.65688-0.60895 0.65688-1.246 0-1.2242-0.91542-3.1137-2.4896-5.1388-0.74401-0.95708-1.1383-1.3402-1.5267-1.4834-0.71314-0.2629-1.6277-0.19052-2.4259 0.192-0.5526 0.26482-0.83281 0.46924-1.419 1.0352-0.85517 0.82561-1.6055 1.9188-2.3352 3.4019-0.36191 0.73563-0.53206 0.9444-0.76973 0.9444-0.28352 0-0.56367-0.25897-0.56367-0.52107 0-0.14773 0.9778-2.0181 1.3683-2.6173 0.52205-0.80109 0.80933-1.1689 1.3629-1.7447 0.92548-0.9628 1.855-1.5484 2.8249-1.7796l0.28298-0.0675 0.19435-0.50093c0.6299-1.6236 1.7928-2.8123 3.0302-3.0975 0.45204-0.10419 1.2617-0.043 1.7351 0.13112 0.21401 0.0787 0.40843 0.14313 0.43203 0.14313 0.04134 0 0.0078-1.5892-0.06558-3.1097l-0.03538-0.73272-1.9174 0.0359c-3.5615 0.0667-6.2574 0.2972-9.103 0.77832-4.5025 0.76125-8.3119 2.1287-10.532 3.7805-0.23892 0.1778-0.57615 0.51394-0.85284 0.85009-0.999 1.2136-2.0504 2.1303-2.9595 2.5802-0.88314 0.43705-1.4698 0.49434-2.4668 0.24089-2.4471-0.6221-4.4287-3.9282-5.4517-9.0955-0.39302-1.9853-0.52-3.3334-0.56104-5.9561-0.032449-2.0739 0.030285-3.7117 0.16893-4.4101 0.043511-0.21919 0.10629-0.61983 0.1395-0.89031 0.35288-2.8735 1.1113-5.4084 2.1567-7.2087 1.6994-2.9266 3.6723-3.9932 5.7055-3.0847 0.69738 0.31164 1.419 0.95046 2.1217 1.8783 0.4966 0.65568 1.3489 1.3499 2.4858 2.0248 5.4085 3.2104 14.171 4.3367 24.99 3.2119 1.7836-0.18544 1.6531-0.18986 1.9603 0.0665 0.24145 0.20143 0.89002 0.89475 1.1668 1.2473l0.12179 0.15513 0.54676-0.0636c0.73727-0.0857 2.0983-0.0748 2.7341 0.0219 0.99485 0.15127 1.9924 0.5167 2.7153 0.99468 0.73649 0.48696 1.5295 1.4039 1.8716 2.1642 0.63872 1.4193 0.65732 3.5342 0.04865 5.5319-0.21209 0.69608-0.30722 0.8801-0.74731 1.4454-0.87586 1.1251-1.6498 1.6534-2.7681 1.8896-0.57478 0.12139-1.7719 0.1219-2.5606 1e-3 -0.32637-0.05-0.59886-0.0833-0.60555-0.0741-0.0067 9e-3 -0.0689 0.16432-0.13824 0.34465-0.28329 0.73659-0.82818 1.7814-0.96046 1.8417-0.09592 0.0437-0.43109 0.0392-1.2527-0.017-1.1115-0.0759-1.1217-0.0756-1.1222 0.0329-2.07e-4 0.0602 0.04042 0.53742 0.09041 1.0604l0.09089 0.95086 0.26439 0.34931c1.1172 1.476 2.048 3.8713 2.3973 6.1691 0.14467 0.95165 0.20438 2.7782 0.11546 3.5322-0.06201 0.52584-0.06165 0.52917 0.07968 0.73586 0.84288 1.2326 1.5523 4.1759 1.7753 7.3659 0.07849 1.1226 0.03722 3.3071-0.08156 4.3168-0.1613 1.3712-0.41558 2.5485-0.7773 3.599-0.4133 1.2003-1.1869 2.5808-1.8339 3.2724-0.24913 0.26631-0.32299 0.3142-0.48459 0.3142-0.10486 0-0.24192-0.0359-0.30458-0.0798zm-2.1103-15.565c0.22359-0.11932 0.31936-0.2663 0.4767-0.73158 0.19443-0.57497 0.2998-1.3062 0.36852-2.5573 0.05383-0.98014 0.04909-1.3707-0.03248-2.6775-0.19118-3.0627-0.83047-10.143-0.92092-10.199-0.03113-0.0194-0.58803-0.0503-1.2376-0.0687-0.64954-0.0185-1.3593-0.0467-1.5771-0.0627l-0.39616-0.0292 0.0025 0.39844c4e-3 0.63539 0.14422 3.9792 0.16757 3.9957 0.15906 0.11211 0.93111 0.77501 1.0387 0.89188 0.07879 0.0856 0.73976 1.2706 1.4688 2.6334l1.3256 2.4779-0.0302 0.29261c-0.0166 0.16093-0.09517 0.42291-0.17457 0.58217-0.5075 1.0179-1.7901 1.473-3.0482 1.0815l-0.31537-0.0981 0.03234 0.28151c0.17818 1.5508 0.34184 2.4188 0.57856 3.0683 0.20607 0.56544 0.2983 0.67897 0.62584 0.77036 0.38373 0.10707 1.4118 0.076 1.6475-0.0497zm-0.99673-5.0084c0.24708-0.10943 0.48637-0.34325 0.56538-0.55248 0.04726-0.12515-0.08586-0.40062-1.1882-2.459l-1.2414-2.318-0.44381-0.3825c-0.50166-0.43237-0.8928-0.68332-1.3924-0.89336-0.29336-0.12333-0.4223-0.14427-0.88953-0.14444-0.51441 0-0.56714 0.0106-0.89976 0.18403-0.37573 0.19589-0.90527 0.68714-1.1889 1.1029-0.1866 0.27354-0.61616 1.102-0.61616 1.1883 0 0.0298 0.18077 0.0945 0.40172 0.14363 0.68379 0.15213 1.0967 0.38822 1.5825 0.9047 0.23478 0.24963 0.58936 0.66538 0.78796 0.92388 0.52329 0.68112 0.50122 0.66838 0.41865 0.24165-0.03967-0.205-0.07303-0.54962-0.07413-0.76584-0.0024-0.47001 0.11476-0.65556 0.44735-0.70851 0.18053-0.0287 0.22518-0.0107 0.39616 0.16031 0.16356 0.16356 0.1927 0.22999 0.1927 0.43926 0 0.62726 0.24969 1.4722 0.58844 1.9912 0.58781 0.9006 1.7128 1.3166 2.5536 0.94424zm-29.429-3.9396c0.49677-0.17461 0.88204-0.43733 1.3974-0.95289 1.4232-1.4238 2.566-4.0659 3.2203-7.4453 0.179-0.9245 0.17926-0.96388 0.0061-0.92041-0.40155 0.10078-2.083-0.16851-3.5542-0.56922-1.5942-0.43421-2.3021-0.92561-2.8109-1.9511-0.24832-0.50049-0.34002-0.89993-0.37129-1.6173-0.078505-1.8009 0.61995-3.5125 1.7682-4.3331 0.44162-0.3156 0.82638-0.48674 1.4781-0.65744 0.45888-0.12019 0.68798-0.14432 1.5752-0.16588 0.73972-0.018 1.211-2e-3 1.6393 0.056 0.33059 0.0447 0.60629 0.0761 0.61266 0.0699 0.0064-6e-3 -0.03671-0.35448-0.09574-0.77387-0.74734-5.3095-2.6978-9.2069-4.9625-9.9159-2.4246-0.75904-4.8706 2.4566-6.0422 7.9435-1.4516 6.7982-0.4666 15.151 2.2691 19.242 1.1684 1.7474 2.5465 2.4561 3.8705 1.9908zm4.2946-3.4876c1.2792-0.97252 3.5537-2.026 5.955-2.7581 5.6157-1.7123 13.087-2.2982 21.631-1.6966 0.65712 0.0463 1.2252 0.0724 1.2625 0.0581 0.09056-0.0347 0.6779-1.3795 0.95247-2.1808 0.26092-0.76139 0.50724-1.7496 0.64344-2.5814 0.12391-0.75675 0.13995-2.8896 0.02651-3.5245-0.38252-2.141-1.203-3.769-2.7247-5.4064l-0.37779-0.4065-1.5268 0.14881c-9.4847 0.92444-16.803 0.28918-22.537-1.9564-0.76872-0.30103-2.4059-1.1214-3.0529-1.5298-0.31165-0.19671-0.57371-0.35766-0.58236-0.35766-0.0086 0 0.07003 0.20286 0.17483 0.45081 0.82468 1.951 1.4516 4.7908 1.722 7.8003 0.09447 1.0514 0.09446 4.6316-1.4e-5 5.6829-0.28522 3.1738-0.93617 6.0438-1.833 8.0817-0.17673 0.40158-0.21873 0.54018-0.14789 0.48811 0.05441-0.04 0.24096-0.1807 0.41455-0.31267zm33.061-6.4577c1.1468-0.15951 1.8424-0.60408 2.6734-1.7086 0.34539-0.45912 0.48018-0.75362 0.65781-1.4373 0.2923-1.125 0.38221-2.5933 0.21687-3.5415-0.16276-0.93332-0.51617-1.6197-1.1925-2.3162-0.73715-0.75904-1.6569-1.2143-2.9593-1.4646-0.52257-0.10047-2.1574-0.13606-2.556-0.0556l-0.20637 0.0416 0.14176 0.22949c0.07797 0.12622 0.28703 0.52054 0.46458 0.87627 1.2485 2.5015 1.4223 5.5016 0.50631 8.7423-0.07496 0.26519-0.12382 0.49464-0.10858 0.50987 0.04361 0.0436 1.1731 0.17031 1.5768 0.17687 0.20069 3e-3 0.55408-0.0204 0.78533-0.0526zm0.29784-1.0344c-0.16658-0.16658-0.13999-0.41532 0.07241-0.67741 0.53789-0.6637 0.92376-1.3886 1.1404-2.1425 0.10455-0.36374 0.12341-0.55569 0.12022-1.2237-0.0033-0.6991-0.02129-0.85019-0.15259-1.2841-0.19927-0.65855-0.46406-1.1962-0.8262-1.6776-0.16481-0.21908-0.29965-0.45105-0.29965-0.51548 0-0.20598 0.18138-0.3697 0.40956-0.3697 0.17503 0 0.23562 0.0356 0.41362 0.24316 0.4724 0.55079 0.93829 1.513 1.1547 2.3848 0.16954 0.68295 0.16915 1.8111-8.27e-4 2.4962-0.13839 0.55762-0.4157 1.2277-0.70388 1.7008-0.22822 0.37466-0.62897 0.91183-0.79717 1.0685-0.1473 0.13723-0.3918 0.13585-0.53064-3e-3zm-32.834 0.84031 0.19821-0.0328 0.02828-0.77261c0.01556-0.42493 0.05968-1.3996 0.09804-2.166 0.05581-1.1148 0.05639-1.6993 0.0029-2.9234-0.03678-0.84151-0.08516-1.5484-0.10751-1.5708-0.09026-0.0905-1.2363-0.20319-2.0762-0.20413-2.058-2e-3 -3.1046 0.50505-3.7511 1.8184-0.34783 0.70662-0.47362 1.227-0.50546 2.0909-0.030686 0.8328 0.024104 1.1632 0.2822 1.7018 0.21977 0.45859 0.59802 0.85331 1.0471 1.0926 0.54088 0.28829 2.4854 0.79415 3.6032 0.93738 0.47355 0.0607 0.92103 0.0716 1.1803 0.0287zm-4.1577-1.1785c-0.14172-0.15212-0.1413-0.35467 0.0012-0.56345 0.21188-0.31053 0.53363-0.9899 0.66119-1.3961 0.1069-0.34042 0.1272-0.51904 0.12386-1.0902-0.0034-0.58497-0.02474-0.74587-0.14849-1.1207-0.07947-0.24071-0.24578-0.60557-0.36956-0.81082-0.16056-0.26621-0.21586-0.40984-0.19295-0.50113 0.07528-0.29995 0.39289-0.43227 0.62413-0.26003 0.20259 0.15091 0.57486 0.87681 0.75038 1.4632 0.12562 0.41967 0.14777 0.59596 0.15101 1.2022 0.0042 0.78514-0.06786 1.1718-0.3495 1.8752-0.17537 0.43797-0.48563 0.99275-0.67029 1.1985-0.14644 0.1632-0.4305 0.16484-0.58094 3e-3zm26.494 33.318c-0.17658-0.0993-0.25004-0.28252-0.29689-0.74041-0.05432-0.53084-0.31896-1.5046-0.56233-2.0691-0.50573-1.173-1.0442-1.8852-2.3675-3.1315-0.28689-0.27018-0.18238-0.73862 0.19238-0.8623 0.2515-0.083 0.38331-0.0223 0.8657 0.39837 1.3958 1.2173 2.465 3.1008 2.8279 4.9815 0.15083 0.78157 0.14788 1.1271-0.01117 1.3102-0.15091 0.17369-0.4483 0.22563-0.64818 0.11322zm39.882-23.281c-0.19536-0.19661-0.20588-0.50273-0.02452-0.71357 0.11376-0.13226 0.17756-0.15079 0.66938-0.19441 2.4675-0.21887 4.5309-1.0516 6.4451-2.6009 0.61006-0.49377 1.6094-1.4847 2.0766-2.0593 0.6811-0.83751 1.3902-1.9642 1.6132-2.5631 0.09343-0.25094 0.15607-0.3356 0.29854-0.40354 0.34247-0.16331 0.73827 0.0774 0.73827 0.44892 0 0.49529-0.78383 1.8476-1.8218 3.1432-2.3891 2.9819-5.8541 4.8847-9.2161 5.061l-0.6284 0.033zm-5.1022-8.3316c-1.6002-0.41954-3.5065-1.8968-4.1265-3.1979-0.29152-0.61175-0.17566-0.98909 0.34284-1.1166 3.3157-0.81542 6.0029-1.9612 7.245-3.0891 0.45546-0.41359 0.64492-0.44857 0.92306-0.17043l0.2004 0.2004-0.0302 1.2682c-0.06584 2.765-0.51555 4.331-1.5425 5.3715-0.39977 0.40503-0.85544 0.67122-1.3403 0.78294-0.39199 0.0903-1.2344 0.0656-1.6718-0.0491zm1.7556-1.0855c0.77742-0.36778 1.3118-1.3129 1.5805-2.7954 0.09528-0.52565 0.19505-1.5244 0.19512-1.9532l4.4e-5 -0.28652-0.36884 0.2358c-1.2662 0.80949-3.4337 1.6958-5.5706 2.2779-0.79857 0.21752-0.79886 0.15817 0.0048 0.96055 1.1013 1.0996 2.2879 1.7086 3.3392 1.7137 0.42978 2e-3 0.53317-0.0172 0.81992-0.15283zm-6.0194-7.6092c-1.3971-0.23341-2.1066-1.241-2.0279-2.8798 0.03454-0.71948 0.12494-0.96649 0.39501-1.0793 0.17044-0.0712 0.216-0.0712 0.38644 0 0.27855 0.11639 0.36968 0.3594 0.29142 0.77708-0.03282 0.17517-0.04672 0.5126-0.03089 0.74984 0.07329 1.0982 0.70752 1.5364 2.001 1.3826 0.75152-0.0893 0.81887-0.081 1.0022 0.12415 0.13403 0.15001 0.15616 0.21296 0.13048 0.37117-0.05902 0.36371-0.23933 0.46249-1.0177 0.55757-0.52556 0.0642-0.72975 0.0636-1.13-3e-3zm9.1974-7.3629c-0.18523-0.17552-0.45561-0.39939-0.60083-0.4975-0.75868-0.51256-1.6217-0.51388-2.3862-4e-3 -0.32362 0.21598-0.55661 0.21745-0.76921 5e-3 -0.17041-0.17041-0.20988-0.40946-0.10117-0.6126 0.07872-0.1471 0.6475-0.50921 1.0169-0.64743 0.88917-0.33269 1.8022-0.22076 2.7314 0.33483 0.42457 0.25385 1.1458 0.93842 1.1806 1.1206 0.06523 0.34126-0.17615 0.62001-0.5369 0.62001-0.16641 0-0.25151-0.0508-0.5347-0.31912zm-11.353-1.1251c-0.86497-0.61857-1.1521-0.74152-1.7317-0.74152-0.46634 0-0.85178 0.11178-1.1944 0.34637-0.34194 0.23412-0.49052 0.26948-0.70494 0.16773-0.26896-0.12763-0.36488-0.4161-0.23393-0.70351 0.0704-0.1545 0.50781-0.4656 0.87469-0.62211 0.61878-0.26395 1.4427-0.32415 2.0396-0.14903 0.4802 0.14088 1.1113 0.48624 1.4656 0.80199 0.27945 0.24907 0.31033 0.29833 0.31033 0.495 0 0.16854-0.03647 0.25487-0.15973 0.37813-0.19874 0.19874-0.41314 0.20742-0.6655 0.0269zm14.478-6.2471c-0.0796-0.0524-0.3033-0.21161-0.49711-0.35373-0.77774-0.57031-1.7793-0.99017-2.7975-1.1727-1.1253-0.20178-2.7851-0.0729-3.9765 0.30872-0.75064 0.24045-0.96595 0.2152-1.1103-0.13017-0.16466-0.39409 0.03535-0.63162 0.71522-0.8494 2.6703-0.85538 5.4031-0.56989 7.4755 0.78095 0.66444 0.4331 0.96413 0.73514 0.9626 0.97015-0.0012 0.20136-0.1184 0.38342-0.3094 0.4811-0.16703 0.0854-0.29449 0.0758-0.46251-0.0349zm-20.027-1.1604c-0.31695-0.12791-0.3985-0.61774-0.14246-0.85569 0.20391-0.18951 1.2398-0.68547 1.8532-0.8873 0.92023-0.30278 1.3145-0.36136 2.4227-0.35996 0.9311 1e-3 1.054 0.0131 1.5573 0.15132 0.65769 0.18059 1.6099 0.63849 1.8017 0.86639 0.26229 0.31171 0.11634 0.7697-0.26826 0.84186-0.15237 0.0286-0.26907-0.0119-0.69434-0.24064-0.7182-0.38634-1.3336-0.55593-2.1554-0.59392-1.1635-0.0538-2.1697 0.1779-3.3853 0.77946-0.73195 0.36219-0.78873 0.37933-0.98907 0.29848z" fill="#fdaf68"/>
   <path d="m88.276 296.91c-2.344-0.0569-5.0434-0.14476-6.6118-0.21527-14.537-0.6535-26.332-2.4629-29.726-4.5601l-0.16661-0.10296-0.46731 0.32126c-1.6419 1.1288-4.3231 1.9974-7.6724 2.4855-0.51091 0.0745-1.2117 0.18763-1.5573 0.25148-0.81222 0.15006-2.1461 0.16587-2.872 0.034-5.8524-1.0629-9.1633-8.8416-9.7502-22.907-0.06785-1.6261-0.06901-6.6978-0.0019-8.2785 0.09886-2.3281 0.17305-3.5826 0.22297-3.7704 0.0595-0.22385 0.85133-1.3242 1.6494-2.292 0.63771-0.77339 2.0704-2.2421 2.8011-2.8715l0.49179-0.42361 0.01802 0.18277c0.02679 0.27164-0.08756 1.188-0.24448 1.9592-0.1773 0.87138-0.54468 2.1018-0.89917 3.0114-0.30911 0.7932-0.31856 0.9558-0.07257 1.2481 0.63642 0.75634 2.6418-0.0629 5.6243-2.2976 2.98-2.2328 5.3069-4.7697 5.7734-6.2946 0.15698-0.51311 0.12569-1.1395-0.07196-1.4404-0.12543-0.19097-0.2644-0.51827-0.2644-0.62269 0-0.0238 0.09938-0.0509 0.22084-0.0601l0.22084-0.0168 0.34886-1.0382c0.9404-2.7987 2.4474-5.822 4.2309-8.4883 4.6204-6.9072 11.225-11.931 19.189-14.597 1.3747-0.4601 3.4045-1.0274 3.9987-1.1174 0.11221-0.017 0.3827-0.0809 0.60108-0.142 0.55044-0.15396 1.5122-0.36991 1.8427-0.41376 0.15159-0.0201 0.27563-0.0548 0.27563-0.0772 0-0.12555-0.30338-0.94363-0.44041-1.1876-0.24707-0.43986-0.20708-0.75081 0.11816-0.919 0.33805-0.17481 0.58873-0.0101 0.87079 0.57219 0.68847 1.4213 0.73893 2.9999 0.13278 4.1534-0.39994 0.7611-1.0875 1.4206-1.9928 1.9113-0.49815 0.27006-0.73825 0.29021-0.94881 0.0797-0.10674-0.10674-0.14406-0.19966-0.14406-0.35867 0-0.26543 0.13635-0.40466 0.70562-0.72055l0.40509-0.22477 0.67412-1.0548c0.37077-0.58012 0.67412-1.0812 0.67412-1.1135 0-0.0707-0.22062-0.0398-1.0929 0.15325-1.9072 0.42204-3.7268 1.2862-4.3233 2.0531-0.86141 1.1076-0.49151 2.3804 1.1813 4.0647 0.77411 0.77945 1.2155 1.1158 1.9977 1.5223 3.4073 1.7707 8.8053 1.3368 15.701-1.262 2.3644-0.891 5.3088-2.2771 6.4168-3.0208 2.138-1.4349 3.5064-2.9305 3.5064-3.8322 0-0.66753-0.76495-1.1727-2.3932-1.5804-0.57623-0.14428-0.9439-0.30902-1.3226-0.59259-1.0664-0.79858-1.7456-2.4034-1.9661-4.6459-0.08192-0.83275-0.06774-3.0197 0.02716-4.1898 0.12742-1.571 0.4438-3.8629 0.75419-5.4634 0.12699-0.65481 0.20162-0.72457 0.85298-0.79731 0.78907-0.0881 1.5781-0.61819 2.1091-1.417 0.64432-0.9692 1.0198-2.2054 1.2093-3.9813 0.10901-1.0216 0.07145-3.9216-0.05812-4.4864-0.19626-0.85553-0.49887-1.4817-0.92129-1.9064-0.88318-0.88782-2.1061-0.85327-3.9776 0.11239-0.7058 0.36419-0.8233 0.37413-1.0625 0.0899-0.33123-0.39363-0.12572-0.66914 0.86098-1.1543 0.7976-0.39216 1.22-0.5432 1.8633-0.66628 2.1023-0.40223 3.7185 0.83534 4.2457 3.2509 0.0659 0.30194 0.1241 0.91091 0.16249 1.7002 0.15213 3.1278-0.29308 5.6967-1.2725 7.3426-0.64507 1.084-1.6563 1.881-2.6729 2.1064-0.23896 0.053-0.31668 0.0953-0.3383 0.18395-0.09054 0.37139-0.48179 2.8854-0.57493 3.6943-0.18926 1.6436-0.23974 2.6503-0.21033 4.1941 0.02229 1.1704 0.05181 1.5975 0.14817 2.1445 0.23268 1.3208 0.63103 2.2756 1.1775 2.8223 0.34726 0.34743 0.70776 0.53436 1.2951 0.67155 1.7685 0.41312 2.7789 1.1201 3.0484 2.1331 0.06061 0.22782 0.07027 0.23737 0.1416 0.13982 0.0421-0.0576 0.07655-0.13509 0.07655-0.17224 0-0.1081 0.27465-0.29406 0.4343-0.29406 0.17058 0 0.39212 0.12984 2.4072 1.4109 7.2877 4.633 12.983 8.9393 16.16 12.218 1.0041 1.0364 1.5622 1.7205 2.2324 2.7364 2.4654 3.7369 4.2123 8.9971 5.1534 15.519 0.3452 2.392 0.80181 7.0489 0.88135 8.9888 0.0911 2.2224 0.2378 3.7934 0.7908 8.4697 0.69178 5.8499 0.80984 7.2916 0.81216 9.9178 2e-3 2.0795-0.0645 2.9426-0.32385 4.2117-0.18932 0.92649-0.41053 1.5817-0.80114 2.3728-0.29098 0.58939-0.39383 0.7396-0.75011 1.0955-2.1368 2.1348-7.757 3.7647-16.178 4.6916-3.3241 0.36593-6.7608 0.60062-11.311 0.77241-1.4453 0.0546-9.8207 0.10946-11.284 0.074zm-44.87-49.226c-0.1502-0.1052-0.25897-0.37669-0.21736-0.5425 0.0183-0.0729 0.15221-0.27628 0.29756-0.45186 1.2212-1.4753 1.9622-3.496 2.2811-6.2207 0.12018-1.027 0.15979-2.9947 0.0825-4.0982-0.2261-3.2279-0.94846-6.1626-1.7314-7.034-0.23281-0.25911-0.26347-0.38963-0.18474-0.78648 0.03507-0.17678 0.07633-0.75175 0.09167-1.2777 0.05456-1.8704-0.29174-3.8892-0.96234-5.6099-0.26562-0.68158-0.54489-1.2341-0.54791-1.0839-0.0012 0.0601 0.07017 0.96991 0.15862 2.0218 0.08845 1.0519 0.20183 2.5396 0.25196 3.3059 0.18471 2.8239-0.01704 5.0971-0.55088 6.207-0.20137 0.41866-0.4167 0.63204-0.79667 0.78943l-0.17335 0.0718 0.03036 0.933c0.01669 0.51313 0.06093 1.1454 0.0983 1.4051 0.0819 0.56911 0.02816 0.75793-0.25382 0.89174-0.40567 0.1925-0.6867-0.0647-0.7838-0.71726-0.08589-0.57723-0.18362-2.0856-0.14507-2.2392 0.02723-0.10849 6e-3 -0.12729-0.17431-0.15444-1.0567-0.15911-1.3461-0.30115-1.6466-0.8079l-0.18448-0.31117-0.15959 0.22031c-0.30591 0.4223-0.80733 0.76985-1.3356 0.92573l-0.22483 0.0663-0.03047 0.40285c-0.09072 1.1996-0.95226 1.8751-2.3957 1.8784l-0.41684 1e-3 -0.06278 0.42349c-0.11778 0.79454-0.51371 1.4097-1.0892 1.6923-0.28708 0.14099-0.35644 0.15176-0.96503 0.14986-0.59466-2e-3 -0.69232-0.0168-1.0487-0.16082-0.83495-0.33735-1.4922-0.91919-1.4922-1.3209 0-0.26804 0.24587-0.51066 0.51751-0.51066 0.16552 0 0.24418 0.0461 0.47876 0.2807 0.57229 0.57228 1.5832 0.86892 2.0638 0.60557 0.39804-0.21813 0.57399-0.85875 0.48347-1.7603-0.16172-1.6108-1.1599-2.8241-3.1337-3.8089-0.27048-0.13495-0.53428-0.29836-0.5862-0.36312-0.13953-0.17403-0.12107-0.43576 0.04462-0.63268 0.21222-0.25221 0.4627-0.23095 1.1427 0.097 0.30054 0.14495 0.68529 0.35273 0.855 0.46176 1.3301 0.85446 2.3893 2.2 2.7076 3.4394l0.09853 0.38372 0.51586-0.0338c0.94621-0.062 1.2303-0.31682 1.2235-1.0974-0.0076-0.87792-0.34189-1.9042-0.99577-3.0576-0.67433-1.1894-1.7681-2.0347-3.1216-2.4124-0.63718-0.17779-0.85002-0.35678-0.7989-0.67183 0.04825-0.29732 0.2297-0.44097 0.6437-0.50957 0.52762-0.0874 1.0357 0.0137 1.6548 0.32924 0.41313 0.21061 0.59256 0.3487 1.0743 0.82678 1.0374 1.0294 1.8062 2.258 2.2909 3.6613 0.23719 0.68667 0.23065 0.68131 0.59945 0.49152 0.46089-0.23717 0.65688-0.60895 0.65688-1.246 0-1.2242-0.91542-3.1137-2.4896-5.1388-0.74401-0.95708-1.1383-1.3402-1.5267-1.4834-0.71314-0.2629-1.6277-0.19052-2.4259 0.192-0.5526 0.26482-0.83281 0.46924-1.419 1.0352-0.85517 0.82561-1.6055 1.9188-2.3352 3.4019-0.36191 0.73563-0.53206 0.9444-0.76973 0.9444-0.28352 0-0.56367-0.25897-0.56367-0.52107 0-0.14773 0.9778-2.0181 1.3683-2.6173 0.52205-0.80109 0.80933-1.1689 1.3629-1.7447 0.92548-0.9628 1.855-1.5484 2.8249-1.7796l0.28298-0.0675 0.19435-0.50093c0.6299-1.6236 1.7928-2.8123 3.0302-3.0975 0.45204-0.10419 1.2617-0.043 1.7351 0.13112 0.21401 0.0787 0.40843 0.14313 0.43203 0.14313 0.04134 0 0.0078-1.5892-0.06558-3.1097l-0.03538-0.73272-1.9174 0.0359c-3.5615 0.0667-6.2574 0.2972-9.103 0.77832-4.5025 0.76125-8.3119 2.1287-10.532 3.7805-0.23892 0.1778-0.57615 0.51394-0.85284 0.85009-0.999 1.2136-2.0504 2.1303-2.9595 2.5802-0.88314 0.43705-1.4698 0.49434-2.4668 0.24089-2.4471-0.6221-4.4287-3.9282-5.4517-9.0955-0.39302-1.9853-0.52-3.3334-0.56104-5.9561-0.032449-2.0739 0.030285-3.7117 0.16893-4.4101 0.043511-0.21919 0.10629-0.61983 0.1395-0.89031 0.35288-2.8735 1.1113-5.4084 2.1567-7.2087 1.6994-2.9266 3.6723-3.9932 5.7055-3.0847 0.69738 0.31164 1.419 0.95046 2.1217 1.8783 0.4966 0.65568 1.3489 1.3499 2.4858 2.0248 5.4085 3.2104 14.171 4.3367 24.99 3.2119 1.7836-0.18544 1.6531-0.18986 1.9603 0.0665 0.24145 0.20143 0.89002 0.89475 1.1668 1.2473l0.12179 0.15513 0.54676-0.0636c0.73727-0.0857 2.0983-0.0748 2.7341 0.0219 0.99485 0.15127 1.9924 0.5167 2.7153 0.99468 0.73649 0.48696 1.5295 1.4039 1.8716 2.1642 0.63872 1.4193 0.65732 3.5342 0.04865 5.5319-0.21209 0.69608-0.30722 0.8801-0.74731 1.4454-0.87586 1.1251-1.6498 1.6534-2.7681 1.8896-0.57478 0.12139-1.7719 0.1219-2.5606 1e-3 -0.32637-0.05-0.59886-0.0833-0.60555-0.0741-0.0067 9e-3 -0.0689 0.16432-0.13824 0.34465-0.28329 0.73659-0.82818 1.7814-0.96046 1.8417-0.09592 0.0437-0.43109 0.0392-1.2527-0.017-1.1115-0.0759-1.1217-0.0756-1.1222 0.0329-2.07e-4 0.0602 0.04042 0.53742 0.09041 1.0604l0.09089 0.95086 0.26439 0.34931c1.1172 1.476 2.048 3.8713 2.3973 6.1691 0.14467 0.95165 0.20438 2.7782 0.11546 3.5322-0.06201 0.52584-0.06165 0.52917 0.07968 0.73586 0.84288 1.2326 1.5523 4.1759 1.7753 7.3659 0.07849 1.1226 0.03722 3.3071-0.08156 4.3168-0.1613 1.3712-0.41558 2.5485-0.7773 3.599-0.4133 1.2003-1.1869 2.5808-1.8339 3.2724-0.24913 0.26631-0.32299 0.3142-0.48459 0.3142-0.10486 0-0.24192-0.0359-0.30458-0.0798zm-2.1103-15.565c0.22359-0.11932 0.31936-0.2663 0.4767-0.73158 0.19443-0.57497 0.2998-1.3062 0.36852-2.5573 0.05383-0.98014 0.04909-1.3707-0.03248-2.6775-0.19118-3.0627-0.83047-10.143-0.92092-10.199-0.03113-0.0194-0.58803-0.0503-1.2376-0.0687-0.64954-0.0185-1.3593-0.0467-1.5771-0.0627l-0.39616-0.0292 0.0025 0.39844c4e-3 0.63539 0.14422 3.9792 0.16757 3.9957 0.15906 0.11211 0.93111 0.77501 1.0387 0.89188 0.07879 0.0856 0.73976 1.2706 1.4688 2.6334l1.3256 2.4779-0.0302 0.29261c-0.0166 0.16093-0.09517 0.42291-0.17457 0.58217-0.5075 1.0179-1.7901 1.473-3.0482 1.0815l-0.31537-0.0981 0.03234 0.28151c0.17818 1.5508 0.34184 2.4188 0.57856 3.0683 0.20607 0.56544 0.2983 0.67897 0.62584 0.77036 0.38373 0.10707 1.4118 0.076 1.6475-0.0497zm-0.99673-5.0084c0.24708-0.10943 0.48637-0.34325 0.56538-0.55248 0.04726-0.12515-0.08586-0.40062-1.1882-2.459l-1.2414-2.318-0.44381-0.3825c-0.50166-0.43237-0.8928-0.68332-1.3924-0.89336-0.29336-0.12333-0.4223-0.14427-0.88953-0.14444-0.51441 0-0.56714 0.0106-0.89976 0.18403-0.37573 0.19589-0.90527 0.68714-1.1889 1.1029-0.1866 0.27354-0.61616 1.102-0.61616 1.1883 0 0.0298 0.18077 0.0945 0.40172 0.14363 0.68379 0.15213 1.0967 0.38822 1.5825 0.9047 0.23478 0.24963 0.58936 0.66538 0.78796 0.92388 0.52329 0.68112 0.50122 0.66838 0.41865 0.24165-0.03967-0.205-0.07303-0.54962-0.07413-0.76584-0.0024-0.47001 0.11476-0.65556 0.44735-0.70851 0.18053-0.0287 0.22518-0.0107 0.39616 0.16031 0.16356 0.16356 0.1927 0.22999 0.1927 0.43926 0 0.62726 0.24969 1.4722 0.58844 1.9912 0.58781 0.9006 1.7128 1.3166 2.5536 0.94424zm-29.429-3.9396c0.49677-0.17461 0.88204-0.43733 1.3974-0.95289 1.4232-1.4238 2.566-4.0659 3.2203-7.4453 0.179-0.9245 0.17926-0.96388 0.0061-0.92041-0.40155 0.10078-2.083-0.16851-3.5542-0.56922-1.5942-0.43421-2.3021-0.92561-2.8109-1.9511-0.24832-0.50049-0.34002-0.89993-0.37129-1.6173-0.078505-1.8009 0.61995-3.5125 1.7682-4.3331 0.44162-0.3156 0.82638-0.48674 1.4781-0.65744 0.45888-0.12019 0.68798-0.14432 1.5752-0.16588 0.73972-0.018 1.211-2e-3 1.6393 0.056 0.33059 0.0447 0.60629 0.0761 0.61266 0.0699 0.0064-6e-3 -0.03671-0.35448-0.09574-0.77387-0.74734-5.3095-2.6978-9.2069-4.9625-9.9159-2.4246-0.75904-4.8706 2.4566-6.0422 7.9435-1.4516 6.7982-0.4666 15.151 2.2691 19.242 1.1684 1.7474 2.5465 2.4561 3.8705 1.9908zm4.2946-3.4876c1.2792-0.97252 3.5537-2.026 5.955-2.7581 5.6157-1.7123 13.087-2.2982 21.631-1.6966 0.65712 0.0463 1.2252 0.0724 1.2625 0.0581 0.09056-0.0347 0.6779-1.3795 0.95247-2.1808 0.26092-0.76139 0.50724-1.7496 0.64344-2.5814 0.12391-0.75675 0.13995-2.8896 0.02651-3.5245-0.38252-2.141-1.203-3.769-2.7247-5.4064l-0.37779-0.4065-1.5268 0.14881c-9.4847 0.92444-16.803 0.28918-22.537-1.9564-0.76872-0.30103-2.4059-1.1214-3.0529-1.5298-0.31165-0.19671-0.57371-0.35766-0.58236-0.35766-0.0086 0 0.07003 0.20286 0.17483 0.45081 0.82468 1.951 1.4516 4.7908 1.722 7.8003 0.09447 1.0514 0.09446 4.6316-1.4e-5 5.6829-0.28522 3.1738-0.93617 6.0438-1.833 8.0817-0.17673 0.40158-0.21873 0.54018-0.14789 0.48811 0.05441-0.04 0.24096-0.1807 0.41455-0.31267zm33.061-6.4577c1.1468-0.15951 1.8424-0.60408 2.6734-1.7086 0.34539-0.45912 0.48018-0.75362 0.65781-1.4373 0.2923-1.125 0.38221-2.5933 0.21687-3.5415-0.16276-0.93332-0.51617-1.6197-1.1925-2.3162-0.73715-0.75904-1.6569-1.2143-2.9593-1.4646-0.52257-0.10047-2.1574-0.13606-2.556-0.0556l-0.20637 0.0416 0.14176 0.22949c0.07797 0.12622 0.28703 0.52054 0.46458 0.87627 1.2485 2.5015 1.4223 5.5016 0.50631 8.7423-0.07496 0.26519-0.12382 0.49464-0.10858 0.50987 0.04361 0.0436 1.1731 0.17031 1.5768 0.17687 0.20069 3e-3 0.55408-0.0204 0.78533-0.0526zm0.29784-1.0344c-0.16658-0.16658-0.13999-0.41532 0.07241-0.67741 0.53789-0.6637 0.92376-1.3886 1.1404-2.1425 0.10455-0.36374 0.12341-0.55569 0.12022-1.2237-0.0033-0.6991-0.02129-0.85019-0.15259-1.2841-0.19927-0.65855-0.46406-1.1962-0.8262-1.6776-0.16481-0.21908-0.29965-0.45105-0.29965-0.51548 0-0.20598 0.18138-0.3697 0.40956-0.3697 0.17503 0 0.23562 0.0356 0.41362 0.24316 0.4724 0.55079 0.93829 1.513 1.1547 2.3848 0.16954 0.68295 0.16915 1.8111-8.27e-4 2.4962-0.13839 0.55762-0.4157 1.2277-0.70388 1.7008-0.22822 0.37466-0.62897 0.91183-0.79717 1.0685-0.1473 0.13723-0.3918 0.13585-0.53064-3e-3zm-32.834 0.84031 0.19821-0.0328 0.02828-0.77261c0.01556-0.42493 0.05968-1.3996 0.09804-2.166 0.05581-1.1148 0.05639-1.6993 0.0029-2.9234-0.03678-0.84151-0.08516-1.5484-0.10751-1.5708-0.09026-0.0905-1.2363-0.20319-2.0762-0.20413-2.058-2e-3 -3.1046 0.50505-3.7511 1.8184-0.34783 0.70662-0.47362 1.227-0.50546 2.0909-0.030686 0.8328 0.024104 1.1632 0.2822 1.7018 0.21977 0.45859 0.59802 0.85331 1.0471 1.0926 0.54088 0.28829 2.4854 0.79415 3.6032 0.93738 0.47355 0.0607 0.92103 0.0716 1.1803 0.0287zm-4.1577-1.1785c-0.14172-0.15212-0.1413-0.35467 0.0012-0.56345 0.21188-0.31053 0.53363-0.9899 0.66119-1.3961 0.1069-0.34042 0.1272-0.51904 0.12386-1.0902-0.0034-0.58497-0.02474-0.74587-0.14849-1.1207-0.07947-0.24071-0.24578-0.60557-0.36956-0.81082-0.16056-0.26621-0.21586-0.40984-0.19295-0.50113 0.07528-0.29995 0.39289-0.43227 0.62413-0.26003 0.20259 0.15091 0.57486 0.87681 0.75038 1.4632 0.12562 0.41967 0.14777 0.59596 0.15101 1.2022 0.0042 0.78514-0.06786 1.1718-0.3495 1.8752-0.17537 0.43797-0.48563 0.99275-0.67029 1.1985-0.14644 0.1632-0.4305 0.16484-0.58094 3e-3zm26.494 33.318c-0.17658-0.0993-0.25004-0.28252-0.29689-0.74041-0.05432-0.53084-0.31896-1.5046-0.56233-2.0691-0.50573-1.173-1.0442-1.8852-2.3675-3.1315-0.28689-0.27018-0.18238-0.73862 0.19238-0.8623 0.2515-0.083 0.38331-0.0223 0.8657 0.39837 1.3958 1.2173 2.465 3.1008 2.8279 4.9815 0.15083 0.78157 0.14788 1.1271-0.01117 1.3102-0.15091 0.17369-0.4483 0.22563-0.64818 0.11322zm39.882-23.281c-0.19536-0.19661-0.20588-0.50273-0.02452-0.71357 0.11376-0.13226 0.17756-0.15079 0.66938-0.19441 2.4675-0.21887 4.5309-1.0516 6.4451-2.6009 0.61006-0.49377 1.6094-1.4847 2.0766-2.0593 0.6811-0.83751 1.3902-1.9642 1.6132-2.5631 0.09343-0.25094 0.15607-0.3356 0.29854-0.40354 0.34247-0.16331 0.73827 0.0774 0.73827 0.44892 0 0.49529-0.78383 1.8476-1.8218 3.1432-2.3891 2.9819-5.8541 4.8847-9.2161 5.061l-0.6284 0.033zm-5.1022-8.3316c-1.6002-0.41954-3.5065-1.8968-4.1265-3.1979-0.29152-0.61175-0.17566-0.98909 0.34284-1.1166 3.3157-0.81542 6.0029-1.9612 7.245-3.0891 0.45546-0.41359 0.64492-0.44857 0.92306-0.17043l0.2004 0.2004-0.0302 1.2682c-0.06584 2.765-0.51555 4.331-1.5425 5.3715-0.39977 0.40503-0.85544 0.67122-1.3403 0.78294-0.39199 0.0903-1.2344 0.0656-1.6718-0.0491zm1.7556-1.0855c0.77742-0.36778 1.3118-1.3129 1.5805-2.7954 0.09528-0.52565 0.19505-1.5244 0.19512-1.9532l4.4e-5 -0.28652-0.36884 0.2358c-1.2662 0.80949-3.4337 1.6958-5.5706 2.2779-0.79857 0.21752-0.79886 0.15817 0.0048 0.96055 1.1013 1.0996 2.2879 1.7086 3.3392 1.7137 0.42978 2e-3 0.53317-0.0172 0.81992-0.15283zm-6.0194-7.6092c-1.3971-0.23341-2.1066-1.241-2.0279-2.8798 0.03454-0.71948 0.12494-0.96649 0.39501-1.0793 0.17044-0.0712 0.216-0.0712 0.38644 0 0.27855 0.11639 0.36968 0.3594 0.29142 0.77708-0.03282 0.17517-0.04672 0.5126-0.03089 0.74984 0.07329 1.0982 0.70752 1.5364 2.001 1.3826 0.75152-0.0893 0.81887-0.081 1.0022 0.12415 0.13403 0.15001 0.15616 0.21296 0.13048 0.37117-0.05902 0.36371-0.23933 0.46249-1.0177 0.55757-0.52556 0.0642-0.72975 0.0636-1.13-3e-3zm9.1974-7.3629c-0.18523-0.17552-0.45561-0.39939-0.60083-0.4975-0.75868-0.51256-1.6217-0.51388-2.3862-4e-3 -0.32362 0.21598-0.55661 0.21745-0.76921 5e-3 -0.17041-0.17041-0.20988-0.40946-0.10117-0.6126 0.07872-0.1471 0.6475-0.50921 1.0169-0.64743 0.88917-0.33269 1.8022-0.22076 2.7314 0.33483 0.42457 0.25385 1.1458 0.93842 1.1806 1.1206 0.06523 0.34126-0.17615 0.62001-0.5369 0.62001-0.16641 0-0.25151-0.0508-0.5347-0.31912zm-11.353-1.1251c-0.86497-0.61857-1.1521-0.74152-1.7317-0.74152-0.46634 0-0.85178 0.11178-1.1944 0.34637-0.34194 0.23412-0.49052 0.26948-0.70494 0.16773-0.26896-0.12763-0.36488-0.4161-0.23393-0.70351 0.0704-0.1545 0.50781-0.4656 0.87469-0.62211 0.61878-0.26395 1.4427-0.32415 2.0396-0.14903 0.4802 0.14088 1.1113 0.48624 1.4656 0.80199 0.27945 0.24907 0.31033 0.29833 0.31033 0.495 0 0.16854-0.03647 0.25487-0.15973 0.37813-0.19874 0.19874-0.41314 0.20742-0.6655 0.0269zm14.478-6.2471c-0.0796-0.0524-0.3033-0.21161-0.49711-0.35373-0.77774-0.57031-1.7793-0.99017-2.7975-1.1727-1.1253-0.20178-2.7851-0.0729-3.9765 0.30872-0.75064 0.24045-0.96595 0.2152-1.1103-0.13017-0.16466-0.39409 0.03535-0.63162 0.71522-0.8494 2.6703-0.85538 5.4031-0.56989 7.4755 0.78095 0.66444 0.4331 0.96413 0.73514 0.9626 0.97015-0.0012 0.20136-0.1184 0.38342-0.3094 0.4811-0.16703 0.0854-0.29449 0.0758-0.46251-0.0349zm-20.027-1.1604c-0.31695-0.12791-0.3985-0.61774-0.14246-0.85569 0.20391-0.18951 1.2398-0.68547 1.8532-0.8873 0.92023-0.30278 1.3145-0.36136 2.4227-0.35996 0.9311 1e-3 1.054 0.0131 1.5573 0.15132 0.65769 0.18059 1.6099 0.63849 1.8017 0.86639 0.26229 0.31171 0.11634 0.7697-0.26826 0.84186-0.15237 0.0286-0.26907-0.0119-0.69434-0.24064-0.7182-0.38634-1.3336-0.55593-2.1554-0.59392-1.1635-0.0538-2.1697 0.1779-3.3853 0.77946-0.73195 0.36219-0.78873 0.37933-0.98907 0.29848z" fill="#fc7b76"/>
   <path d="m51.224 288.24c-0.09445-0.0418-0.19537-0.14328-0.23011-0.23134-0.03403-0.0863-0.13743-0.9314-0.22978-1.8781-0.32235-3.3044-0.88036-8.1468-1.3412-11.639-1.2506-9.4772-2.5971-16.743-4.0169-21.677-0.14872-0.51678-0.27024-0.95939-0.27002-0.98358 2.06e-4 -0.0242 0.14663-0.22755 0.32537-0.45193 0.17874-0.22438 0.33297-0.47027 0.34273-0.54643 0.02195-0.17124 0.28826 0.6474 0.75406 2.318 1.4536 5.2132 2.8591 13.111 4.1235 23.171 0.65362 5.2005 1.3131 11.42 1.233 11.63-0.10765 0.28143-0.41574 0.41004-0.69066 0.28831zm1.3774-6.3306c-0.34872-0.31601-0.73154-2.0381-0.9323-4.1939-0.30155-3.2381-0.323-8.2248-0.05641-13.114 0.46633-8.5532 1.5567-15.318 2.7993-17.368 0.31517-0.51995 0.47368-0.66407 0.73037-0.66407 0.45556 0 0.64286 0.48115 0.34153 0.87734-1.6236 2.1347-3.0254 13.197-3.0255 23.876-5.6e-5 4.9553 0.27021 8.1356 0.82498 9.7074 0.19356 0.54838 0.19502 0.62243 0.0165 0.83459-0.18016 0.21411-0.48995 0.23414-0.69848 0.0452zm51.992-31.92c-0.14366-0.0796-0.27428-0.28109-0.2773-0.4277-3e-3 -0.16706 0.53972-1.3636 0.90369-1.9908 1.7676-3.046 4.7345-5.0114 8.6023-5.6987 0.94218-0.1674 2.0949-0.23821 2.3234-0.14274 0.3407 0.14235 0.40859 0.53078 0.13975 0.79961-0.14291 0.14292-0.19616 0.15973-0.50578 0.15973-0.19034 0-0.65804 0.0365-1.0394 0.0811-2.7334 0.31974-5.1516 1.4019-6.8938 3.085-1.0416 1.0063-1.8054 2.136-2.4144 3.5712-0.25617 0.60362-0.48655 0.75839-0.83855 0.56329zm-61.211-2.3709c-0.13188-0.11784-0.17026-0.19722-0.17026-0.3522 0-0.1653 0.06507-0.28148 0.37431-0.66833 1.1389-1.4248 1.8127-3.2498 2.1896-5.931 0.13949-0.99225 0.13782-4.3838-0.0027-5.519-0.35721-2.8856-0.98391-5.1038-1.6503-5.8414-0.21131-0.2339-0.22851-0.3608-0.13404-0.989 0.07345-0.48843 0.07215-2.2049-0.0022-2.8688-0.19239-1.7186-0.71145-3.5703-1.3347-4.7611l-0.19645-0.37538 0.02876 0.27322c0.11503 1.0928 0.41362 5.1224 0.48589 6.5572 0.03951 0.78455-0.0652 2.7502-0.18338 3.4425-0.231 1.3532-0.52301 1.9481-1.1011 2.2431-0.21425 0.10934-0.25891 0.16047-0.2914 0.33365-0.04602 0.24528 0.0024 1.1195 0.11061 1.9959 0.05204 0.42161 0.06138 0.68407 0.02751 0.77315-0.11781 0.30987-0.5388 0.40881-0.79518 0.18687-0.11914-0.10313-0.15512-0.2066-0.22323-0.64206-0.04466-0.28551-0.09649-0.94328-0.11518-1.4617l-0.03398-0.9426h-0.18587c-0.23619 0-0.92862-0.1549-1.1132-0.24901-0.18346-0.0936-0.52265-0.47103-0.63501-0.70665l-0.08862-0.18584-0.1479 0.22922c-0.26486 0.41053-0.65415 0.69742-1.2324 0.90828l-0.33201 0.12106-0.06076 0.45414c-0.07273 0.54358-0.23345 0.90892-0.53054 1.206-0.393 0.393-0.84236 0.54777-1.7636 0.60743l-0.56009 0.0363-6.41e-4 0.22393c-0.0022 0.77623-0.51911 1.6064-1.183 1.9001-0.8331 0.36852-2.2143 0.0258-3.0065-0.74599-0.37147-0.36191-0.44892-0.54334-0.34206-0.80131 0.08035-0.194 0.37512-0.34549 0.56088-0.28826 0.06541 0.0202 0.24782 0.15767 0.40535 0.3056 0.41815 0.39267 0.91081 0.60679 1.4597 0.63438 0.39136 0.0197 0.46063 8e-3 0.63088-0.10608 0.10877-0.0729 0.25013-0.24599 0.32777-0.40133 0.12182-0.24374 0.13652-0.34078 0.13661-0.90154 1.1e-4 -0.76476-0.11049-1.2437-0.42965-1.8604-0.47929-0.92614-1.3826-1.7273-2.6849-2.3814-0.27048-0.13584-0.53343-0.28462-0.58432-0.33062-0.14089-0.12736-0.17288-0.36785-0.0743-0.55849 0.1929-0.37304 0.42552-0.36536 1.2597 0.0415 1.0934 0.53336 1.9146 1.1975 2.603 2.1053 0.45927 0.60563 0.74109 1.1814 0.92249 1.8846l0.06174 0.23934 0.53452-0.0257c0.62723-0.0302 0.95598-0.15821 1.1253-0.43813 0.16311-0.26974 0.14121-1.0967-0.04806-1.8143-0.15634-0.5928-0.64289-1.6541-1.0391-2.2666-0.62722-0.96958-1.7718-1.7701-3.0179-2.1108-0.55544-0.15185-0.67741-0.25629-0.67741-0.58009 0-0.42804 0.35293-0.58248 1.1958-0.52328 1.0114 0.071 1.995 0.77793 3.021 2.1711 0.74683 1.0141 1.1247 1.7515 1.4771 2.8824 0.08247 0.26469 0.151 0.39599 0.20651 0.39565 0.04569-6.2e-4 0.21214-0.0745 0.36989-0.165 0.71158-0.40808 0.83658-1.2064 0.39518-2.5239-0.46325-1.3827-1.8998-3.6263-3.1121-4.8603-0.36871-0.37533-0.45016-0.43054-0.78594-0.53277-0.51432-0.1566-1.2538-0.15599-1.7644 1e-3 -0.7787 0.24012-1.3681 0.62178-2.0959 1.3572-0.82508 0.83377-1.476 1.7976-2.2252 3.2949-0.32032 0.64018-0.43729 0.82361-0.56842 0.89142-0.32628 0.16872-0.70356-0.0681-0.70356-0.44155 0-0.1096 0.14387-0.4671 0.37637-0.93524 1.4196-2.8584 3.1449-4.6448 4.976-5.1522 0.22319-0.0618 0.42273-0.13118 0.44343-0.15406 0.02069-0.0229 0.07882-0.16864 0.12917-0.32389 0.3394-1.0465 1.207-2.232 2.0366-2.7826 0.87181-0.57868 2.035-0.67108 3.0113-0.23923 0.13526 0.0598 0.25053 0.10235 0.25615 0.0945 0.0056-8e-3 -0.02121-0.80119-0.05964-1.7629-0.03843-0.96173-0.07142-1.8324-0.07331-1.9348l-0.0034-0.18623-1.9808 0.0343c-4.1008 0.071-7.2666 0.38669-10.559 1.0529-3.6833 0.74544-7.0917 2.0618-9.0067 3.4784-0.21712 0.16061-0.58382 0.5278-0.88122 0.88241-1.3854 1.6518-2.7127 2.6558-3.8437 2.9074-0.73415 0.16334-1.7573-0.0447-2.6239-0.53349-0.87296-0.49234-1.8662-1.6668-2.5715-3.0404-1.1483-2.2367-2.0285-5.6566-2.3019-8.9445-0.16286-1.9581-0.11665-6.0628 0.079336-7.0475 0.042036-0.21121 0.12935-0.76515 0.19403-1.231 0.45264-3.2599 1.2647-5.6608 2.5688-7.5954 0.42163-0.62542 0.5861-0.82787 1.076-1.3245 1.4035-1.4226 3.0666-1.7129 4.5826-0.79992 0.44506 0.26802 1.1715 0.96906 1.5929 1.5371 1.0903 1.47 3.7828 3.0526 6.8992 4.0552 2.1606 0.69514 4.7742 1.2158 7.4042 1.4749 1.7608 0.17348 2.3415 0.20213 4.7027 0.23201 3.1513 0.0399 5.2013-0.0548 8.6029-0.39727 0.76638-0.0772 1.4641-0.14242 1.5506-0.14504 0.13087-4e-3 0.25936 0.0996 0.76778 0.6185 0.33583 0.34278 0.67819 0.7065 0.7608 0.80824l0.15021 0.185 0.54569-0.062c1.2681-0.14419 2.7118-0.0502 3.7384 0.24324 1.0285 0.29404 1.8045 0.74963 2.5429 1.4929 0.74273 0.74763 1.1566 1.5191 1.3968 2.604 0.14348 0.64784 0.13183 2.2916-0.02225 3.1387-0.13252 0.72848-0.34548 1.4948-0.52393 1.8852-0.27523 0.60219-1.2087 1.6552-1.8438 2.08-0.42567 0.28471-0.95409 0.49504-1.5136 0.60247-0.52963 0.10169-1.7132 0.0979-2.472-8e-3 -0.33499-0.0467-0.61409-0.0775-0.62021-0.0683-0.0061 9e-3 -0.09159 0.2118-0.18993 0.45031-0.33663 0.81649-0.79287 1.6821-0.9164 1.7387-0.08074 0.037-0.47455 0.0288-1.2295-0.0255-0.61088-0.044-1.1213-0.0713-1.1342-0.0607-0.01295 0.0106 0.01987 0.48772 0.07293 1.0603l0.09649 1.0411 0.28225 0.37808c0.35924 0.48119 0.94599 1.5142 1.2373 2.1784 1.005 2.2914 1.4916 5.1888 1.2564 7.4812l-0.05629 0.54858 0.19661 0.30736c1.1833 1.8498 1.9822 6.7678 1.7177 10.574-0.23291 3.3517-1.064 5.8776-2.5325 7.6965-0.42574 0.52735-0.66902 0.6148-0.96777 0.34786zm-2.086-15.493c0.22359-0.11932 0.31936-0.2663 0.4767-0.73158 0.19443-0.57497 0.2998-1.3062 0.36852-2.5573 0.05383-0.98014 0.04909-1.3707-0.03248-2.6775-0.19118-3.0627-0.83047-10.143-0.92092-10.199-0.03113-0.0194-0.58803-0.0503-1.2376-0.0687-0.64954-0.0185-1.3593-0.0467-1.5771-0.0627l-0.39616-0.0292 0.0025 0.39844c0.0014 0.21915 0.03484 1.2037 0.07437 2.1878l0.07187 1.7894 0.15786 0.12305c0.08682 0.0677 0.34266 0.28533 0.56851 0.48367l0.41065 0.36062 1.358 2.5324 1.358 2.5325-0.03267 0.27583c-0.04545 0.38379-0.31555 0.9026-0.6123 1.1761-0.64912 0.59834-1.7741 0.79554-2.689 0.47136l-0.23387-0.0829 0.03281 0.28503c0.17944 1.5588 0.3421 2.4217 0.57903 3.0718 0.20607 0.56544 0.2983 0.67897 0.62584 0.77036 0.38373 0.10707 1.4118 0.076 1.6475-0.0497zm-1.1402-4.9312c0.31398-0.0932 0.69068-0.41846 0.74766-0.64547 0.02585-0.10302-0.2332-0.63057-1.1746-2.392-1.1555-2.1621-1.2239-2.2755-1.5805-2.6208-0.92301-0.8938-1.966-1.3491-2.7561-1.203-0.84212 0.15567-1.6584 0.92045-2.2184 2.0784-0.12158 0.25141-0.20799 0.47825-0.19201 0.5041 0.01597 0.0258 0.10317 0.047 0.19377 0.047 0.26083 0 0.97785 0.26073 1.277 0.46435 0.33544 0.22832 1.1981 1.1936 1.7581 1.9673l0.11866 0.16393-0.07688-0.32786c-0.04229-0.18032-0.09304-0.51732-0.11278-0.74888-0.0541-0.63445 0.07379-0.8631 0.48276-0.8631 0.35159 0 0.5333 0.26914 0.53494 0.79233 0.0011 0.36088 0.2078 1.1112 0.41433 1.5042 0.54728 1.0415 1.6114 1.5684 2.5841 1.2796zm-29.286-4.0169c0.49677-0.17461 0.88204-0.43733 1.3974-0.95289 1.4232-1.4238 2.566-4.0659 3.2203-7.4453 0.179-0.9245 0.17926-0.96388 0.0061-0.92041-0.40155 0.10078-2.083-0.16851-3.5542-0.56922-1.5942-0.43421-2.3021-0.92561-2.8109-1.9511-0.24832-0.50049-0.34002-0.89993-0.37129-1.6173-0.078505-1.8009 0.61995-3.5125 1.7682-4.3331 0.44162-0.3156 0.82638-0.48674 1.4781-0.65744 0.45888-0.12019 0.68798-0.14432 1.5752-0.16588 0.73972-0.018 1.211-2e-3 1.6393 0.056 0.33059 0.0447 0.60629 0.0761 0.61266 0.0699 0.0064-6e-3 -0.03671-0.35448-0.09574-0.77387-0.74734-5.3095-2.6978-9.2069-4.9625-9.9159-2.4246-0.75904-4.8706 2.4566-6.0422 7.9435-1.4516 6.7982-0.4666 15.151 2.2691 19.242 1.1684 1.7474 2.5465 2.4561 3.8705 1.9908zm4.2946-3.4876c1.2792-0.97252 3.5537-2.026 5.955-2.7581 5.6157-1.7123 13.087-2.2982 21.631-1.6966 0.65712 0.0463 1.2252 0.0724 1.2625 0.0581 0.09056-0.0347 0.6779-1.3795 0.95247-2.1808 0.26092-0.76139 0.50724-1.7496 0.64344-2.5814 0.12391-0.75675 0.13995-2.8896 0.02651-3.5245-0.38252-2.141-1.203-3.769-2.7247-5.4064l-0.37779-0.4065-1.5268 0.14881c-9.4847 0.92444-16.803 0.28918-22.537-1.9564-0.76872-0.30103-2.4059-1.1214-3.0529-1.5298-0.31165-0.19671-0.57371-0.35766-0.58236-0.35766-0.0086 0 0.07003 0.20286 0.17483 0.45081 0.82468 1.951 1.4516 4.7908 1.722 7.8003 0.09447 1.0514 0.09446 4.6316-1.4e-5 5.6829-0.28522 3.1738-0.93617 6.0438-1.833 8.0817-0.17673 0.40158-0.21873 0.54018-0.14789 0.48811 0.05441-0.04 0.24096-0.1807 0.41455-0.31267zm33.061-6.4577c1.1468-0.15951 1.8424-0.60408 2.6734-1.7086 0.34539-0.45912 0.48018-0.75362 0.65781-1.4373 0.2923-1.125 0.38221-2.5933 0.21687-3.5415-0.16276-0.93332-0.51617-1.6197-1.1925-2.3162-0.73715-0.75904-1.6569-1.2143-2.9593-1.4646-0.52257-0.10047-2.1574-0.13606-2.556-0.0556l-0.20637 0.0416 0.14176 0.22949c0.07797 0.12622 0.28703 0.52054 0.46458 0.87627 1.2485 2.5015 1.4223 5.5016 0.50631 8.7423-0.07496 0.26519-0.12382 0.49464-0.10858 0.50987 0.04361 0.0436 1.1731 0.17031 1.5768 0.17687 0.20069 3e-3 0.55408-0.0204 0.78533-0.0526zm0.29784-1.0344c-0.16658-0.16658-0.13999-0.41532 0.07241-0.67741 0.53789-0.6637 0.92376-1.3886 1.1404-2.1425 0.10455-0.36374 0.12341-0.55569 0.12022-1.2237-0.0033-0.6991-0.02129-0.85019-0.15259-1.2841-0.19927-0.65855-0.46406-1.1962-0.8262-1.6776-0.16481-0.21908-0.29965-0.45105-0.29965-0.51548 0-0.20598 0.18138-0.3697 0.40956-0.3697 0.17503 0 0.23562 0.0356 0.41362 0.24316 0.4724 0.55079 0.93829 1.513 1.1547 2.3848 0.16954 0.68295 0.16915 1.8111-8.27e-4 2.4962-0.13839 0.55762-0.4157 1.2277-0.70388 1.7008-0.22822 0.37466-0.62897 0.91183-0.79717 1.0685-0.1473 0.13723-0.3918 0.13585-0.53064-3e-3zm-32.834 0.84031 0.19821-0.0328 0.02828-0.77261c0.01556-0.42493 0.05968-1.3996 0.09804-2.166 0.05581-1.1148 0.05639-1.6993 0.0029-2.9234-0.03678-0.84151-0.08516-1.5484-0.10751-1.5708-0.09026-0.0905-1.2363-0.20319-2.0762-0.20413-2.058-2e-3 -3.1046 0.50505-3.7511 1.8184-0.34783 0.70662-0.47362 1.227-0.50546 2.0909-0.030686 0.8328 0.024104 1.1632 0.2822 1.7018 0.21977 0.45859 0.59802 0.85331 1.0471 1.0926 0.54088 0.28829 2.4854 0.79415 3.6032 0.93738 0.47355 0.0607 0.92103 0.0716 1.1803 0.0287zm-4.1577-1.1785c-0.14172-0.15212-0.1413-0.35467 0.0012-0.56345 0.21188-0.31053 0.53363-0.9899 0.66119-1.3961 0.1069-0.34042 0.1272-0.51904 0.12386-1.0902-0.0034-0.58497-0.02474-0.74587-0.14849-1.1207-0.07947-0.24071-0.24578-0.60557-0.36956-0.81082-0.16056-0.26621-0.21586-0.40984-0.19295-0.50113 0.07528-0.29995 0.39289-0.43227 0.62413-0.26003 0.20259 0.15091 0.57486 0.87681 0.75038 1.4632 0.12562 0.41967 0.14777 0.59596 0.15101 1.2022 0.0042 0.78514-0.06786 1.1718-0.3495 1.8752-0.17537 0.43797-0.48563 0.99275-0.67029 1.1985-0.14644 0.1632-0.4305 0.16484-0.58094 3e-3zm26.562 33.311c-0.21463-0.0902-0.30798-0.29981-0.35684-0.80108-0.09755-1.0008-0.57799-2.2612-1.2501-3.2795-0.33936-0.51413-0.60338-0.82944-1.1421-1.3639-0.79232-0.78611-0.84119-0.89399-0.54099-1.1942 0.3425-0.3425 0.67813-0.16742 1.6305 0.85051 1.2474 1.3333 2.0847 3.1041 2.3143 4.8943 0.06201 0.48357 0.02164 0.75917-0.12444 0.84945-0.15241 0.0942-0.36881 0.11233-0.53027 0.0444zm38.753-9.8089c-1.9734-0.17603-3.8036-0.80682-5.1676-1.7811-0.57313-0.40936-1.6718-1.4988-2.1111-2.0935-0.39637-0.53649-0.78955-1.3044-0.90812-1.7737-0.04526-0.17912-0.08177-0.54797-0.08113-0.81965 0.0019-0.77714 0.24852-1.3608 0.84043-1.9881 0.9843-1.0433 2.804-1.861 5.1965-2.3353 0.42075-0.0834 0.77395-0.15825 0.78487-0.16634 0.04365-0.0323-0.23238-0.83047-0.40737-1.178-0.22336-0.44354-0.23117-0.58399-0.04478-0.80551 0.11466-0.13626 0.18299-0.16812 0.36058-0.16812 0.29531 0 0.46842 0.1921 0.72464 0.80419 0.35962 0.85909 0.4402 1.2541 0.43787 2.1466-0.0019 0.71361-0.01646 0.83357-0.14707 1.2074-0.36761 1.0523-1.111 1.8761-2.2404 2.4824-0.24855 0.13345-0.52141 0.24304-0.60637 0.24354-0.21628 1e-3 -0.47393-0.26525-0.47393-0.49026 0-0.26851 0.07738-0.35641 0.52746-0.59918 0.70378-0.37962 1.1724-0.77979 1.5022-1.2827 0.2214-0.33767 0.42934-0.91188 0.42934-1.1856 0-0.13686-0.01726-0.15534-0.12295-0.13164-0.06762 0.0152-0.4549 0.0992-0.86063 0.18674-1.0129 0.21855-2.0339 0.55735-2.8141 0.93382-2.4798 1.1966-2.7424 2.6912-0.84995 4.8374 1.5051 1.7069 3.2527 2.59 5.7385 2.9 0.73346 0.0915 2.5483 0.10304 3.4173 0.0218 3.8503-0.35989 8.6538-1.866 13.497-4.2318 1.6332-0.79781 2.9166-1.6752 4.0356-2.7587 0.63094-0.61098 0.97243-1.0449 1.1972-1.5212 0.13789-0.29224 0.15885-0.39308 0.13892-0.66854-0.01855-0.25643-0.05709-0.36593-0.18397-0.52262-0.32664-0.40339-1.1085-0.76067-2.3073-1.0544-1.71-0.41893-2.7225-1.942-3.101-4.6646-0.11931-0.85826-0.16188-2.8725-0.08515-4.0296 0.11491-1.7331 0.42504-4.1224 0.77644-5.9819 0.14428-0.76347 0.23782-0.90098 0.6165-0.9063 0.35597-5e-3 0.91639-0.17456 1.2584-0.38075 0.40796-0.24593 0.99956-0.86987 1.2752-1.3449 0.81581-1.406 1.2323-3.7406 1.1342-6.3584-0.0501-1.3374-0.11589-1.8587-0.30652-2.4288-0.36194-1.0824-0.90234-1.6873-1.7145-1.9189-0.72308-0.20624-1.8625 0.044-3.0152 0.66234-0.30508 0.16364-0.62548 0.29753-0.712 0.29753-0.21622 0-0.3799-0.12809-0.4552-0.35622-0.10315-0.31255 0.03708-0.48223 0.68364-0.82722 1.1181-0.59661 2.0055-0.85498 2.9232-0.85116 1.3201 6e-3 2.321 0.66559 2.9544 1.9483 0.54051 1.0946 0.68458 2.1493 0.63502 4.649-0.03156 1.5917-0.12625 2.4318-0.39728 3.5245-0.37635 1.5174-1.0893 2.7913-1.9627 3.507-0.38536 0.31577-1.0689 0.66571-1.5271 0.78178-0.17872 0.0453-0.34198 0.10084-0.3628 0.12349-0.08402 0.0914-0.53666 3.0967-0.67615 4.4893-0.47505 4.7427 0.08459 7.8242 1.5973 8.7949 0.16649 0.10683 0.51781 0.23588 0.97006 0.35632 1.2051 0.32093 1.8879 0.64545 2.3884 1.1352 1.0794 1.0562 0.76934 2.4952-0.89413 4.1502-1.0637 1.0583-2.5859 2.1368-4.0567 2.8741-6.5089 3.263-12.969 4.9464-17.448 4.5469zm1.0783-13.48c-0.17634-0.17634-0.20955-0.35107-0.10877-0.57225 0.09517-0.20888 0.25357-0.2676 0.86497-0.32062 0.75843-0.0658 1.177-0.13345 1.8087-0.29241 1.5983-0.40221 3.2006-1.2181 4.5723-2.3282 0.94687-0.76627 2.0919-2.0268 2.8165-3.1006 0.31152-0.46166 0.86231-1.4948 0.86231-1.6175 0-0.13594 0.2737-0.3046 0.4943-0.3046 0.16495 0 0.23579 0.035 0.35312 0.17443 0.19433 0.23095 0.16029 0.4516-0.17421 1.1294-0.98504 1.9961-3.1845 4.3429-5.2249 5.5747-1.7303 1.0446-3.6227 1.6549-5.5403 1.7866l-0.55672 0.0383zm-4.9632-8.2943c-1.0523-0.23054-2.3293-0.98136-3.2925-1.9358-1.0392-1.0298-1.4353-2.0269-0.9081-2.2858 0.0643-0.0316 0.54723-0.17128 1.0732-0.31046 2.9057-0.76898 5.2966-1.8342 6.391-2.8474 0.39072-0.36173 0.57729-0.42962 0.83164-0.3026 0.29589 0.14776 0.33526 0.35477 0.29627 1.5575-0.03846 1.1861-0.10489 1.869-0.25387 2.6098-0.3368 1.6748-1.0406 2.8104-2.0585 3.3216-0.53336 0.26782-1.3796 0.34647-2.0791 0.19322zm1.4719-1.0375c1.0903-0.38469 1.7607-1.9604 1.886-4.4331 0.02972-0.58644 0.02338-0.68319-0.0422-0.64339-0.04245 0.0258-0.23701 0.1496-0.43236 0.27518-0.4983 0.32035-1.6559 0.89084-2.4316 1.1984-0.79446 0.31494-2.3631 0.83684-3.1283 1.0408-0.30805 0.0821-0.56001 0.16425-0.55991 0.18251 6.19e-4 0.0559 0.61187 0.73389 0.90143 0.9993 0.84806 0.77734 1.9375 1.3461 2.8415 1.4834 0.23676 0.036 0.71674-0.0153 0.96554-0.10306zm-6.1783-7.7572c-1.2911-0.36203-1.9347-1.578-1.6987-3.2097 0.06023-0.41649 0.12725-0.55308 0.3129-0.63767 0.21789-0.0993 0.42597-0.0688 0.5796 0.0848l0.14332 0.14333-0.0344 0.7174c-0.04143 0.86404 0.03789 1.2266 0.34207 1.5633 0.35392 0.39175 0.8775 0.48532 2.0248 0.36187 0.43625-0.0469 0.4489-0.0449 0.58742 0.0936 0.10567 0.10567 0.14157 0.19763 0.14157 0.36263 0 0.43158-0.27476 0.54845-1.3661 0.58108-0.54829 0.0164-0.81338 8.3e-4 -1.0325-0.0606zm9.6228-7.2039c-0.63415-0.5868-1.1171-0.86896-1.6572-0.96828-0.43662-0.0803-0.90902 0.0246-1.3612 0.30225-0.39418 0.24205-0.54812 0.27765-0.74975 0.17338-0.32093-0.16596-0.36215-0.57482-0.08395-0.83264 0.21486-0.19913 0.95124-0.55006 1.3111-0.62482 1.0356-0.21514 2.1603 0.18979 3.1171 1.1223 0.30012 0.29249 0.34152 0.35791 0.34152 0.53961 0 0.15567-0.03947 0.24624-0.15973 0.36649-0.23742 0.23742-0.43924 0.21658-0.75789-0.0783zm-11.323-1.1134c-0.04508-0.0172-0.21721-0.13571-0.3825-0.26332-0.95654-0.73847-1.8492-0.80523-2.7651-0.20681-0.3346 0.2186-0.55704 0.23347-0.76872 0.0514-0.12186-0.10482-0.15207-0.17684-0.15207-0.36251 0-0.20158 0.02824-0.25656 0.21733-0.42306 0.28136-0.24775 0.89074-0.53091 1.3257-0.61603 0.98999-0.19374 2.1341 0.15522 2.9256 0.89229 0.26793 0.24951 0.3275 0.45813 0.19924 0.69779-0.10121 0.18911-0.40334 0.30516-0.59946 0.23026zm14.18-6.4424c-0.31251-0.26636-1.0642-0.73624-1.4834-0.92729-1.5302-0.69734-3.4786-0.8043-5.3684-0.2947-0.22867 0.0617-0.50847 0.14826-0.62178 0.19244-0.30732 0.11984-0.46539 0.10038-0.64516-0.0794-0.20638-0.20638-0.2193-0.49604-0.03055-0.68478 0.14518-0.14518 0.91833-0.40883 1.5921-0.54291 1.6221-0.32283 3.353-0.26379 4.6447 0.15844 1.052 0.34387 2.5972 1.2744 2.757 1.6602 0.07748 0.18704 0.03716 0.36415-0.12262 0.53873-0.16076 0.17563-0.50305 0.16581-0.72188-0.0207zm-20.057-1.2031c-0.16537-0.17843-0.17569-0.4434-0.02475-0.63529 0.20001-0.25427 1.3826-0.80038 2.3224-1.0725 1.1218-0.32479 2.4537-0.35955 3.4959-0.0912 0.53769 0.13843 1.5 0.56509 1.7888 0.79308 0.30876 0.24376 0.22792 0.75316-0.13872 0.87416-0.20751 0.0685-0.25304 0.0547-0.74721-0.22583-0.50022-0.284-1.2474-0.51868-1.8685-0.58693-1.1783-0.12945-2.6968 0.20999-3.9074 0.87342-0.48104 0.26362-0.7246 0.28244-0.92046 0.0711z" fill="#030202"/>
  </g>
 </g>
</svg>
