<?xml version="1.0" encoding="UTF-8"?>
<!-- Created with Inkscape (http://www.inkscape.org/) -->
<svg width="500" height="500" version="1.1" viewBox="0 0 132.29 132.29" xmlns="http://www.w3.org/2000/svg" xmlns:cc="http://creativecommons.org/ns#" xmlns:dc="http://purl.org/dc/elements/1.1/" xmlns:rdf="http://www.w3.org/1999/02/22-rdf-syntax-ns#">
 <metadata>
  <rdf:RDF>
   <cc:Work rdf:about="">
    <dc:format>image/svg+xml</dc:format>
    <dc:type rdf:resource="http://purl.org/dc/dcmitype/StillImage"/>
    <dc:title/>
   </cc:Work>
  </rdf:RDF>
 </metadata>
 <g transform="translate(0 -164.71)">
  <g transform="matrix(.215 0 0 .215 -61.427 172.87)" stroke-width=".26458">
   <path d="m732.6 577.13c-0.3638-0.11652-76.365-0.22371-168.89-0.23821l-168.23-0.0264-0.81043-0.81041-0.81042-0.81045 0.18626-63.02c0.1545-52.274 0.25091-63.539 0.56538-66.063 0.20852-1.6735 0.80063-6.9718 1.3158-11.774 3.7593-35.042 8.4226-60.814 14.984-82.815 6.201-20.791 13.561-35.997 22.778-47.062 13.216-15.866 39.329-36.124 72.904-56.56l5.3717-3.2695 1.6692-3.9969c4.3363-10.383 11.948-22.799 17.296-28.213 1.2486-1.264 1.9246-2.1371 1.7673-2.2825-0.14018-0.12949-1.8027-1.4683-3.6945-2.9751-6.3109-5.0266-12.875-11.834-17.064-17.699-3.6868-5.1602-7.2776-11.871-9.3596-17.493-2.0415-5.5122-3.8665-14.257-3.8695-18.541-8e-4 -0.97368-0.10238-1.8328-0.22602-1.9093-0.12365-0.0764-1.1003 0.2289-2.1703 0.67847-6.225 2.6155-12.747-0.013-17.343-6.9896-5.6517-8.5788-8.9036-23.212-8.0296-36.133 0.14445-2.1355 0.33199-4.9544 0.41675-6.2641 0.3522-5.4423 2.1756-10.132 5.091-13.094 3.3343-3.3876 7.2402-4.5344 12.49-3.6673 1.0128 0.16726 1.9061 0.23946 1.9852 0.16044 0.079-0.07902-0.15708-1.2577-0.52468-2.6192-1.065-3.9445-1.959-8.7576-2.6779-14.417-0.36729-2.8911-0.75407-5.2882-0.85951-5.3269-0.10545-0.03872-1.7395-0.88856-3.6313-1.8885l-3.4396-1.8181-0.74495-1.9479c-2.8419-7.4312-3.3333-15.913-1.3712-23.666 0.91847-3.6292 2.0879-6.2859 3.7238-8.4596 3.7815-5.0244 8.6248-7.5252 14.574-7.5252 1.3592 0 2.4712-0.04393 2.4712-0.09763 0-0.9385 0.98533-5.1746 1.5873-6.824 3.1659-8.6748 12.429-18.996 25.136-28.005 17.264-12.24 32.749-18.488 52.255-21.083 5.0098-0.66646 19.932-0.66877 25.135-0.0039 12.07 1.5424 22.501 4.2641 32.159 8.3913 23.371 9.9869 39.91 26.029 44.288 42.956l0.62508 2.4168 2.4744 0.15394c2.9685 0.18468 5.059 0.75556 7.3691 2.0124 4.9958 2.718 9.2691 7.9672 12.041 14.791 2.1375 5.2621 2.9464 9.8394 2.6844 15.19-0.23929 4.8849-1.1958 8.6576-3.2492 12.815-1.5291 3.0958-2.686 4.2634-5.586 5.6371-2.7883 1.3208-2.5448 0.8601-2.9723 5.6251-0.16317 1.819-0.46903 4.2598-0.67969 5.424-0.80132 4.4287-0.80528 4.0554 0.0452 4.2382 3.3108 0.71146 5.7919 2.1086 7.9743 4.4903 3.834 4.1841 5.6188 10.895 5.616 21.117-4e-3 13.502-2.4678 26.024-6.8827 34.978-4.7864 9.7067-11.286 12.95-18.212 9.0889-0.77869-0.4341-1.4527-0.7517-1.4978-0.70577-0.0451 0.0459-0.21606 1.6908-0.37986 3.6554-1.7416 20.886-11.07 39.103-26.752 52.242-1.2456 1.0436-2.5416 2.0913-2.88 2.3283l-0.61524 0.43094 1.3174 1.6699c5.628 7.1338 11.148 18.03 15.036 29.68l1.3127 3.9335 7.8425 5.2592c34.337 23.026 61.13 45.275 74.108 61.539 9.2658 11.612 17.14 29.267 23.342 52.335 5.8219 21.655 9.6374 44.227 13.373 79.11 1.0474 9.7814 1.1095 10.161 2.2896 13.986 2.7001 8.7505 4.7884 18.564 5.6943 26.76 0.5439 4.9204 0.46633 18.664-0.13068 23.151-2.0496 15.405-7.0614 28.386-15.618 40.453-6.3358 8.935-15.443 17.402-24.814 23.071-7.7104 4.6642-15.987 7.3801-19.279 6.326zm-137.1-264.71c3.1472-2.5257 11.289-10.572 15.402-15.222 3.4946-3.9504 7.945-9.3336 7.8198-9.4588-0.0389-0.0389-0.94846 0.29122-2.0212 0.73358-4.9214 2.0294-11.569 3.7917-17.58 4.6606-4.7197 0.68223-13.612 0.61897-18.521-0.13176-3.9181-0.59912-8.5149-1.6945-11.726-2.7941l-1.936-0.66302 1.4068 1.6262c6.54 7.56 16.088 17.556 20.694 21.667l2.6184 2.3364 0.77252-0.45511c0.42488-0.2503 1.8064-1.2848 3.0701-2.299z" fill="#b1c2fa"/>
   <path d="m732.6 577.13c-0.3638-0.11652-76.365-0.22371-168.89-0.23821l-168.23-0.0264-0.81043-0.81041-0.81042-0.81045 0.18626-63.02c0.1545-52.274 0.25091-63.539 0.56538-66.063 0.20852-1.6735 0.80063-6.9718 1.3158-11.774 3.7593-35.042 8.4226-60.814 14.984-82.815 6.201-20.791 13.561-35.997 22.778-47.062 13.216-15.866 39.329-36.124 72.904-56.56l5.3717-3.2695 1.6692-3.9969c4.3363-10.383 11.948-22.799 17.296-28.213 1.2486-1.264 1.9246-2.1371 1.7673-2.2825-0.14018-0.12949-1.8027-1.4683-3.6945-2.9751-6.3109-5.0266-12.875-11.834-17.064-17.699-3.6868-5.1602-7.2776-11.871-9.3596-17.493-2.0415-5.5122-3.8665-14.257-3.8695-18.541-8e-4 -0.97368-0.10238-1.8328-0.22602-1.9093-0.12365-0.0764-1.1003 0.2289-2.1703 0.67847-6.225 2.6155-12.747-0.013-17.343-6.9896-5.6517-8.5788-8.9036-23.212-8.0296-36.133 0.14445-2.1355 0.33199-4.9544 0.41675-6.2641 0.3522-5.4423 2.1756-10.132 5.091-13.094 3.3343-3.3876 7.2402-4.5344 12.49-3.6673 1.0128 0.16726 1.9107 0.23491 1.9953 0.15032 0.0846-0.08459-0.21053-1.5609-0.65582-3.2807-1.0573-4.0835-2.0069-9.3356-2.5507-14.107-0.24046-2.1101-0.48865-4.1001-0.55155-4.4223-0.0851-0.43597-0.84116-0.95922-2.956-2.0458-4.7161-2.4231-4.3347-2.0292-5.5578-5.7403-1.4718-4.4656-1.991-7.7064-1.9862-12.398 5e-3 -5.2212 0.81064-9.7357 2.4957-13.991 1.0217-2.5802 1.9888-3.9608 4.5833-6.5432 3.5278-3.5115 7.5857-5.1303 12.86-5.1303h2.0934l2e-3 -0.8599c3e-3 -1.4614 0.98421-5.0494 2.0681-7.5634 4.5874-10.641 16.815-22.318 34.506-32.953 24.933-14.988 53.714-18.96 83.412-11.51 14.434 3.6208 28.413 10.406 39.422 19.133 3.3043 2.6197 8.9024 8.07 11.161 10.866 4.7857 5.9255 7.9967 12.081 9.6995 18.593l0.57235 2.1889 2.3913 0.11282c7.5542 0.3564 14.005 5.3647 18.35 14.246 2.6465 5.4098 3.7783 10.126 3.7896 15.792 0.0108 5.5116-0.99312 10.121-3.1363 14.4-1.71 3.4135-2.5461 4.2772-5.5458 5.729l-2.6719 1.2932-0.17704 2.7014c-0.18248 2.7847-1.0605 9.0375-1.4692 10.462l-0.23114 0.80599 1.6802 0.41464c2.9054 0.71699 4.5764 1.6749 6.7316 3.859 4.2632 4.3205 6.0871 10.776 6.0841 21.533-4e-3 13.502-2.4678 26.024-6.8827 34.978-4.7864 9.7067-11.286 12.95-18.212 9.0889-0.77869-0.4341-1.4527-0.7517-1.4978-0.70577-0.0451 0.0459-0.21606 1.6908-0.37986 3.6554-1.7416 20.886-11.07 39.103-26.752 52.242-1.2456 1.0436-2.5416 2.0913-2.88 2.3283l-0.61524 0.43094 1.3174 1.6699c5.628 7.1338 11.148 18.03 15.036 29.68l1.3127 3.9335 7.8425 5.2592c34.337 23.026 61.13 45.275 74.108 61.539 9.2658 11.612 17.14 29.267 23.342 52.335 5.8219 21.655 9.6374 44.227 13.373 79.11 1.0474 9.7814 1.1095 10.161 2.2896 13.986 2.7001 8.7505 4.7884 18.564 5.6943 26.76 0.5439 4.9204 0.46633 18.664-0.13068 23.151-2.0496 15.405-7.0614 28.386-15.618 40.453-6.3358 8.935-15.443 17.402-24.814 23.071-7.7104 4.6642-15.987 7.3801-19.279 6.326zm-185.8-200.54c0.73692-5.4109 3.3022-9.5016 6.7573-10.775 2.0783-0.76626 4.9756-0.1498 7.0618 1.5026 0.59151 0.46849 2.1882 2.1779 3.5482 3.7987 3.329 3.9674 7.3088 7.5771 8.3539 7.5771 2.6265 0 5.7951-2.3707 7.3371-5.4895l0.99978-2.0222 0.0801-10.701c0.0503-6.7101-0.0222-11.178-0.19444-11.981-0.6977-3.2533-3.1166-6.2501-5.9731-7.4001l-1.5856-0.63833h-55.695c-52.345 0-55.764 0.0277-56.848 0.46127-1.7509 0.70059-3.5664 2.1554-4.6461 3.7232-1.7981 2.6108-1.837 2.8894-1.9448 13.928-0.10444 10.695 0.0308 12.421 1.1556 14.754 1.2542 2.6012 4.0673 4.8122 6.8144 5.3559 0.60318 0.11938 19.852 0.2301 42.776 0.24603l41.68 0.029zm-58.548-9.7373c0.21507-0.5457 1.5717-4.1473 3.0146-8.0036l2.6236-7.0115 5.2112-0.1478 2.879 7.7468c1.5834 4.2608 2.9376 7.9007 3.0092 8.0888 0.10133 0.26612-0.3532 0.3248-2.0493 0.26458l-2.1796-0.0774-0.51739-1.3891-0.51739-1.3891h-6.481l-0.91742 2.9104h-4.4666zm9.479-7.6729c-0.48963-1.4188-0.95936-2.7583-1.0439-2.9766-0.0901-0.2327-0.51132 0.58823-1.0183 1.9844-1.4526 4.0005-1.5557 3.5719 0.85952 3.5719h2.0928zm17.378 0.57007v-8.095l4.8286 0.097c5.1898 0.10427 5.7339 0.23122 7.0557 1.6461 1.2765 1.3664 0.95984 4.666-0.52408 5.4602-0.51876 0.27763-0.50557 0.31284 0.32722 0.87405 1.9652 1.3244 2.3216 4.5602 0.70517 6.4013-1.2288 1.3995-2.6766 1.7115-7.9427 1.7115h-4.4499zm8.021 4.8804c0.79822-0.42016 0.96606-0.73787 0.97075-1.8376 6e-3 -1.426-0.70274-1.9221-2.9258-2.0477l-1.8326-0.10356v4.293h1.6049c0.88269 0 1.865-0.13689 2.1828-0.30419zm-0.0835-7.3687c0.29105-0.29104 0.52917-0.76729 0.52917-1.0583 0-1.0353-0.92036-1.5875-2.6458-1.5875h-1.5875v3.175h1.5875c1.2347 0 1.7051-0.11758 2.1167-0.52916zm16.933 2.5135v-8.0698h4.2333v16.14h-4.2333zm53.767-45.922c6.3347-4.7582 17.025-15.805 24.521-25.339l0.89733-1.1413-1.0296 0.44021c-6.3845 2.7296-13.337 4.5902-20.344 5.4443-3.8357 0.46752-12.033 0.40052-16.007-0.13081-4.0832-0.54594-8.3855-1.4953-12.057-2.6605-2.1503-0.68239-2.7115-0.7861-2.4327-0.44955 6.3874 7.711 23.421 25.193 24.528 25.173 0.0815-3e-3 0.94745-0.60296 1.9244-1.3368zm-5.6759-232.73c-0.25296-0.06622-0.72921-0.06862-1.0583-0.0053-0.32912 0.06329-0.12215 0.11747 0.45994 0.12041 0.58208 0.0029 0.85136-0.04885 0.59839-0.11507zm-14.288-0.26458c-0.25296-0.06622-0.72921-0.06862-1.0583-0.0053-0.32912 0.06329-0.12215 0.11747 0.45994 0.12041 0.58208 0.0029 0.85136-0.04885 0.59839-0.11507zm28.046 0c-0.25297-0.06622-0.72922-0.06862-1.0583-0.0053-0.32912 0.06329-0.12215 0.11747 0.45993 0.12041 0.58208 0.0029 0.85136-0.04885 0.5984-0.11507zm-34.526-0.25634c-0.17913-0.07247-0.53632-0.07689-0.79375-0.0098-0.25743 0.06708-0.11087 0.12638 0.3257 0.13177 0.43656 0.0054 0.64718-0.04949 0.46805-0.12197zm41.138-0.0088c-0.25466-0.06655-0.67138-0.06655-0.92604 0-0.25467 0.06655-0.0463 0.121 0.46302 0.121s0.71768-0.05445 0.46302-0.121zm-45.905-0.25743c-0.1819-0.0734-0.47956-0.0734-0.66146 0s-0.0331 0.13345 0.33073 0.13345c0.3638 0 0.51263-0.06006 0.33073-0.13345zm50.8 0c-0.1819-0.0734-0.47956-0.0734-0.66146 0s-0.0331 0.13345 0.33073 0.13345c0.3638 0 0.51263-0.06006 0.33073-0.13345zm-54.642-0.24921c-0.0879-0.08792-0.31613-0.09732-0.50712-0.02087-0.21107 0.08446-0.14837 0.14716 0.15985 0.15985 0.27892 0.01148 0.43519-0.05105 0.34727-0.13896zm59.267 0c-0.0879-0.08792-0.31613-0.09732-0.50712-0.02087-0.21107 0.08446-0.14838 0.14716 0.15985 0.15985 0.27891 0.01148 0.43518-0.05105 0.34727-0.13896zm-62.442-0.26458c-0.0879-0.08792-0.31613-0.09732-0.50712-0.02088-0.21107 0.08446-0.14837 0.14716 0.15985 0.15985 0.27892 0.01148 0.43519-0.05105 0.34727-0.13896zm66.146 0c-0.0879-0.08792-0.31612-0.09732-0.50712-0.02088-0.21106 0.08446-0.14837 0.14716 0.15986 0.15985 0.27891 0.01148 0.43518-0.05105 0.34726-0.13896zm3.4396-0.26458c-0.0879-0.08792-0.31613-0.09732-0.50712-0.02088-0.21107 0.08446-0.14838 0.14716 0.15985 0.15985 0.27891 0.01148 0.43518-0.05105 0.34727-0.13896zm-75.406-0.26458c-0.0879-0.08792-0.31612-0.09732-0.50711-0.02088-0.21107 0.08446-0.14838 0.14716 0.15985 0.15985 0.27891 0.01148 0.43518-0.05105 0.34726-0.13896zm81.492-0.26458c-0.0879-0.08792-0.31612-0.09732-0.50712-0.02088-0.21106 0.08446-0.14837 0.14716 0.15986 0.15985 0.27891 0.01148 0.43518-0.05105 0.34726-0.13896z" fill="#fda6a6"/>
   <path d="m564.06 576.86c-94.821-0.0748-168.61-0.23352-168.88-0.3633-1.2309-0.60008-1.1864 2.2884-0.99647-64.725l0.17885-63.103 0.98386-8.599c2.967-25.932 3.7273-31.707 5.8867-44.715 6.735-40.57 16.933-70.496 29.759-87.324 10.473-13.742 29.123-29.568 55.81-47.36 7.3821-4.9218 13.219-8.6387 19.711-12.553 2.6194-1.5792 4.9571-3.0358 5.195-3.2367 0.23786-0.20095 0.99956-1.7583 1.6927-3.4609 4.2241-10.376 11.675-22.663 17.517-28.887l2.1062-2.244 3.4132 2.2796c2.881 1.9242 6.5959 4.081 9.371 5.4406 1.147 0.56196 3.7584 1.6626 3.9447 1.6626 0.0987 0 0.39346-0.59531 0.65511-1.3229 0.26164-0.72761 0.58281-1.3229 0.71372-1.3229 0.30578 0 0.32444-0.0958-0.30265 1.5541-0.29722 0.78199-0.50551 1.444-0.46289 1.4713 0.74096 0.47279 5.2863 2.2953 8.2004 3.2881 6.7237 2.2906 14.457 4.0467 21.907 4.9743 5.1121 0.63656 16.549 0.63325 21.564-6e-3 7.3292-0.9347 12.974-2.2364 19.662-4.5338 3.4413-1.1822 9.5363-3.7618 10.085-4.2682 0.0624-0.0576-0.15642-0.46984-0.48632-0.91606-0.3299-0.44621-0.52706-0.88405-0.43814-0.97297 0.1387-0.13869 0.49439 0.24676 1.2477 1.3521 0.49761 0.73013 8.9078-4.0076 15.524-8.7453 0.38542-0.27599 0.61486-0.11078 1.6536 1.1906 5.6369 7.0622 11.638 18.995 15.468 30.756l0.99351 3.051 5.1726 3.4313c2.8449 1.8872 8.3768 5.6692 12.293 8.4042 35.215 24.594 58.4 45.089 68.602 60.644 10.768 16.419 19.104 40.771 25.392 74.184 2.7835 14.791 4.6149 28.042 7.4008 53.55 0.52086 4.7692 1.1275 9.1745 1.3481 9.7896 0.22059 0.61502 0.97391 3.0831 1.6741 5.4846 11.347 38.918 4.1451 73.502-20.392 97.923-10.647 10.596-25.014 18.68-32.752 18.427-1.1045-0.0361-77.791-0.12538-170.42-0.19843zm164.71-8.562c5.4696-1.1814 10.052-3.7371 13.902-7.7527 3.1813-3.3187 5.0834-6.4578 6.6721-11.011 0.82275-2.358 0.85125-2.5826 0.84704-6.6734-4e-3 -4.1168-0.0275-4.294-0.84754-6.4358-0.88302-2.3064-3.199-6.039-4.4806-7.2214-0.41296-0.38094-5.7612-4.3241-11.885-8.7626-35.877-26.003-64.999-48.043-71.796-54.336-0.87791-0.8128-2.0374-2.2109-2.5768-3.1069-3.1019-5.1533-10.079-15.221-14.331-20.679-12.658-16.247-24.708-27.628-36.222-34.208-2.9251-1.6717-8.0627-3.9453-9.9145-4.3875-0.84053-0.20074-10.129-6.3264-16.215-10.693-10.617-7.6182-18.561-14.53-22.435-19.52-1.36-1.7517-2.4211-2.6484-3.4353-2.903-1.6926-0.42481-3.8978 3.2314-4.1074 6.8102l-0.11943 2.0389 2.3484 3.215c8.755 11.985 18.902 21.921 37.803 37.012 2.7014 2.157 3.0296 2.5681 3.0368 3.8036 8e-3 1.3979-1.1362 2.5593-2.5216 2.5593-1.6012 0-6.8446 1.2665-11.192 2.7034-6.9763 2.3058-13.318 5.8528-16.019 8.9596-1.9122 2.1996-3.0963 5.4613-2.6766 7.3725l0.18186 0.82799 1.0577-0.95557c2.9233-2.641 8.7501-5.8092 15.585-8.4739 3.9751-1.5498 11.05-3.8194 11.906-3.8194 1.5583 0 2.8402 1.5987 2.5051 3.1243-0.266 1.2111-1.1294 1.7848-3.8476 2.5565-5.7476 1.6318-13.87 4.9108-17.847 7.2044-6.2912 3.6288-9.0875 6.9329-8.2953 9.802 0.34758 1.2588 1.5721 2.97 2.874 4.0162l1.012 0.81322 0.87541-1.6536c0.48147-0.90951 1.6219-2.3923 2.5344-3.295 3.5543-3.5167 10.493-5.8992 17.181-5.8992 2.4095 0 2.527 0.0277 3.2726 0.7734 0.98682 0.98682 1.0476 2.3179 0.15329 3.3576-0.58404 0.67897-0.82637 0.74017-4.1672 1.0522-1.9509 0.18222-4.3805 0.53485-5.3992 0.78361-2.437 0.59513-5.8087 2.1886-7.1988 3.4022-1.5933 1.3909-2.7251 3.8149-2.798 5.9924-0.0574 1.715-0.0572 1.7155 1.784 4.4878 4.0382 6.0802 12.415 12.997 19.404 16.022l1.666 0.72113 0.93688-0.89985c0.96512-0.92694 1.9488-2.5676 1.9488-3.2502 0-1.1394-3.5441-3.8356-7.5322-5.7304-1.956-0.9293-2.4134-1.2745-3.0816-2.3261-1.2318-1.9386-1.6314-3.6957-1.5126-6.6522 0.11809-2.9403 0.43434-3.64 1.9756-4.3714 2.2553-1.0702 5.2162-0.74975 8.7536 0.94745 2.8047 1.3457 4.8048 3.2613 5.9671 5.7153 0.7894 1.6667 0.85312 2.0034 0.84186 4.449-9e-3 1.8854-0.14075 2.9378-0.45949 3.6619-0.43707 0.9928-0.43195 1.0485 0.22387 2.4348 1.2569 2.6568 5.202 6.3487 9.578 8.9632 5.01 2.9933 13.008 5.3846 18.349 5.4861 1.7498 0.0333 2.3586-0.10988 5.7912-1.3615 4.2996-1.5677 8.0487-3.1604 9.7039-4.1222 1.435-0.83389 2.7104-0.83513 3.6077-3e-3 0.98674 0.91448 1.1665 1.9049 0.55348 3.0494-0.41274 0.77057-1.0098 1.1933-3.2824 2.324-1.5279 0.76012-4.0043 1.8445-5.5031 2.4098l-2.7252 1.0278 4.0266 5.2631c13.566 17.731 28.109 34.251 38.968 44.262 4.8495 4.4711 8.0242 7.2343 8.1776 7.1178 0.0577-0.0438 1.3429 0.88955 2.8559 2.0741 9.903 7.7528 17.294 11.21 26.431 12.365 1.745 0.22045 7.2755-0.0569 9.1322-0.45797zm-130.31-94.708c-4e-3 -0.96798-1.1916-3.2025-2.114-3.9786-1.2103-1.0184-3.1884-1.9786-4.5121-2.1903l-1.1162-0.17849 0.18965 1.2647c0.29549 1.9705 0.61476 2.4322 2.1 3.0366 0.74477 0.30308 2.1844 1.075 3.1992 1.7154 1.0148 0.64037 1.9375 1.1072 2.0505 1.0374 0.11301-0.0698 0.2043-0.38785 0.20288-0.70667zm-51.65-97.006c0.73692-5.4109 3.3022-9.5016 6.7573-10.775 2.0783-0.76626 4.9756-0.1498 7.0618 1.5026 0.59151 0.46849 2.1882 2.1779 3.5482 3.7987 3.329 3.9674 7.3088 7.5771 8.3539 7.5771 2.6265 0 5.7951-2.3707 7.3371-5.4895l0.99978-2.0222 0.0801-10.701c0.0503-6.7101-0.0222-11.178-0.19444-11.981-0.6977-3.2533-3.1166-6.2501-5.9731-7.4001l-1.5856-0.63833h-55.695c-52.345 0-55.764 0.0277-56.848 0.46127-1.7509 0.70059-3.5664 2.1554-4.6461 3.7232-1.7981 2.6108-1.837 2.8894-1.9448 13.928-0.10444 10.695 0.0308 12.421 1.1556 14.754 1.2542 2.6012 4.0673 4.8122 6.8144 5.3559 0.60318 0.11938 19.852 0.2301 42.776 0.24603l41.68 0.029zm-58.548-9.7373c0.21507-0.5457 1.5717-4.1473 3.0146-8.0036l2.6236-7.0115 5.2112-0.1478 2.879 7.7468c1.5834 4.2608 2.9376 7.9007 3.0092 8.0888 0.10133 0.26612-0.3532 0.3248-2.0493 0.26458l-2.1796-0.0774-0.51739-1.3891-0.51739-1.3891h-6.481l-0.91742 2.9104h-4.4666zm9.479-7.6729c-0.48963-1.4188-0.95936-2.7583-1.0439-2.9766-0.0901-0.2327-0.51132 0.58823-1.0183 1.9844-1.4526 4.0005-1.5557 3.5719 0.85952 3.5719h2.0928zm17.378 0.57007v-8.095l4.8286 0.097c5.1898 0.10427 5.7339 0.23122 7.0557 1.6461 1.2765 1.3664 0.95984 4.666-0.52408 5.4602-0.51876 0.27763-0.50557 0.31284 0.32722 0.87405 1.9652 1.3244 2.3216 4.5602 0.70517 6.4013-1.2288 1.3995-2.6766 1.7115-7.9427 1.7115h-4.4499zm8.021 4.8804c0.79822-0.42016 0.96606-0.73787 0.97075-1.8376 6e-3 -1.426-0.70274-1.9221-2.9258-2.0477l-1.8326-0.10356v4.293h1.6049c0.88269 0 1.865-0.13689 2.1828-0.30419zm-0.0835-7.3687c0.29105-0.29104 0.52917-0.76729 0.52917-1.0583 0-1.0353-0.92036-1.5875-2.6458-1.5875h-1.5875v3.175h1.5875c1.2347 0 1.7051-0.11758 2.1167-0.52916zm16.933 2.5135v-8.0698h4.2333v16.14h-4.2333zm53.767-45.922c6.3347-4.7582 17.025-15.805 24.521-25.339l0.89733-1.1413-1.0296 0.44021c-6.3845 2.7296-13.337 4.5902-20.344 5.4443-3.8357 0.46752-12.033 0.40052-16.007-0.13081-4.0832-0.54594-8.3855-1.4953-12.057-2.6605-2.1503-0.68239-2.7115-0.7861-2.4327-0.44955 6.3874 7.711 23.421 25.193 24.528 25.173 0.0815-3e-3 0.94745-0.60296 1.9244-1.3368zm-20.681-113.96c-0.35672-0.28885-0.63164-0.8869-0.7239-1.5747-0.13177-0.98244-0.0567-1.201 0.65778-1.9155 0.99324-0.99324 1.8649-1.0292 2.9436-0.12154 1.0052 0.84586 1.1192 2.2953 0.26568 3.3804-0.66463 0.84494-2.242 0.96108-3.1432 0.23141zm16.644-9.3345c-3.9291-0.54369-9.8642-2.8379-11.645-4.5014-1.0235-0.95613-1.0839-2.5119-0.1401-3.6092 0.94052-1.0934 2.4394-1.0096 4.5208 0.25276 3.9142 2.3739 9.5799 3.3837 13.891 2.4756 2.3222-0.48916 5.7475-2.106 7.6537-3.6128 1.6287-1.2874 2.518-1.6521 3.5016-1.4361 1.4646 0.32168 2.3015 2.4132 1.5371 3.8414-0.87904 1.6425-6.978 5.1173-10.614 6.047-2.4458 0.62544-6.3484 0.86868-8.7051 0.54256zm-64.783-12.05c-3.4018-0.9148-6.2251-3.2874-7.8684-6.6124-0.91586-1.8531-1.0164-2.2707-1.1104-4.6108-0.15596-3.8828 0.76705-6.5335 3.1907-9.1628 5.3069-5.7573 15.067-4.9556 19.295 1.5848 3.9702 6.1426 2.0764 13.986-4.2738 17.702-2.4713 1.446-6.264 1.8976-9.2327 1.0992zm121.16-0.53461c-1.9122-0.51385-3.5164-1.477-5.3224-3.1957-2.6993-2.5687-3.827-5.5285-3.6194-9.4987 0.10515-2.0102 0.27201-2.7436 0.95759-4.2087 2.2302-4.7659 6.314-7.3929 11.416-7.3433 5.492 0.0534 9.8692 3.273 11.66 8.5762 0.46762 1.3849 0.54774 2.132 0.46339 4.3203-0.0925 2.4003-0.19248 2.8328-1.0772 4.6601-1.1165 2.306-3.131 4.4942-5.1481 5.592-2.7069 1.4733-6.3407 1.9008-9.3295 1.0977zm-55.856-13.208c-4.3262-1.0504-9.734-4.8358-12.641-8.8482-1.3516-1.8658-1.0765-3.6816 0.66817-4.4105 1.3975-0.58389 2.4426-0.12681 3.8341 1.6769 3.534 4.5807 9.1037 7.3808 13.32 6.6963 2.7984-0.45434 5.2229-1.884 8.2021-4.8365 2.8289-2.8036 3.2258-3.1044 4.0968-3.1044 1.6258 0 2.8669 1.5854 2.5108 3.2071-0.24531 1.1169-5.2184 6.093-7.3333 7.3378-4.2105 2.4782-8.5939 3.2683-12.658 2.2815zm-98.714-27.048c-3.9352-3.7534-6.6956-9.6327-8.0436-17.132-0.67665-3.7643-0.69722-13.098-0.0316-14.346 0.25003-0.46862 0.68367-0.97464 0.96364-1.1245 0.65232-0.34911 2.0211-0.35002 2.6718-2e-3 1.0474 0.56058 1.1653 1.2336 1.0876 6.2116-0.16111 10.32 1.9807 17.437 6.7284 22.357 1.7116 1.774 2.0908 2.6455 1.6854 3.8737-0.37574 1.1385-1.1671 1.6825-2.4475 1.6825-0.87933 0-1.2379-0.20867-2.6141-1.5214zm189.51-0.48654c-1.242-1.045-1.1334-2.2054 0.40754-4.3566 3.6171-5.0495 6.067-14.325 6.8684-26.005 0.21315-3.1065 0.63881-3.8222 2.4149-4.0605 0.99385-0.13331 1.2007-0.0596 1.9577 0.69739l0.84646 0.84644-0.16899 3.4862c-0.50724 10.465-3.1882 21.035-6.7762 26.717-2.09 3.3094-3.8105 4.1387-5.5497 2.6752zm-116.77-18.596c-3.2568-2.9846-6.5839-4.4563-9.4804-4.1937-2.1314 0.19326-4.6707 1.4266-6.1796 3.0013-0.98576 1.0288-1.3815 1.265-2.1196 1.265-1.3113 0-1.9922-0.72337-1.9922-2.1166 0-1.017 0.14225-1.275 1.369-2.4826 1.6324-1.6069 4.9488-3.323 7.2299-3.7412 3.0799-0.56473 6.7283 0.13303 9.7574 1.8661 1.9606 1.1217 5.0102 3.7515 5.2974 4.5681 0.47803 1.3593-0.69729 2.8586-2.2408 2.8586-0.28744 0-1.026-0.46127-1.6412-1.0251zm49.103 0.49405c-0.71959-0.28993-1.1418-1.0513-1.1418-2.059 0-0.58977 0.32893-1.0824 1.3891-2.0805 4.5361-4.2705 9.7935-5.9677 14.604-4.7146 3.6796 0.95842 7.819 4.1069 7.819 5.9472 0 1.1491-0.38175 1.7474-1.3248 2.0761-1.0587 0.36906-1.4829 0.18856-2.9085-1.2377-0.65485-0.65509-1.9645-1.5586-2.9104-2.0077-1.5052-0.71475-2.0021-0.81666-3.9825-0.81666-2.0848 0-2.4219 0.0787-4.2875 1.0007-1.1136 0.55039-2.6553 1.5741-3.4259 2.2748-2.061 1.8743-2.6141 2.1078-3.8312 1.6174zm62.279-21.517c-0.27696-11.246-1.6345-19.201-3.8812-22.743-0.85932-1.3547-1.0118-1.3926-3.4484-0.85749-0.84667 0.18595-1.724 0.34621-3.0101 0.54986-0.56414 0.08933-1.2785 0.21634-1.5875 0.28224-0.30898 0.0659-0.96885 0.17707-1.4664 0.24704-0.49752 0.06997-1.2216 0.18305-1.6089 0.2513-0.38738 0.06825-1.1709 0.19449-1.7412 0.28053-0.5703 0.08605-1.275 0.19609-1.5661 0.24453-0.29104 0.04845-1.065 0.15934-1.7198 0.24642-0.65485 0.08709-1.5478 0.21076-1.9844 0.27484-1.3316 0.19546-2.8561 0.40883-3.9688 0.55548-0.58208 0.07672-1.475 0.19874-1.9844 0.27115-0.50933 0.07241-1.3428 0.1787-1.8521 0.23621-0.50932 0.05751-1.4618 0.17548-2.1167 0.26215-0.65485 0.08667-1.7859 0.21972-2.5135 0.29564-0.72761 0.07593-1.7396 0.18548-2.249 0.24345-8.8042 1.0021-23.041 2.1174-30.295 2.3733-0.87312 0.0308-4.6236 0.16402-8.3344 0.29603-16.781 0.59698-35.806-0.0013-51.065-1.6056-0.50932-0.05355-1.6404-0.17143-2.5135-0.26194-0.87312-0.09051-1.9447-0.21448-2.3812-0.27549-0.43656-0.06102-1.3891-0.17838-2.1167-0.26082-0.72761-0.08244-1.6801-0.20431-2.1167-0.27084-0.43656-0.06652-1.27-0.18317-1.8521-0.25922-0.58209-0.07605-1.356-0.18743-1.7198-0.24752-1.0256-0.16941-2.4224-0.38405-3.4396-0.52859-0.50932-0.07237-1.2237-0.19946-1.5875-0.28242-0.63461-0.14471-1.2659-0.25658-2.8447-0.50411-0.78783-0.12352-1.9284-0.33584-2.9761-0.55404-0.36381-0.07576-0.95912-0.19482-1.3229-0.26458s-0.95911-0.18882-1.3229-0.26458c-0.3638-0.07576-0.95911-0.19482-1.3229-0.26458-0.71987-0.13803-1.5182-0.31508-2.4474-0.54273-0.32742-0.08022-0.83344-0.1983-1.1245-0.26239-1.0313-0.22712-1.7264-0.38714-2.249-0.5178-0.29104-0.07276-0.76729-0.19182-1.0583-0.26458s-0.76729-0.19182-1.0583-0.26458c-0.29105-0.07276-0.79706-0.20237-1.1245-0.28803-1.719-0.44971-1.6713-0.4661-2.5276 0.86835-1.8023 2.8086-3.6999 7.8673-5.3403 14.236-1.0576 4.1064-2.4802 10.863-2.8004 13.301-0.10077 0.76725-0.27171 1.4497-0.37987 1.5165-0.35 0.21632-2.3271-1.4057-3.4603-2.8388-2.2914-2.8978-4.8134-7.516-6.1782-11.313-1.7444-4.8531-3.4498-12.816-4.2512-19.848-0.24046-2.1101-0.48865-4.1001-0.55155-4.4223-0.0851-0.43597-0.84116-0.95922-2.956-2.0458-4.7161-2.4231-4.3347-2.0292-5.5578-5.7403-1.4718-4.4656-1.991-7.7064-1.9862-12.398 5e-3 -5.2212 0.81064-9.7357 2.4957-13.991 1.0217-2.5802 1.9888-3.9608 4.5833-6.5432 3.5278-3.5115 7.5857-5.1303 12.86-5.1303h2.0934l2e-3 -0.8599c3e-3 -1.4614 0.98421-5.0494 2.0681-7.5634 4.5874-10.641 16.815-22.318 34.506-32.953 24.933-14.988 53.714-18.96 83.412-11.51 14.434 3.6208 28.413 10.406 39.422 19.133 3.3043 2.6197 8.9024 8.07 11.161 10.866 4.7857 5.9255 7.9967 12.081 9.6995 18.593l0.57235 2.1889 2.3913 0.11282c7.5542 0.3564 14.005 5.3647 18.35 14.246 2.6465 5.4098 3.7783 10.126 3.7896 15.792 0.0108 5.5116-0.99312 10.121-3.1363 14.4-1.7101 3.4137-2.546 4.2772-5.5466 5.7294l-2.6727 1.2936-0.1764 2.7162c-0.32869 5.0616-1.6588 12.397-2.9459 16.247-0.93562 2.7983-2.7288 6.5433-4.0999 8.5622-2.2639 3.3337-6.5794 7.2331-9.0405 8.1688l-0.67049 0.25492zm-109.41-5.6159c-1.9313-1.11-5.0358-2.2893-7.7865-2.9578-1.4164-0.34419-2.9636-0.46345-5.8898-0.45399-4.2425 0.01371-6.5191 0.43592-10.019 1.858-2.0406 0.82916-2.6182 0.80961-3.6631-0.12398-0.70365-0.62872-0.85805-0.96199-0.85805-1.8521 0-1.3944 0.72843-2.12 3.0307-3.019 8.5254-3.3289 18.187-2.798 26.681 1.4661 2.5544 1.2823 3.2165 1.9818 3.2165 3.3988 0 1.3032-0.86722 2.3319-2.1167 2.5108-0.73112 0.10472-1.2775-0.06935-2.5956-0.82697zm39.617-0.09694c-1.0109-1.0109-1.0721-2.5312-0.14231-3.5344 1.1138-1.2018 6.0243-3.4094 9.5065-4.2737 3.0751-0.76331 4.6889-0.94907 8.2984-0.95516 7.3483-0.01241 14.637 2.4395 14.637 4.9239 0 1.0497-0.69009 2.1245-1.6082 2.5048-0.92282 0.38225-1.3012 0.30863-4.6236-0.89952-6.5236-2.3722-14.091-1.8081-20.912 1.559-1.6142 0.79674-3.2605 1.4486-3.6584 1.4486-0.44686 0-1.0192-0.2957-1.4969-0.7734z" fill="#f59a9a"/>
   <path d="m564.06 576.86c-94.821-0.0748-168.61-0.23352-168.88-0.3633-1.2309-0.60008-1.1864 2.2884-0.99647-64.725l0.17885-63.103 0.98386-8.599c2.967-25.932 3.7273-31.707 5.8867-44.715 6.735-40.57 16.933-70.496 29.759-87.324 10.473-13.742 29.123-29.568 55.81-47.36 7.3821-4.9218 13.219-8.6387 19.711-12.553 2.6194-1.5792 4.9571-3.0358 5.195-3.2367 0.23786-0.20095 0.99956-1.7583 1.6927-3.4609 4.2203-10.367 11.675-22.663 17.506-28.875l2.0946-2.2316 2.4988 1.7302c4.1592 2.8798 9.1676 5.6734 12.865 7.1757l1.608 0.65341 0.48117-1.4156c0.26465-0.77858 0.52941-1.3674 0.58835-1.3084 0.0589 0.0589-0.0957 0.71791-0.34362 1.4644-0.24793 0.74646-0.40889 1.3965-0.35768 1.4445 0.0512 0.048 0.51631 0.26265 1.0336 0.47692l0.94047 0.38958-1.7602 5.3192c-4.5922 13.878-6.5062 26.744-4.9655 33.38 0.69715 3.0028 3.9396 8.7381 8.2269 14.552 3.6454 4.9435 4.8695 5.9744 10.087 8.4956 7.9985 3.8648 16.766 5.7919 26.35 5.7919 11.016 0 21.128-2.5566 31.353-7.9265 1.6007-0.84069 3.0374-1.4821 3.1926-1.4253 0.58833 0.21508 4.8087-7.8453 6.4708-12.358 3.1642-8.5917 3.8802-12.728 3.6154-20.888-0.26318-8.1118-2.026-16.648-4.9047-23.751l-0.56479-1.3935 1.1885-0.57742c0.65368-0.31759 1.1885-0.68416 1.1885-0.8146s-0.24554-0.61273-0.54563-1.0718c-0.4798-0.7339-0.44375-0.71669 0.29877 0.14266l0.84439 0.97725 2.8101-1.4148c3.3637-1.6935 7.8343-4.3837 10.77-6.4807l2.1391-1.528 1.1857 1.4856c5.6158 7.0361 11.624 18.988 15.448 30.73l0.99351 3.051 5.1726 3.4313c2.8449 1.8872 8.3768 5.6692 12.293 8.4042 35.215 24.594 58.4 45.089 68.602 60.644 10.768 16.419 19.104 40.771 25.392 74.184 2.7835 14.791 4.6149 28.042 7.4008 53.55 0.52086 4.7692 1.1275 9.1745 1.3481 9.7896 0.22059 0.61502 0.97391 3.0831 1.6741 5.4846 11.347 38.918 4.1451 73.502-20.392 97.923-10.647 10.596-25.014 18.68-32.752 18.427-1.1045-0.0361-77.791-0.12539-170.42-0.19844zm165.93-8.8206c2.8349-0.73165 5.836-2.0308 7.957-3.4445 10.514-7.008 15.225-19.949 10.807-29.692-0.90268-1.9908-2.7119-4.6151-4.0192-5.8298-0.4871-0.45262-5.9262-4.4779-12.087-8.9451-26.97-19.556-51.762-38.09-63.411-47.404-7.6516-6.1178-8.914-7.2761-10.365-9.5109-6.7594-10.408-10.752-16.107-15.58-22.234-8.5897-10.903-17.791-20.385-25.913-26.704-5.5483-4.3168-12.691-8.3659-17.962-10.182-1.9177-0.66085-3.3732-1.4938-7.8824-4.5107-15.66-10.478-25.714-18.596-31.337-25.305-3.3734-4.025-4.3645-4.5145-5.9434-2.9356-1.6157 1.6157-2.8435 5.5959-2.3717 7.6881 0.23984 1.0634 4.0277 6.2684 8.2276 11.306 3.2214 3.8637 11.72 12.447 16.259 16.421 3.7506 3.2839 9.7846 8.3257 14.468 12.089 3.5831 2.8791 4.1847 3.5254 4.1847 4.4955 0 1.5526-1.2648 2.7002-2.989 2.7118-2.217 0.0151-9.6737 2.0743-14.562 4.0215-8.9888 3.581-14.263 8.2201-14.883 13.09-0.0962 0.75623-0.0991 1.677-6e-3 2.0462l0.16848 0.67128 1.6497-1.3356c4.3982-3.5609 11.616-7.0406 21.014-10.13 5.9447-1.9545 6.398-2.0187 7.4562-1.0552 1.0678 0.97221 1.2775 2.0808 0.59927 3.1686-0.46539 0.74652-0.96593 0.97046-5.2358 2.3425-8.054 2.5879-14 5.1744-18.223 7.9271-5.7233 3.7306-7.4609 6.8321-5.6034 10.002 0.63437 1.0825 2.9233 3.3941 3.3335 3.3665 0.0887-6e-3 0.44559-0.61656 0.7932-1.3569 0.91538-1.9495 3.5827-4.6511 5.8894-5.965 3.7298-2.1246 9.2711-3.512 14.035-3.5142 2.0511 0 2.3808 0.0681 3.0427 0.63748 0.61642 0.53023 0.74236 0.84831 0.74236 1.875 0 1.7175-0.90771 2.5135-2.866 2.5135-0.75969 0-2.3515 0.12166-3.5374 0.27035-8.6137 1.0801-13.081 4.3203-13.745 9.9689-0.15133 1.2876-0.0856 1.5147 0.93699 3.2359 3.1424 5.2894 9.0077 10.909 15.442 14.796 2.6242 1.5851 5.9612 3.2144 6.5836 3.2144 0.52485 0 2.549-2.4442 2.7772-3.3536 0.40918-1.6303-1.7794-3.6475-6.4204-5.9177-3.3415-1.6345-4.3503-2.6727-5.1477-5.2981-0.47068-1.5496-0.55185-2.3317-0.44803-4.3166 0.0707-1.3512 0.28428-2.6763 0.4826-2.9939 0.5406-0.86561 2.2198-1.6907 3.7657-1.8502 1.8221-0.18807 5.2236 0.72276 7.2651 1.9454 5.0314 3.0132 7.1599 7.8013 5.6613 12.735-0.50962 1.6778-0.52585 1.929-0.17683 2.7365 0.89297 2.0662 3.5388 4.9372 6.7899 7.3676 5.181 3.8733 13.326 6.8311 20.772 7.5436 1.784 0.17071 2.0761 0.1148 5.3469-1.0231 4.1941-1.4591 7.3224-2.7408 10.109-4.142 2.4412-1.2274 3.1036-1.2895 4.1712-0.39113 0.98683 0.83034 1.2208 1.731 0.74536 2.8689-0.3081 0.73739-0.81423 1.1144-2.981 2.2206-1.4355 0.73281-3.9196 1.8439-5.5204 2.4691-1.6007 0.62524-2.9512 1.166-3.0011 1.2016-0.18788 0.13441 8.3892 11.227 13.685 17.699 9.0452 11.053 15.598 18.368 23.833 26.601 5.9118 5.9109 13.247 12.628 13.837 12.672 0.10988 8e-3 1.6577 1.1276 3.4396 2.4877 6.1242 4.6747 9.6296 6.8079 14.363 8.7407 5.5701 2.2744 9.9067 3.1105 15.335 2.9565 2.8238-0.0801 4.309-0.26114 6.2492-0.76187zm-131.53-94.169c-7e-3 -2.8823-2.8553-5.7034-6.581-6.5186l-1.1585-0.25347 0.17189 1.4626c0.0945 0.80439 0.28458 1.6731 0.4223 1.9304s1.1175 0.88024 2.1772 1.3842c1.0598 0.504 2.5221 1.2907 3.2497 1.7482 1.5842 0.99616 1.7202 1.0157 1.7183 0.24662zm-51.651-97.287c0.73692-5.4109 3.3022-9.5016 6.7573-10.775 2.0783-0.76626 4.9756-0.1498 7.0618 1.5026 0.59151 0.46849 2.1882 2.1779 3.5482 3.7987 3.329 3.9674 7.3088 7.5771 8.3539 7.5771 2.6265 0 5.7951-2.3707 7.3371-5.4895l0.99978-2.0222 0.0801-10.701c0.0503-6.7101-0.0222-11.178-0.19444-11.981-0.6977-3.2533-3.1166-6.2501-5.9731-7.4001l-1.5856-0.63833h-55.695c-52.345 0-55.764 0.0277-56.848 0.46127-1.7509 0.70059-3.5664 2.1554-4.6461 3.7232-1.7981 2.6108-1.837 2.8894-1.9448 13.928-0.10444 10.695 0.0308 12.421 1.1556 14.754 1.2542 2.6012 4.0673 4.8122 6.8144 5.3559 0.60318 0.11938 19.852 0.2301 42.776 0.24603l41.68 0.029zm-58.548-9.7373c0.21507-0.5457 1.5717-4.1473 3.0146-8.0036l2.6236-7.0115 5.2112-0.1478 2.879 7.7468c1.5834 4.2608 2.9376 7.9007 3.0092 8.0888 0.10133 0.26612-0.3532 0.3248-2.0493 0.26458l-2.1796-0.0774-0.51739-1.3891-0.51739-1.3891h-6.481l-0.91742 2.9104h-4.4666zm9.479-7.6729c-0.48963-1.4188-0.95936-2.7583-1.0439-2.9766-0.0901-0.2327-0.51132 0.58823-1.0183 1.9844-1.4526 4.0005-1.5557 3.5719 0.85952 3.5719h2.0928zm17.378 0.57007v-8.095l4.8286 0.097c5.1898 0.10427 5.7339 0.23122 7.0557 1.6461 1.2765 1.3664 0.95984 4.666-0.52408 5.4602-0.51876 0.27763-0.50557 0.31284 0.32722 0.87405 1.9652 1.3244 2.3216 4.5602 0.70517 6.4013-1.2288 1.3995-2.6766 1.7115-7.9427 1.7115h-4.4499zm8.021 4.8804c0.79822-0.42016 0.96606-0.73787 0.97075-1.8376 6e-3 -1.426-0.70274-1.9221-2.9258-2.0477l-1.8326-0.10356v4.293h1.6049c0.88269 0 1.865-0.13689 2.1828-0.30419zm-0.0835-7.3687c0.29105-0.29104 0.52917-0.76729 0.52917-1.0583 0-1.0353-0.92036-1.5875-2.6458-1.5875h-1.5875v3.175h1.5875c1.2347 0 1.7051-0.11758 2.1167-0.52916zm16.933 2.5135v-8.0698h4.2333v16.14h-4.2333zm54.037-46.116c5.9722-4.4744 17.104-15.94 23.625-24.334l1.4944-1.9235-1.4122 0.58171c-3.0244 1.2458-9.7591 3.3856-12.657 4.0215-5.6041 1.2297-9.4648 1.5658-16.372 1.4251-7.8058-0.15894-12.79-0.97343-19.611-3.2044-1.0914-0.35698-2.0188-0.61542-2.061-0.57428-0.12529 0.1224 6.79 7.8281 12.035 13.41 5.3613 5.7063 12.105 12.133 12.73 12.131 0.10029-2.6e-4 1.1031-0.69035 2.2285-1.5335zm-21.073-114.11c-1.0631-1.2634-0.79016-2.8131 0.62429-3.5445 0.99814-0.51616 1.9629-0.30336 2.6637 0.58753 1.8383 2.337-1.3767 5.2284-3.288 2.957zm17.222-9.0105c-2.9691-0.29835-5.7423-1.1198-8.8113-2.61-3.6978-1.7955-4.6192-2.9997-3.752-4.903 0.31256-0.68599 1.4362-1.4478 2.1354-1.4478 0.19862 0 1.6329 0.64618 3.1872 1.436 3.8882 1.9756 6.8677 2.6593 10.717 2.459 4.1633-0.21662 7.1233-1.3379 10.632-4.0275 1.8348-1.4064 2.3773-1.5742 3.5312-1.0921 1.0978 0.45867 1.4959 1.1062 1.4959 2.4328 0 1.1828-0.85501 2.0757-3.9051 4.078-4.4658 2.9317-9.8046 4.2199-15.23 3.6747zm-63.679-11.881c-3.403-0.44533-6.6362-2.4817-8.487-5.3453-4.6152-7.1406-0.96307-16.427 7.3074-18.581 6.7754-1.7648 13.801 2.9266 14.925 9.9669 0.45488 2.8474-0.18623 6.004-1.7095 8.417-2.4974 3.9562-7.2911 6.1636-12.036 5.5426zm121.21-0.5609c-6.8068-0.80068-11.681-7.6721-10.251-14.451 0.98498-4.6687 4.4142-8.2385 9.0819-9.4543 8.2792-2.1564 16.434 5.402 14.926 13.836-1.1907 6.663-6.9405 10.872-13.757 10.07zm-57.608-13.446c-4.3311-1.1355-8.3287-3.8883-12.036-8.2881-1.5702-1.8633-1.7069-2.8887-0.55698-4.1757 0.58858-0.65874 0.9461-0.82438 1.7793-0.82438 0.96817 0 1.1835 0.15452 3.0106 2.1608 6.2502 6.8629 12.238 8.2895 18.196 4.3351 0.8441-0.56028 2.6254-2.1201 3.9585-3.4662 2.7232-2.7498 3.3799-2.9936 4.814-1.7868 0.93075 0.78317 1.2109 1.6789 0.83456 2.6686-0.43394 1.1414-2.847 3.7641-5.151 5.5985-4.7996 3.8214-9.8158 5.0978-14.848 3.7784zm-98.659-27.06c-3.716-3.8129-6.215-8.8098-7.5495-15.096-0.78763-3.7101-1.1678-9.5385-0.8563-13.129 0.25306-2.9176 0.2916-3.05 1.0978-3.7703 0.45951-0.41058 1.1372-0.7465 1.5059-0.7465 0.88023 0 2.1167 0.65217 2.3643 1.247 0.10822 0.26005 0.1767 2.7945 0.15218 5.6322-0.0645 7.4705 0.87346 12.405 3.2582 17.141 1.0004 1.9864 2.8078 4.486 4.2404 5.8639 0.79334 0.76312 0.9479 1.0936 0.9479 2.027 0 0.92048-0.14214 1.2348-0.81405 1.8002-0.54862 0.46163-1.1272 0.68498-1.7746 0.68498-0.82992 0-1.1796-0.22482-2.5721-1.6536zm189.55-0.44267c-1.1349-1.1349-1.0499-2.2066 0.3179-4.0075 3.4479-4.5397 5.9926-13.602 6.8666-24.456 0.17579-2.1828 0.47562-4.2794 0.66627-4.6591 0.42254-0.84144 1.7045-1.4153 2.6382-1.181 0.37917 0.0952 0.99449 0.47814 1.3674 0.85106 0.67722 0.67723 0.67783 0.68207 0.50339 4.0241-0.46074 8.8279-2.6813 18.858-5.3486 24.158-1.2364 2.457-2.8038 4.7746-3.7124 5.4893-1.0377 0.81624-2.3503 0.72884-3.2988-0.21966zm-116.07-18.078c-0.4475-0.32742-1.4474-1.1193-2.222-1.7598-0.77457-0.64046-2.1822-1.5334-3.1281-1.9844-1.5355-0.73202-1.975-0.81899-4.101-0.8114-2.9002 0.0103-4.7277 0.7365-6.6228 2.6316-1.5176 1.5176-2.1429 1.7772-3.2048 1.3307-0.89708-0.37719-1.1526-0.83422-1.1526-2.0612 0-1.1936 2.4881-3.5437 5.063-4.7821 4.1388-1.9907 7.9145-1.9224 12.267 0.22202 1.3097 0.64522 3.1521 1.835 4.0942 2.644 2.5975 2.2305 2.9145 3.0927 1.6147 4.3925-0.9287 0.9287-1.5262 0.9695-2.6078 0.17809zm48.138-0.33608c-1.3198-1.1106-1.1673-2.0426 0.60906-3.7224 6.3056-5.9628 13.976-6.7262 19.935-1.984 2.3456 1.8666 2.9272 3.292 1.8843 4.6178-0.91195 1.1594-2.0806 0.97017-3.6498-0.59085-1.7532-1.744-3.8115-2.7187-6.0845-2.8814-3.0916-0.2212-5.712 0.82148-8.946 3.5597-2.0822 1.763-2.6595 1.9172-3.7482 1.0012zm62.664-19.271c0-10.078-1.3813-19.641-3.4203-23.68-0.97097-1.9235-1.3768-2.2644-2.469-2.0739-8.2467 1.4385-11.121 1.9035-16.6 2.6859-12.46 1.7792-26.45 3.1501-41.143 4.0314-9.7422 0.58438-38.648 0.66617-46.831 0.13252-20.321-1.3252-34.706-3.3407-49.655-6.9572l-4.5508-1.1009-0.52027 0.62973c-0.8491 1.0277-2.9759 5.7077-4.0136 8.8318-1.338 4.0281-2.811 9.9901-3.8242 15.478-1.1311 6.1264-0.9655 5.7894-2.3164 4.7149-2.4327-1.9351-5.5304-6.6979-7.7129-11.859-1.9813-4.685-3.8536-12.839-4.83-21.034-0.31206-2.6194-0.6041-4.9029-0.64897-5.0744-0.0449-0.17155-1.3685-0.97311-2.9414-1.7812-4.737-2.4338-4.3525-2.0373-5.576-5.7496-1.4718-4.4656-1.991-7.7064-1.9862-12.398 5e-3 -5.2212 0.81064-9.7357 2.4957-13.991 1.0217-2.5802 1.9888-3.9608 4.5833-6.5432 3.5278-3.5115 7.5857-5.1303 12.86-5.1303h2.0934l2e-3 -0.8599c3e-3 -1.4614 0.98421-5.0494 2.0681-7.5634 4.5874-10.641 16.815-22.318 34.506-32.953 24.933-14.988 53.714-18.96 83.412-11.51 14.434 3.6208 28.413 10.406 39.422 19.133 3.3043 2.6197 8.9024 8.07 11.161 10.866 4.7857 5.9255 7.9967 12.081 9.6995 18.593l0.57235 2.1889 2.3913 0.11282c7.5542 0.3564 14.005 5.3647 18.35 14.246 2.6465 5.4098 3.7783 10.126 3.7896 15.792 0.0108 5.5116-0.99312 10.121-3.1363 14.4-1.7084 3.4104-2.5472 4.2777-5.5353 5.724l-2.6614 1.2881-0.30557 3.5154c-1.1479 13.205-4.3654 21.944-10.252 27.845-2.1679 2.1733-5.2594 4.3773-6.1397 4.3773-0.25889 0-0.33676-1.0006-0.33676-4.3272zm-110.46-7.9822c-3.7766-1.8782-7.198-2.7751-11.311-2.9653-3.8853-0.17965-6.2491 0.17636-10.414 1.5684-2.9385 0.98219-3.2672 1.0408-3.9688 0.70787-0.42067-0.19966-0.97864-0.80034-1.2399-1.3348-0.43024-0.8801-0.43837-1.0597-0.0862-1.9026 0.46422-1.111 1.3983-1.6343 4.9269-2.7597 3.6365-1.1599 6.256-1.4712 10.942-1.3004 5.3768 0.19597 8.9119 1.1019 13.69 3.5081 2.4487 1.2332 3.149 1.9375 3.149 3.1673 0 0.5255-0.12259 1.1845-0.27243 1.4645-0.28683 0.53595-1.5781 1.3132-2.1618 1.3012-0.18913-0.0039-1.6536-0.65838-3.2543-1.4545zm41.172 0.82769c-1.4168-0.78525-1.7366-2.5727-0.68423-3.8234 0.80748-0.95964 4.7339-2.9118 7.7536-3.8549 6.8139-2.1282 14.221-1.9812 20.84 0.41362 2.721 0.98455 3.511 1.6067 3.7218 2.9305 0.13916 0.87414 0.0517 1.0903-0.77623 1.9182-0.51318 0.51319-1.1533 0.93303-1.4225 0.93298-0.26921-4.3e-5 -1.6565-0.41723-3.0828-0.92707-7.5771-2.7084-15.2-2.1671-22.519 1.5991-2.4646 1.2682-2.8556 1.351-3.8301 0.81086z" fill="#fdaf67"/>
   <path d="m463.19 576.58c-0.25467-0.14833-0.64162-0.61505-0.8599-1.0371-0.35062-0.67805-0.39687-11.896-0.39687-96.265v-95.498l-1.1544-0.17312c-1.5309-0.22958-4.4692-1.6653-6.1671-3.0135-1.6756-1.3305-3.5124-3.8588-4.4059-6.0649-1.1539-2.8491-1.2862-4.6472-1.192-16.209l0.0872-10.716 0.72201-1.9784c0.87117-2.3871 2.7409-5.2004 4.4051-6.6281 1.7208-1.4763 4.4797-2.8638 6.5788-3.3086 1.5183-0.32176 10.09-0.37957 56.845-0.38346 53.996-4e-3 55.097 6e-3 57.104 0.51877 2.8251 0.72255 4.4681 1.6683 6.6668 3.8377 2.1132 2.0849 3.5575 4.6094 4.2026 7.3458 0.48831 2.0711 0.57865 22.578 0.10952 24.859-0.15863 0.77115-0.77162 2.4141-1.3622 3.651-1.2276 2.5712-3.6041 5.1677-5.9634 6.5154l-1.3964 0.79769 0.55328 0.5007c0.30431 0.27541 2.3614 1.8358 4.5714 3.4675l4.0181 2.9668 0.18036-5.4704c0.72978-22.135 1.1814-31.75 1.9533-41.586 0.65907-8.3987 1.7586-18.201 2.3759-21.181 0.11738-0.56668-0.0482-0.81097-1.0255-1.5128-4.4261-3.1786-13.693-12.582-28.097-28.512-10.914-12.07-18.345-22.649-20.494-29.176-1.7638-5.357-1.2561-15.365 1.33-26.215 1.2603-5.2878 4.413-15.45 5.2262-16.846 0.13503-0.23177 0.78208-0.0563 2.3653 0.64125 1.1987 0.52816 2.1874 1.0517 2.1973 1.1635 0.01 0.11176-0.71339 2.423-1.6072 5.136-4.5917 13.937-6.5106 26.84-4.9706 33.422 0.70497 3.0129 3.9452 8.7428 8.2291 14.552 3.6454 4.9435 4.8695 5.9744 10.087 8.4956 7.9985 3.8648 16.766 5.7919 26.35 5.7919 11.016 0 21.128-2.5566 31.353-7.9265 1.6007-0.84069 3.0374-1.4821 3.1926-1.4253 0.58833 0.21508 4.8087-7.8453 6.4708-12.358 3.1642-8.5917 3.8802-12.728 3.6154-20.888-0.26335-8.117-2.0252-16.645-4.9092-23.762l-0.56933-1.405 2.2918-1.0588c1.7867-0.82545 2.3397-0.98229 2.5094-0.71164 0.52388 0.83566 2.4717 6.7634 3.4179 10.401 3.0815 11.848 3.2615 24.385 0.4794 33.398-5.081 16.462-15.601 31.723-35.079 50.885l-7.0162 6.9026-0.60128 3.884c-0.3307 2.1362-0.68831 4.6553-0.79469 5.5982l-0.19341 1.7143 1.1257-1.017c1.3502-1.2198 3.3374-2.1704 5.4055-2.5857 3.002-0.60291 6.7986 0.63103 9.1373 2.9697 4.6578 4.6578 4.1077 12.147-1.1891 16.188-2.9257 2.2321-7.3323 2.6736-10.745 1.0766-1.6644-0.77886-3.3817-2.1873-4.277-3.5077-0.24072-0.35501-0.4851-0.59314-0.54308-0.52916-0.29006 0.32009-1.3401 22.283-1.7574 36.761-0.32064 11.122-0.32575 12.435-0.0484 12.435 0.11967 0 0.34787-0.84171 0.50711-1.8705 0.80916-5.2276 4.8219-8.9221 9.9789-9.1875 4.5771-0.23553 8.2865 2.0264 10.304 6.283 0.75041 1.5836 0.82029 1.9596 0.81367 4.3782-6e-3 2.156-0.11551 2.8834-0.59204 3.9288-0.80752 1.7716-2.2541 3.6792-3.3626 4.4341-0.5111 0.34805-0.92964 0.69238-0.93009 0.76514-5.3e-4 0.0728 0.8024 0.54737 1.7841 1.0547 2.2663 1.1711 7.5632 4.7025 10.576 7.0507 7.1967 5.6096 15.848 14.256 23.394 23.38 6.2082 7.5067 15.403 20.382 19.099 26.743 0.78984 1.3594 5.0835 5.0204 14.598 12.447 11.342 8.853 40.544 30.538 62.646 46.521 7.7589 5.6107 9.7223 7.4221 11.698 10.792 5.2741 8.9976 4.5948 19.518-1.8893 29.257-6.1903 9.2986-15.923 14.465-27.257 14.469-3.8753 0-6.399-0.32435-10.272-1.3254-12.223-3.1594-24.063-11.406-40.883-28.478-11.676-11.85-22.079-24.003-33.597-39.248l-4.101-5.4281-3.175-0.0379c-9.1066-0.10874-21.122-4.8813-27.428-10.895l-1.9176-1.8286-1.7559 1.8125c-2.5904 2.674-4.1687 3.1483-6.897 2.073l-1.3731-0.54123 0.18149 9.3386c0.0998 5.1362 0.36081 17.605 0.57998 27.709 0.21917 10.104 0.32551 18.703 0.2363 19.109-0.21435 0.97588-1.5499 2.0757-2.5207 2.0757-0.47331 0-1.0964-0.29231-1.6196-0.7598-1.0212-0.91247-0.85535 2.534-1.4088-29.27-0.22538-12.951-0.47721-25.221-0.55961-27.267l-0.14982-3.7186-1.2318-0.76163c-4.7985-2.9668-11.226-8.6904-14.117-12.571-1.8384-2.4678-3.9162-6.2972-3.9162-7.2175 0-0.55026-0.31117-0.8954-1.5214-1.6876-2.3615-1.5458-5.156-4.4688-6.1577-6.4408-0.69973-1.3776-0.89811-2.128-0.99694-3.7715-0.0718-1.1932 0.01-2.5279 0.19531-3.19 0.28276-1.0099 0.24966-1.3306-0.29348-2.8431-0.86151-2.3992-0.86761-7.0893-0.012-9.2532 2.7761-7.0212 11.545-12.962 24.665-16.709 1.702-0.48612 2.9062-0.96686 2.9062-1.1602 0-0.18153-1.6369-1.6806-3.6375-3.3312-7.565-6.2416-11.758-10.021-17.54-15.813-6.0625-6.0718-9.3878-9.8524-13.574-15.432l-2.3321-3.1089h-81.45v94.952c0 52.224-0.0741 95.323-0.16461 95.775-0.24654 1.2327-1.3004 2.1551-2.4512 2.1454-0.52586-4e-3 -1.1645-0.12941-1.4191-0.27773zm266.8-8.5343c2.8349-0.73165 5.836-2.0308 7.957-3.4445 10.514-7.008 15.225-19.949 10.807-29.692-0.90268-1.9908-2.7119-4.6151-4.0192-5.8298-0.4871-0.45262-5.9262-4.4779-12.087-8.9451-26.97-19.556-51.762-38.09-63.411-47.404-7.6516-6.1178-8.914-7.2761-10.365-9.5109-6.7594-10.408-10.752-16.107-15.58-22.234-8.5897-10.903-17.791-20.385-25.913-26.704-5.5483-4.3168-12.691-8.3659-17.962-10.182-1.9177-0.66085-3.3732-1.4938-7.8824-4.5107-15.66-10.478-25.714-18.596-31.337-25.305-3.3734-4.025-4.3645-4.5145-5.9434-2.9356-1.6157 1.6157-2.8435 5.5959-2.3717 7.6881 0.23984 1.0634 4.0277 6.2684 8.2276 11.306 3.2214 3.8637 11.72 12.447 16.259 16.421 3.7506 3.2839 9.7846 8.3257 14.468 12.089 3.5831 2.8791 4.1847 3.5254 4.1847 4.4955 0 1.5526-1.2648 2.7002-2.989 2.7118-2.217 0.0151-9.6737 2.0743-14.562 4.0215-8.9888 3.581-14.263 8.2201-14.883 13.09-0.0962 0.75623-0.0991 1.677-6e-3 2.0462l0.16848 0.67128 1.6497-1.3356c4.3982-3.5609 11.616-7.0406 21.014-10.13 5.9447-1.9545 6.398-2.0187 7.4562-1.0552 1.0678 0.97221 1.2775 2.0808 0.59927 3.1686-0.46539 0.74652-0.96593 0.97046-5.2358 2.3425-8.054 2.5879-14 5.1744-18.223 7.9271-5.7233 3.7306-7.4609 6.8321-5.6034 10.002 0.63437 1.0825 2.9233 3.3941 3.3335 3.3665 0.0887-6e-3 0.44559-0.61656 0.7932-1.3569 0.91538-1.9495 3.5827-4.6511 5.8894-5.965 3.7298-2.1246 9.2711-3.512 14.035-3.5142 2.0511 0 2.3808 0.0681 3.0427 0.63748 0.61642 0.53023 0.74236 0.84831 0.74236 1.875 0 1.7175-0.90771 2.5135-2.866 2.5135-0.75969 0-2.3515 0.12166-3.5374 0.27035-8.6137 1.0801-13.081 4.3203-13.745 9.9689-0.15133 1.2876-0.0856 1.5147 0.93699 3.2359 3.1424 5.2894 9.0077 10.909 15.442 14.796 2.6242 1.5851 5.9612 3.2144 6.5836 3.2144 0.52485 0 2.549-2.4442 2.7772-3.3536 0.40918-1.6303-1.7794-3.6475-6.4204-5.9177-3.3415-1.6345-4.3503-2.6727-5.1477-5.2981-0.47068-1.5496-0.55185-2.3317-0.44803-4.3166 0.0707-1.3512 0.28428-2.6763 0.4826-2.9939 0.5406-0.86561 2.2198-1.6907 3.7657-1.8502 1.8221-0.18807 5.2236 0.72276 7.2651 1.9454 5.0314 3.0132 7.1599 7.8013 5.6613 12.735-0.50962 1.6778-0.52585 1.929-0.17683 2.7365 0.89297 2.0662 3.5388 4.9372 6.7899 7.3676 5.181 3.8733 13.326 6.8311 20.772 7.5436 1.784 0.17071 2.0761 0.1148 5.3469-1.0231 4.1941-1.4591 7.3224-2.7408 10.109-4.142 2.4412-1.2274 3.1036-1.2895 4.1712-0.39113 0.98683 0.83034 1.2208 1.731 0.74536 2.8689-0.3081 0.73739-0.81423 1.1144-2.981 2.2206-1.4355 0.73281-3.9196 1.8439-5.5204 2.4691-1.6007 0.62524-2.9512 1.166-3.0011 1.2016-0.18788 0.13441 8.3892 11.227 13.685 17.699 9.0452 11.053 15.598 18.368 23.833 26.601 5.9118 5.9109 13.247 12.628 13.837 12.672 0.10988 8e-3 1.6577 1.1276 3.4396 2.4877 6.1242 4.6747 9.6296 6.8079 14.363 8.7407 5.5701 2.2744 9.9067 3.1105 15.335 2.9565 2.8238-0.0801 4.309-0.26114 6.2492-0.76187zm-131.53-94.169c-7e-3 -2.8823-2.8553-5.7034-6.581-6.5186l-1.1585-0.25347 0.17189 1.4626c0.0945 0.80439 0.28458 1.6731 0.4223 1.9304s1.1175 0.88024 2.1772 1.3842c1.0598 0.504 2.5221 1.2907 3.2497 1.7482 1.5842 0.99616 1.7202 1.0157 1.7183 0.24662zm6.5855-75.854c2.1513-1.0975 3.4393-3.4746 3.0846-5.693-0.70232-4.3929-5.8997-6.3462-9.1273-3.4302-1.3442 1.2144-1.8643 2.3853-1.8643 4.1973 0 2.3333 1.1407 4.1351 3.1769 5.0181 1.3186 0.57179 3.5124 0.52908 4.7301-0.0921zm-58.237-21.433c0.73692-5.4109 3.3022-9.5016 6.7573-10.775 2.0783-0.76626 4.9756-0.1498 7.0618 1.5026 0.59151 0.46849 2.1882 2.1779 3.5482 3.7987 3.329 3.9674 7.3088 7.5771 8.3539 7.5771 2.6265 0 5.7951-2.3707 7.3371-5.4895l0.99978-2.0222 0.0801-10.701c0.0503-6.7101-0.0222-11.178-0.19444-11.981-0.6977-3.2533-3.1166-6.2501-5.9731-7.4001l-1.5856-0.63833h-55.695c-52.345 0-55.764 0.0277-56.848 0.46127-1.7509 0.70059-3.5664 2.1554-4.6461 3.7232-1.7981 2.6108-1.837 2.8894-1.9448 13.928-0.10444 10.695 0.0308 12.421 1.1556 14.754 1.2542 2.6012 4.0673 4.8122 6.8144 5.3559 0.60318 0.11938 19.852 0.2301 42.776 0.24603l41.68 0.029zm-58.548-9.7373c0.21507-0.5457 1.5717-4.1473 3.0146-8.0036l2.6236-7.0115 5.2112-0.1478 2.879 7.7468c1.5834 4.2608 2.9376 7.9007 3.0092 8.0888 0.10133 0.26612-0.3532 0.3248-2.0493 0.26458l-2.1796-0.0774-0.51739-1.3891-0.51739-1.3891h-6.481l-0.91742 2.9104h-4.4666zm9.479-7.6729c-0.48963-1.4188-0.95936-2.7583-1.0439-2.9766-0.0901-0.2327-0.51132 0.58823-1.0183 1.9844-1.4526 4.0005-1.5557 3.5719 0.85952 3.5719h2.0928zm17.378 0.57007v-8.095l4.8286 0.097c5.1898 0.10427 5.7339 0.23122 7.0557 1.6461 1.2765 1.3664 0.95984 4.666-0.52408 5.4602-0.51876 0.27763-0.50557 0.31284 0.32722 0.87405 1.9652 1.3244 2.3216 4.5602 0.70517 6.4013-1.2288 1.3995-2.6766 1.7115-7.9427 1.7115h-4.4499zm8.021 4.8804c0.79822-0.42016 0.96606-0.73787 0.97075-1.8376 6e-3 -1.426-0.70274-1.9221-2.9258-2.0477l-1.8326-0.10356v4.293h1.6049c0.88269 0 1.865-0.13689 2.1828-0.30419zm-0.0835-7.3687c0.29105-0.29104 0.52917-0.76729 0.52917-1.0583 0-1.0353-0.92036-1.5875-2.6458-1.5875h-1.5875v3.175h1.5875c1.2347 0 1.7051-0.11758 2.1167-0.52916zm16.933 2.5135v-8.0698h4.2333v16.14h-4.2333zm65.139-16.157c1.2273-0.6219 1.7811-1.1574 2.3505-2.2731 1.5029-2.9447 0.4566-6.1725-2.4878-7.6746-0.83255-0.42473-1.4219-0.51863-2.7316-0.43524-3.0585 0.19474-5.1205 2.3918-5.1205 5.4558 0 1.6803 0.48457 2.8216 1.6969 3.9966 1.6571 1.6062 4.2132 1.9841 6.2926 0.93051zm-11.103-29.959c5.9722-4.4744 17.104-15.94 23.625-24.334l1.4944-1.9235-1.4122 0.58171c-3.0244 1.2458-9.7591 3.3856-12.657 4.0215-5.6041 1.2297-9.4648 1.5658-16.372 1.4251-7.8058-0.15894-12.79-0.97343-19.611-3.2044-1.0914-0.35698-2.0188-0.61542-2.061-0.57428-0.12529 0.1224 6.79 7.8281 12.035 13.41 5.3613 5.7063 12.105 12.133 12.73 12.131 0.10029-2.6e-4 1.1031-0.69035 2.2285-1.5335zm-2.9061-22.189c-0.1819-0.0734-0.47956-0.0734-0.66146 0s-0.0331 0.13345 0.33073 0.13345c0.3638 0 0.51263-0.0601 0.33073-0.13345zm1.9789 0.0153c-0.0879-0.0879-0.31612-0.0973-0.50712-0.0209-0.21106 0.0845-0.14837 0.14716 0.15986 0.15986 0.27891 0.0114 0.43518-0.0511 0.34726-0.13898zm-50.812-37.725c-0.0845-0.21105-0.14715-0.14837-0.15985 0.15987-0.0115 0.27889 0.051 0.43518 0.13897 0.34726 0.0879-0.0879 0.0973-0.31612 0.0209-0.50713zm60.409 282.52c-2.2007-0.49012-3.9824-1.5387-5.6202-3.3078-2.0572-2.222-2.6954-3.915-2.7038-7.1717-6e-3 -2.2678 0.0736-2.6829 0.8125-4.2459 2.0184-4.2694 5.7212-6.5187 10.34-6.281 7.4947 0.38581 12.254 8.1898 9.1017 14.925-1.5044 3.2148-4.4877 5.5408-7.9309 6.1834-1.7291 0.32271-2.1366 0.31226-3.9988-0.10244zm4.4367-5.3327c2.0474-0.85548 3.274-2.7303 3.274-5.0042 0-3.1029-1.9335-5.2449-5.0696-5.6164-1.077-0.12756-1.5541-0.0291-2.7902 0.57565-3.32 1.6243-4.2216 5.6518-1.8968 8.4723 1.5 1.8198 4.278 2.4937 6.4825 1.5726zm104.46-77.398c-0.65802-0.78201-0.68586-0.95126-0.70705-4.2995-0.0122-1.917-0.22506-22-0.47316-44.628s-0.35501-41.517-0.23759-41.975c0.59751-2.3304 4.2998-2.1654 4.8134 0.2146 0.12486 0.57857 0.95896 75.687 0.95038 85.579l-4e-3 4.528-0.69755 0.69752c-1.0428 1.0428-2.714 0.98941-3.6446-0.11649zm-138.64-254c-1.0631-1.2634-0.79016-2.8131 0.62429-3.5445 0.99814-0.51616 1.9629-0.30336 2.6637 0.58753 1.8383 2.337-1.3767 5.2284-3.288 2.957zm17.222-9.0105c-2.9691-0.29835-5.7423-1.1198-8.8113-2.61-3.6978-1.7955-4.6192-2.9997-3.752-4.903 0.31256-0.68599 1.4362-1.4478 2.1354-1.4478 0.19862 0 1.6329 0.64618 3.1872 1.436 3.8882 1.9756 6.8677 2.6593 10.717 2.459 4.1633-0.21662 7.1233-1.3379 10.632-4.0275 1.8348-1.4064 2.3773-1.5742 3.5312-1.0921 1.0978 0.45867 1.4959 1.1062 1.4959 2.4328 0 1.1828-0.85501 2.0757-3.9051 4.078-4.4658 2.9317-9.8046 4.2199-15.23 3.6747zm-63.679-11.881c-3.403-0.44533-6.6362-2.4817-8.487-5.3453-4.6152-7.1406-0.96307-16.427 7.3074-18.581 6.7754-1.7648 13.801 2.9266 14.925 9.9669 0.45488 2.8474-0.18623 6.004-1.7095 8.417-2.4974 3.9562-7.2911 6.1636-12.036 5.5426zm121.21-0.5609c-6.8068-0.80068-11.681-7.6721-10.251-14.451 0.98498-4.6687 4.4142-8.2385 9.0819-9.4543 8.2792-2.1564 16.434 5.402 14.926 13.836-1.1907 6.663-6.9405 10.872-13.757 10.07zm-57.608-13.446c-4.3311-1.1355-8.3287-3.8883-12.036-8.2881-1.5702-1.8633-1.7069-2.8887-0.55698-4.1757 0.58858-0.65874 0.9461-0.82438 1.7793-0.82438 0.96817 0 1.1835 0.15452 3.0106 2.1608 6.2502 6.8629 12.238 8.2895 18.196 4.3351 0.8441-0.56028 2.6254-2.1201 3.9585-3.4662 2.7232-2.7498 3.3799-2.9936 4.814-1.7868 0.93075 0.78317 1.2109 1.6789 0.83456 2.6686-0.43394 1.1414-2.847 3.7641-5.151 5.5985-4.7996 3.8214-9.8158 5.0978-14.848 3.7784zm-98.659-27.06c-3.716-3.8129-6.215-8.8098-7.5495-15.096-0.78763-3.7101-1.1678-9.5385-0.8563-13.129 0.25306-2.9176 0.2916-3.05 1.0978-3.7703 0.45951-0.41058 1.1372-0.7465 1.5059-0.7465 0.88023 0 2.1167 0.65217 2.3643 1.247 0.10822 0.26005 0.1767 2.7945 0.15218 5.6322-0.0645 7.4705 0.87346 12.405 3.2582 17.141 1.0004 1.9864 2.8078 4.486 4.2404 5.8639 0.79334 0.76312 0.9479 1.0936 0.9479 2.027 0 0.92048-0.14214 1.2348-0.81405 1.8002-0.54862 0.46163-1.1272 0.68498-1.7746 0.68498-0.82992 0-1.1796-0.22482-2.5721-1.6536zm189.55-0.44267c-1.1349-1.1349-1.0499-2.2066 0.3179-4.0075 3.4479-4.5397 5.9926-13.602 6.8666-24.456 0.17579-2.1828 0.47562-4.2794 0.66627-4.6591 0.42254-0.84144 1.7045-1.4153 2.6382-1.181 0.37917 0.0952 0.99449 0.47814 1.3674 0.85106 0.67722 0.67723 0.67783 0.68207 0.50339 4.0241-0.46074 8.8279-2.6813 18.858-5.3486 24.158-1.2364 2.457-2.8038 4.7746-3.7124 5.4893-1.0377 0.81624-2.3503 0.72884-3.2988-0.21966zm-116.07-18.078c-0.4475-0.32742-1.4474-1.1193-2.222-1.7598-0.77457-0.64046-2.1822-1.5334-3.1281-1.9844-1.5355-0.73202-1.975-0.81899-4.101-0.8114-2.9002 0.0103-4.7277 0.7365-6.6228 2.6316-1.5176 1.5176-2.1429 1.7772-3.2048 1.3307-0.89708-0.37719-1.1526-0.83422-1.1526-2.0612 0-1.1936 2.4881-3.5437 5.063-4.7821 4.1388-1.9907 7.9145-1.9224 12.267 0.22202 1.3097 0.64522 3.1521 1.835 4.0942 2.644 2.5975 2.2305 2.9145 3.0927 1.6147 4.3925-0.9287 0.9287-1.5262 0.9695-2.6078 0.17809zm48.138-0.33608c-1.3198-1.1106-1.1673-2.0426 0.60906-3.7224 6.3056-5.9628 13.976-6.7262 19.935-1.984 2.3456 1.8666 2.9272 3.292 1.8843 4.6178-0.91195 1.1594-2.0806 0.97017-3.6498-0.59085-1.7532-1.744-3.8115-2.7187-6.0845-2.8814-3.0916-0.2212-5.712 0.82148-8.946 3.5597-2.0822 1.763-2.6595 1.9172-3.7482 1.0012zm62.664-19.271c0-10.078-1.3813-19.641-3.4203-23.68-0.97097-1.9235-1.3768-2.2644-2.469-2.0739-8.2467 1.4385-11.121 1.9035-16.6 2.6859-12.46 1.7792-26.45 3.1501-41.143 4.0314-9.7422 0.58438-38.648 0.66617-46.831 0.13252-20.321-1.3252-34.706-3.3407-49.655-6.9572l-4.5508-1.1009-0.52027 0.62973c-0.8491 1.0277-2.9759 5.7077-4.0136 8.8318-1.338 4.0281-2.811 9.9901-3.8242 15.478-1.1311 6.1264-0.9655 5.7894-2.3164 4.7149-2.4327-1.9351-5.5304-6.6979-7.7129-11.859-1.9813-4.685-3.8536-12.839-4.83-21.034-0.31206-2.6194-0.6041-4.9029-0.64897-5.0744-0.0449-0.17155-1.3685-0.97311-2.9414-1.7812-4.737-2.4338-4.3525-2.0373-5.576-5.7496-1.4718-4.4656-1.991-7.7064-1.9862-12.398 5e-3 -5.2212 0.81064-9.7357 2.4957-13.991 1.0217-2.5802 1.9888-3.9608 4.5833-6.5432 3.5278-3.5115 7.5857-5.1303 12.86-5.1303h2.0934l2e-3 -0.8599c3e-3 -1.4614 0.98421-5.0494 2.0681-7.5634 4.5874-10.641 16.815-22.318 34.506-32.953 24.933-14.988 53.714-18.96 83.412-11.51 14.434 3.6208 28.413 10.406 39.422 19.133 3.3043 2.6197 8.9024 8.07 11.161 10.866 4.7857 5.9255 7.9967 12.081 9.6995 18.593l0.57235 2.1889 2.3913 0.11282c7.5542 0.3564 14.005 5.3647 18.35 14.246 2.6465 5.4098 3.7783 10.126 3.7896 15.792 0.0108 5.5116-0.99312 10.121-3.1363 14.4-1.7084 3.4104-2.5472 4.2777-5.5353 5.724l-2.6614 1.2881-0.30557 3.5154c-1.1479 13.205-4.3654 21.944-10.252 27.845-2.1679 2.1733-5.2594 4.3773-6.1397 4.3773-0.25889 0-0.33676-1.0006-0.33676-4.3272zm-110.46-7.9822c-3.7766-1.8782-7.198-2.7751-11.311-2.9653-3.8853-0.17965-6.2491 0.17636-10.414 1.5684-2.9385 0.98219-3.2672 1.0408-3.9688 0.70787-0.42067-0.19966-0.97864-0.80034-1.2399-1.3348-0.43024-0.8801-0.43837-1.0597-0.0862-1.9026 0.46422-1.111 1.3983-1.6343 4.9269-2.7597 3.6365-1.1599 6.256-1.4712 10.942-1.3004 5.3768 0.19597 8.9119 1.1019 13.69 3.5081 2.4487 1.2332 3.149 1.9375 3.149 3.1673 0 0.5255-0.12259 1.1845-0.27243 1.4645-0.28683 0.53595-1.5781 1.3132-2.1618 1.3012-0.18913-0.0039-1.6536-0.65838-3.2543-1.4545zm41.172 0.82769c-1.4168-0.78525-1.7366-2.5727-0.68423-3.8234 0.80748-0.95964 4.7339-2.9118 7.7536-3.8549 6.8139-2.1282 14.221-1.9812 20.84 0.41362 2.721 0.98455 3.511 1.6067 3.7218 2.9305 0.13916 0.87414 0.0517 1.0903-0.77623 1.9182-0.51318 0.51319-1.1533 0.93303-1.4225 0.93298-0.26921-4.3e-5 -1.6565-0.41723-3.0828-0.92707-7.5771-2.7084-15.2-2.1671-22.519 1.5991-2.4646 1.2682-2.8556 1.351-3.8301 0.81086z" fill="#e7786e"/>
   <path d="m463.04 576.2-0.84525-0.71125v-191.69l-1.4194-0.31766c-5.2696-1.1793-9.775-5.6269-11.144-11.001-0.59113-2.3211-0.59033-23.37 1e-3 -25.686 1.3603-5.3281 5.6867-9.6642 10.974-10.999 1.2187-0.30766 10.487-0.36738 57.018-0.36738 52.511 0 55.656 0.0259 57.273 0.47218 4.811 1.3278 8.4798 4.8666 10.256 9.8921l0.73196 2.0711 0.0825 10.856c0.0941 12.376-8e-3 13.339-1.8006 16.975-1.254 2.5436-3.3122 4.747-5.8011 6.2103l-1.6468 0.96822 4.0545 3.0237c2.23 1.663 4.3704 3.2278 4.7564 3.4771l0.70189 0.45344 0.15063-2.461c0.0829-1.3535 0.21909-5.4971 0.30277-9.2078 0.49271-21.85 1.8806-41.43 3.9855-56.224l0.15057-1.0583-2.5817-2.1167c-5.0114-4.1086-11.69-10.936-25.417-25.983-11.947-13.096-19.436-23.681-21.756-30.749-1.8905-5.762-1.0629-16.514 2.2417-29.125 0.94226-3.5958 3.8898-12.796 4.3084-13.447 0.18501-0.288 0.39663-0.27864 1.1895 0.0526 0.53045 0.22164 0.96408 0.49835 0.96362 0.61491-5.3e-4 0.11657-0.54103 1.8193-1.2013 3.7838-6.5296 19.429-8.197 34.766-4.5581 41.926 0.34269 0.67432 2.8803 4.0665 5.639 7.5383 4.4688 5.6236 5.2325 6.4577 7.0004 7.6454 5.417 3.6392 12.784 6.871 19.674 8.6312 5.7515 1.4694 8.8212 1.8382 15.384 1.8484 6.5546 0.0103 9.2248-0.31748 15.172-1.862 8.3181-2.1603 17.773-6.9288 23.799-12.002l1.9293-1.6244-0.54927 1.0766c-5.7947 11.359-17.991 26.184-33.764 41.041l-2.4093 2.2695-0.44316 2.8867c-0.24373 1.5877-0.59598 4.15-0.78276 5.6941l-0.33961 2.8074 1.3432-1.094c2.3259-1.8945 3.8094-2.4019 7.0254-2.403 2.5071 0 2.925 0.0712 4.2842 0.73861 4.3678 2.1449 6.869 6.7873 6.0647 11.257-0.8404 4.6703-4.2396 8.0601-8.8486 8.8238-3.7837 0.62699-7.9058-1.12-10.241-4.3404l-0.71273-0.98272-0.16986 2.1733c-1.1787 15.081-2.0791 47.478-1.3267 47.734 0.18971 0.0645 0.34081-0.54764 0.42474-1.7207 0.41442-5.792 6.199-10.328 11.955-9.3737 4.6434 0.76946 8.0485 4.151 8.915 8.8535 0.61981 3.3639-0.72147 7.0509-3.4697 9.538l-1.5714 1.422 0.98625 0.4654c3.2753 1.5456 9.5103 5.7954 14.221 9.6931 12.374 10.238 26.294 26.733 37.836 44.835 2.287 3.5868 3.018 4.5107 4.7863 6.0496 8.7885 7.6486 38.026 29.663 74.539 56.124 9.0834 6.5828 10.451 7.9839 12.888 13.201 4.5144 9.6649 1.8625 21.972-6.679 30.995-12.29 12.984-31.659 13.498-50.217 1.3328-6.0315-3.9537-11.436-8.357-19.021-15.498-11.91-11.212-29.672-31.701-41.226-47.555l-2.0206-2.7726-1.2064 0.136c-2.9586 0.33348-9.2019-0.72763-14.289-2.4286-6.2166-2.0785-11.472-5.0575-15.313-8.6798-1.8488-1.7436-1.9404-1.795-2.2831-1.2796-1.219 1.833-4.2423 4.1088-5.4585 4.1088-0.3853 0-1.3926-0.23812-2.2386-0.52916s-1.6191-0.52917-1.7182-0.52917c-0.0991 0-0.13647 2.1134-0.083 4.6964 0.70152 33.899 0.87522 43.278 0.87522 47.256 0 4.6291-9e-3 4.701-0.64944 5.3417-0.47785 0.47784-0.93539 0.64942-1.7318 0.64942-0.79643 0-1.254-0.17158-1.7318-0.64942-0.57006-0.57007-0.64982-0.88537-0.6526-2.5797-2e-3 -1.0616-0.17474-9.6098-0.38445-18.996-0.20971-9.3861-0.46474-21.867-0.56675-27.735l-0.18546-10.669-2.0098-1.3494c-7.4847-5.0252-13.342-10.953-16.145-16.339-0.56798-1.0914-1.1122-2.4011-1.2093-2.9104-0.14568-0.76399-0.47628-1.1296-1.8892-2.0893-5.2981-3.5988-7.937-8.756-6.6477-12.992 0.33169-1.0898 0.31235-1.3392-0.22838-2.9455-3.1443-9.3404 2.9886-17.6 17.363-23.385 2.3352-0.93969 9.6524-3.3033 10.226-3.3033 0.0508 0 0.0924-0.15242 0.0924-0.33874s-1.8752-1.8814-4.1672-3.7669c-14.342-11.799-24.002-21.598-31.6-32.056l-1.6019-2.2049-81.561 0.134-0.13229 95.838-0.1323 95.838-0.54498 0.54497c-0.29974 0.29974-0.96117 0.61253-1.4698 0.69508-0.74846 0.12145-1.0861 0.0146-1.7701-0.56115zm266.96-8.0214c7.9945-2.1597 14.384-7.4921 17.974-15 1.9563-4.0914 2.4665-6.2198 2.4734-10.319 7e-3 -3.9251-0.50543-6.0956-2.1501-9.1152-1.8336-3.3663-3.0329-4.5678-8.5408-8.5562-39.645-28.708-70.459-51.941-78.506-59.19-0.8296-0.7474-2.1854-2.57-3.6414-4.8948-8.2752-13.214-19.153-27.078-28.856-36.777-10.329-10.325-20.346-17.295-29.077-20.234-1.8665-0.62817-3.3139-1.4274-7.0115-3.8718-14.339-9.479-24.581-17.51-30.324-23.776-5.1982-5.6725-5.5144-5.9602-6.5499-5.9602-0.783 0-1.111 0.1887-1.8705 1.076-1.3307 1.5546-2.1568 3.9315-2.1602 6.215l-3e-3 1.867 2.2231 3.0278c8.9735 12.221 18.542 21.622 37.379 36.723 3.158 2.5317 3.8203 3.3996 3.5168 4.6088-0.29909 1.1917-1.0028 1.5382-4.4052 2.169-13.59 2.5196-25.168 8.8-27.47 14.901-0.54429 1.4424-0.74634 4.8187-0.28837 4.8187 0.13175 0 0.75683-0.43576 1.3891-0.96837 3.1361-2.6419 8.6179-5.6212 14.908-8.1021 5.0601-1.9958 11.076-3.8941 12.34-3.8941 1.4242 0 2.3439 0.91157 2.3439 2.3231 0 1.5337-0.73371 2.0428-4.6605 3.2333-13.022 3.9482-22.781 9.3621-24.949 13.842-1.0907 2.2532-0.52078 4.0769 2.0777 6.6482 0.87394 0.86481 1.6219 1.5197 1.662 1.4552 0.0402-0.0644 0.43026-0.831 0.86682-1.7035 1.6846-3.3667 5.4586-6.2127 10.328-7.7881 4.0779-1.3194 10.331-2.0066 11.872-1.3046 0.82798 0.37725 1.55 1.8428 1.3333 2.7062-0.0892 0.35558-0.45004 0.91686-0.80176 1.2473-0.5519 0.51848-1.0472 0.62868-3.6156 0.80444-10.151 0.69472-15.808 4.523-15.808 10.698 0 1.2048 0.16633 1.6289 1.3559 3.4577 4.2013 6.4587 11.279 12.549 18.919 16.281l2.7767 1.3562 1.0462-1.0216c0.57542-0.56187 1.2931-1.5315 1.5948-2.1548 0.54104-1.1176 0.54171-1.145 0.0489-1.9924-0.72031-1.2387-3.4966-3.2216-6.6396-4.7424-3.0277-1.4649-3.8834-2.335-4.7214-4.801-0.59714-1.7571-0.64652-6.0365-0.0829-7.1826 1.2537-2.5492 6.191-2.694 10.698-0.31371 1.994 1.0531 4.3619 3.3514 5.2417 5.0875 1.3238 2.6124 1.4577 6.0172 0.34247 8.7098-0.27445 0.66265-0.2595 0.95213 0.0894 1.7316 1.5242 3.4052 6.6194 7.927 11.917 10.576 5.4584 2.7293 13.552 4.7708 17.539 4.4238 1.9524-0.16994 7.8062-2.3221 13.209-4.8562 3.0268-1.4198 3.1043-1.4403 4.0136-1.0604 1.4741 0.61592 1.9789 2.2751 1.0818 3.5558-0.49504 0.70678-4.1333 2.5772-8.1719 4.201-1.5953 0.64146-2.9516 1.2174-3.014 1.2798-0.13761 0.13761 4.1052 5.8193 8.7882 11.768 9.7965 12.445 19.905 23.969 28.866 32.908 5.6358 5.6219 13.967 13.129 14.57 13.129 0.1093 0 1.3429 0.87437 2.7414 1.943 3.1205 2.3846 6.7372 4.8424 9.025 6.133 3.8769 2.1872 9.3718 4.1936 13.758 5.0236 2.9977 0.56727 10.35 0.37031 13.011-0.34851zm-131.54-94.556c0-2.8404-3.0233-5.7543-6.6807-6.439l-0.99219-0.18574 2e-3 1.0216c7.9e-4 0.5619 0.12117 1.4526 0.26747 1.9792 0.24171 0.87019 0.48917 1.0671 2.7105 2.1569 1.3445 0.65961 2.8612 1.5028 3.3706 1.8737s1.0153 0.68024 1.1245 0.68738c0.10914 7e-3 0.19844-0.48522 0.19844-1.0941zm6.9505-75.678c3.2876-1.8175 3.8088-6.4916 1.0061-9.0237-3.2471-2.9336-8.1343-1.4406-9.3057 2.8428-0.74647 2.7295 1.0604 5.8662 3.9019 6.7734 1.1344 0.36218 3.1659 0.0885 4.3977-0.59256zm-58.603-21.362c0.73692-5.4109 3.3022-9.5016 6.7573-10.775 2.0783-0.76626 4.9756-0.1498 7.0618 1.5026 0.59151 0.46849 2.1882 2.1779 3.5482 3.7987 3.329 3.9674 7.3088 7.5771 8.3539 7.5771 2.6265 0 5.7951-2.3707 7.3371-5.4895l0.99978-2.0222 0.0801-10.701c0.0503-6.7101-0.0222-11.178-0.19444-11.981-0.6977-3.2533-3.1166-6.2501-5.9731-7.4001l-1.5856-0.63833h-55.695c-52.345 0-55.764 0.0277-56.848 0.46127-1.7509 0.70059-3.5664 2.1554-4.6461 3.7232-1.7981 2.6108-1.837 2.8894-1.9448 13.928-0.10444 10.695 0.0308 12.421 1.1556 14.754 1.2542 2.6012 4.0673 4.8122 6.8144 5.3559 0.60318 0.11938 19.852 0.2301 42.776 0.24603l41.68 0.029zm-58.548-9.7373c0.21507-0.5457 1.5717-4.1473 3.0146-8.0036l2.6236-7.0115 5.2112-0.1478 2.879 7.7468c1.5834 4.2608 2.9376 7.9007 3.0092 8.0888 0.10133 0.26612-0.3532 0.3248-2.0493 0.26458l-2.1796-0.0774-0.51739-1.3891-0.51739-1.3891h-6.481l-0.91742 2.9104h-4.4666zm9.479-7.6729c-0.48963-1.4188-0.95936-2.7583-1.0439-2.9766-0.0901-0.2327-0.51132 0.58823-1.0183 1.9844-1.4526 4.0005-1.5557 3.5719 0.85952 3.5719h2.0928zm17.378 0.57007v-8.095l4.8286 0.097c5.1898 0.10427 5.7339 0.23122 7.0557 1.6461 1.2765 1.3664 0.95984 4.666-0.52408 5.4602-0.51876 0.27763-0.50557 0.31284 0.32722 0.87405 1.9652 1.3244 2.3216 4.5602 0.70517 6.4013-1.2288 1.3995-2.6766 1.7115-7.9427 1.7115h-4.4499zm8.021 4.8804c0.79822-0.42016 0.96606-0.73787 0.97075-1.8376 6e-3 -1.426-0.70274-1.9221-2.9258-2.0477l-1.8326-0.10356v4.293h1.6049c0.88269 0 1.865-0.13689 2.1828-0.30419zm-0.0835-7.3687c0.29105-0.29104 0.52917-0.76729 0.52917-1.0583 0-1.0353-0.92036-1.5875-2.6458-1.5875h-1.5875v3.175h1.5875c1.2347 0 1.7051-0.11758 2.1167-0.52916zm16.933 2.5135v-8.0698h4.2333v16.14h-4.2333zm64.957-15.972c0.58333-0.26501 1.4339-0.90702 1.8902-1.4267 2.9693-3.3819 0.9923-8.6593-3.4988-9.3397-3.2352-0.49011-6.4642 2.4272-6.4594 5.8358 3e-3 1.8849 1.7967 4.3668 3.708 5.1296 1.0549 0.421 3.2119 0.3225 4.36-0.19907zm-10.8-30.169c5.7364-4.3248 14.973-13.762 22.522-23.014 1.3503-1.6547 2.4144-3.0493 2.3646-3.0991-0.0498-0.0498-1.6317 0.51147-3.5152 1.2472-7.6646 2.9941-14.815 4.4318-23.15 4.6549-8.7008 0.23286-15.101-0.65543-23.159-3.2145-1.1426-0.36285-2.1272-0.60994-2.1881-0.54909-0.33108 0.33107 14.756 16.588 19.456 20.964 4.3609 4.0606 4.931 4.5523 5.2882 4.5612 0.17295 4e-3 1.2445-0.69342 2.3812-1.5504zm7.3793 222.21c-7.4867-2.648-9.6019-12.028-3.9456-17.496 5.3029-5.1268 13.834-3.5371 16.974 3.1631 0.63441 1.3536 0.7091 1.8195 0.7091 4.4233 0 2.6592-0.0646 3.0421-0.74874 4.4358-1.0462 2.1315-2.9629 4.0087-5.127 5.0214-2.3836 1.1154-5.4835 1.2939-7.8618 0.45265zm5.8574-4.8441c1.1012-0.56946 2.2022-1.749 2.7528-2.9491 1.641-3.5772-1.1261-7.781-5.1338-7.7994-6.4645-0.0297-7.904 8.7464-1.8078 11.021 1.1144 0.4159 3.1081 0.28604 4.1889-0.27287zm104.79-77.046c-0.46633-0.25307-0.80962-0.73631-0.9793-1.3784-0.15687-0.59362-0.37386-13.519-0.54293-32.342-0.15491-17.244-0.35819-37.267-0.45175-44.494l-0.17012-13.141 0.81539-0.81536c1.0645-1.0645 2.1352-1.0835 3.2826-0.0582l0.84741 0.75716 0.48101 44.553c0.26453 24.504 0.41643 44.935 0.33753 45.401-0.27474 1.6252-2.0508 2.3704-3.6199 1.5188zm-127.27-162.97c-9.5837-1.16-18.753-4.3796-27.027-9.4897l-2.6197-1.618-5.2451-6.5462c-2.8848-3.6004-5.4935-7.0331-5.7971-7.6282-3.4492-6.7609-1.9222-21.568 4.1522-40.264 0.93379-2.874 1.7568-5.2255 1.8289-5.2255 0.25244 0 1.9662 0.76787 1.9662 0.88098 0 0.0628-0.42575 1.2893-0.94612 2.7255-1.3322 3.6769-3.6495 11.816-4.4346 15.576-1.3821 6.6186-1.6222 8.7371-1.6197 14.288 2e-3 4.8358 0.0545 5.4373 0.60624 6.9821 1.3519 3.7851 3.9186 8.1376 8.0896 13.718 3.6585 4.8946 4.6432 5.736 9.5179 8.1327 5.9413 2.9211 11.633 4.6304 19.082 5.7306 3.8351 0.56647 12.998 0.43299 17.251-0.25133 7.8253-1.259 15.411-3.8136 22.205-7.4778 1.3277-0.71609 2.6074-1.302 2.8438-1.302 0.23639 0 0.7868-0.56554 1.2232-1.2568 1.254-1.9864 4.6637-8.9977 5.4364-11.179 0.38669-1.0914 1.0456-2.9642 1.4644-4.1617 3.5304-10.097 2.8075-24.56-1.9012-38.039-0.71167-2.0373-1.294-3.7315-1.294-3.7649-9e-5 -0.10777 2.0882-1.1299 2.3085-1.1299 0.21137 0 2.1551 3.029 3.7353 5.8208 0.45301 0.80036 0.82628 1.3476 0.82949 1.216 8e-3 -0.31241-1.6366-3.2542-3.086-5.5213l-1.1455-1.7917 0.68067-0.25879c0.98405-0.37414 1.0943-0.3371 1.3957 0.46882 1.5074 4.031 2.2008 6.1224 2.2944 6.9206 0.0614 0.5229 0.40564 1.7841 0.76506 2.8028 1.3405 3.7991 2.541 12.505 2.541 18.427 0 7.6195-0.98766 12.621-4.1719 21.128-1.8211 4.8651-2.7193 6.3749-4.8847 8.2106-3.0197 2.56-7.916 5.6799-12.242 7.8008-10.824 5.3059-22.631 7.4285-33.801 6.0765zm-11.719-91.264c-1.335-1.335-0.50927-3.8485 1.2642-3.8485 1.0562 0 1.5088 0.25764 1.9494 1.1097 0.52008 1.0057 0.27282 2.16-0.61173 2.8558-0.90537 0.71217-1.8135 0.67132-2.6019-0.11704zm15.594-9.4281c-3.9578-0.66205-10.06-3.353-10.991-4.8473-0.64336-1.0318-0.46911-2.191 0.45103-3.0007 0.99103-0.8721 1.8043-0.74803 4.748 0.72437 3.5553 1.7783 6.1383 2.4346 9.6573 2.4538 4.3676 0.0238 7.8938-1.2069 11.628-4.0583 2.0814-1.5894 3.0832-1.7136 4.2675-0.52932 1.6098 1.6097 0.87493 3.0025-2.9251 5.5443-4.9498 3.3109-11.113 4.6703-16.835 3.7131zm3.2034-25.37c-3.4488-0.53646-6.6639-2.024-9.7627-4.5168-2.1452-1.7257-4.798-4.655-5.2194-5.7633-0.59731-1.571 0.61399-3.2201 2.3653-3.2201 0.80147 0 1.1138 0.20204 2.1471 1.3891 4.5877 5.2699 8.7328 7.5657 13.148 7.2823 1.6394-0.10522 2.3532-0.31681 4.275-1.2672 1.9414-0.96011 2.7393-1.5742 5.0354-3.8757 2.5497-2.5556 2.7975-2.7348 3.7823-2.7348 2.2312 0 3.057 2.1262 1.6031 4.1275-1.2266 1.6885-4.9905 5.0614-6.9414 6.2203-3.2113 1.9078-7.3361 2.8403-10.433 2.3586zm-98.69-25.912c-0.69109-0.29722-3.5111-3.267-4.5446-4.786-2.1824-3.2075-4.1273-8.2373-5.02-12.982-0.59432-3.1588-0.70376-14.027-0.151-14.995 0.85621-1.4986 3.005-1.705 4.0408-0.38825 0.51932 0.66022 0.53968 0.90829 0.37287 4.5438-0.35507 7.7387 1.0811 14.789 4.0402 19.833 0.54847 0.93495 1.8009 2.5709 2.7832 3.6354 1.4866 1.6111 1.7859 2.0887 1.7859 2.8494 0 1.6586-1.8295 2.9254-3.3073 2.2898zm188.22-1.4786c-0.8168-0.44391-1.4158-1.7291-1.2-2.5746 0.0843-0.33025 0.64672-1.255 1.2499-2.055 3.5316-4.6843 5.9929-13.831 6.8329-25.392 0.22519-3.0999 0.28202-3.3354 0.94139-3.9026 1.0845-0.93289 2.5516-0.82962 3.4543 0.24313 0.69768 0.82913 0.70884 0.89922 0.53768 3.3734-0.94099 13.604-4.2101 24.894-8.488 29.316-1.4365 1.4847-2.0729 1.6744-3.328 0.99228zm-118.09-19.74c-1.01-0.8668-2.6148-1.9592-3.5663-2.4276-1.5994-0.7874-1.93-0.85165-4.3814-0.85165-2.3558 0-2.8163 0.081-4.1305 0.72637-0.81348 0.3995-2.0636 1.3221-2.7781 2.0501-0.94467 0.96262-1.5008 1.3239-2.0387 1.3242-0.91435 5.3e-4 -2.0385-1.0651-2.0385-1.9323 0-1.5603 3.0213-4.2119 6.2877-5.5183 1.2829-0.51308 2.0084-0.60784 4.6925-0.61289 2.8459-5e-3 3.3472 0.0666 4.8363 0.69394 2.358 0.99346 4.3609 2.2555 6.1678 3.8863 1.3279 1.1985 1.5636 1.5475 1.5636 2.3151 0 1.1769-0.78175 1.9685-1.9182 1.9424-0.65294-0.015-1.3018-0.39905-2.6962-1.5957zm49.634 0.88789c-0.30095-0.25467-0.62792-0.80324-0.72658-1.219-0.16176-0.68175 1e-3 -0.92869 1.6596-2.5136 5.3716-5.1335 11.726-6.2759 17.593-3.163 1.7225 0.9138 3.818 2.8159 4.1952 3.808 0.52417 1.3787-0.40708 2.7569-1.8628 2.7569-0.46222 0-1.085-0.41251-1.9526-1.2934-2.3496-2.3854-5.4761-3.4623-8.4795-2.9204-2.0783 0.37495-4.7837 1.8069-6.7813 3.5894-1.7301 1.5438-2.6614 1.7878-3.6454 0.95514zm62.827-20.113c-0.42005-12.308-1.6353-19.682-3.8848-23.575-0.9616-1.6641-0.2132-1.6321-7.6532-0.32767-14.714 2.5797-33.305 4.6321-52.255 5.7688-9.7422 0.58438-38.648 0.66617-46.831 0.13252-20.3-1.3239-34.709-3.3415-49.615-6.9475-2.481-0.60022-4.6565-1.0355-4.8344-0.9672-0.54193 0.20796-2.7923 4.7493-3.9229 7.9164-1.1072 3.1017-2.7354 9.0883-3.6554 13.44-0.44311 2.0961-1.6049 8.3543-1.6049 8.6452 0 0.3254-0.66259-0.0854-1.8284-1.1336-2.4976-2.2456-6.0288-8.2284-7.791-13.2-2.0234-5.7085-3.381-12.391-4.5961-22.622l-0.20425-1.7198-3.175-1.6669c-1.7462-0.91681-3.4262-1.8313-3.7331-2.0323-0.72929-0.47736-2.5454-5.9496-3.1628-9.53-0.53345-3.0937-0.60658-9.3624-0.14199-12.171 0.78658-4.7548 2.2604-9.2232 3.7858-11.478 0.45493-0.67236 1.7972-2.1881 2.9829-3.3682 3.5278-3.5115 7.5857-5.1303 12.86-5.1303h2.0934l2e-3 -0.8599c3e-3 -1.4614 0.98421-5.0494 2.0681-7.5634 4.5874-10.641 16.815-22.318 34.506-32.953 24.933-14.988 53.714-18.96 83.412-11.51 14.434 3.6208 28.413 10.406 39.422 19.133 3.3043 2.6197 8.9024 8.07 11.161 10.866 4.7857 5.9255 7.9967 12.081 9.6995 18.593l0.57235 2.1889 2.3913 0.11282c7.5542 0.3564 14.005 5.3647 18.35 14.246 2.6465 5.4098 3.7783 10.126 3.7896 15.792 0.0108 5.5116-0.99312 10.121-3.1363 14.4-1.7112 3.416-2.5452 4.2768-5.5545 5.7332l-2.6806 1.2974-0.18018 2.3155c-0.75126 9.655-3.0072 18.164-6.302 23.77-1.7768 3.0234-6.1617 7.5206-8.5583 8.7775l-1.6164 0.84768zm-110.76-7.2313c-4.6499-2.3657-10.135-3.4356-14.888-2.9038-2.7209 0.30445-5.8324 1.0564-7.7208 1.8658-2.2319 0.95672-3.8486 0.49233-4.2808-1.2297-0.44121-1.7579 0.7795-2.8409 4.5715-4.0555 6.5756-2.1063 13.193-2.0969 19.872 0.02828 3.0902 0.98325 7.0128 2.9448 7.7416 3.8713 0.76548 0.97316 0.67442 2.0772-0.24738 2.999-1.0757 1.0757-2.0121 0.96897-5.0474-0.57533zm40.893 0.48883c-0.92372-0.81287-1.0945-1.9688-0.44475-3.0111 0.37483-0.60131 1.2657-1.1952 3.2514-2.1675 8.1919-4.0113 17.701-4.5303 25.748-1.4054 2.612 1.0142 3.3129 1.6498 3.3129 3.0041 0 0.74522-0.18387 1.2081-0.67499 1.6992-0.85061 0.85061-1.9438 0.77246-5.1458-0.36787-3.2445-1.1554-5.702-1.4813-9.9757-1.3227-4.3776 0.16246-7.0066 0.83638-11.104 2.8464-2.9885 1.4661-3.9635 1.6084-4.9675 0.72481z" fill="#5567fc"/>
   <path d="m463.04 576.2-0.84525-0.71125v-191.69l-1.4194-0.31766c-5.2696-1.1793-9.775-5.6269-11.144-11.001-0.59113-2.3211-0.59033-23.37 1e-3 -25.686 1.3603-5.3281 5.6867-9.6642 10.974-10.999 1.2187-0.30766 10.487-0.36738 57.018-0.36738 52.511 0 55.656 0.0259 57.273 0.47218 4.811 1.3278 8.4798 4.8666 10.256 9.8921l0.73196 2.0711 0.0825 10.856c0.0941 12.376-8e-3 13.339-1.8006 16.975-1.254 2.5436-3.3122 4.747-5.8011 6.2103l-1.6468 0.96822 4.0545 3.0237c2.23 1.663 4.3704 3.2278 4.7564 3.4771l0.70189 0.45344 0.15063-2.461c0.0829-1.3535 0.21909-5.4971 0.30277-9.2078 0.49271-21.85 1.8806-41.43 3.9855-56.224l0.15057-1.0583-2.5817-2.1167c-5.0114-4.1086-11.69-10.936-25.417-25.983-11.947-13.096-19.436-23.681-21.756-30.749-1.8905-5.762-1.0629-16.514 2.2417-29.125 0.94226-3.5958 3.8898-12.796 4.3084-13.447 0.18501-0.288 0.39663-0.27864 1.1895 0.0526 0.53045 0.22164 0.96408 0.49835 0.96362 0.61491-5.3e-4 0.11657-0.54103 1.8193-1.2013 3.7838-6.5296 19.429-8.197 34.766-4.5581 41.926 0.34269 0.67432 2.8803 4.0665 5.639 7.5383 4.4688 5.6236 5.2325 6.4577 7.0004 7.6454 5.417 3.6392 12.784 6.871 19.674 8.6312 5.7515 1.4694 8.8212 1.8382 15.384 1.8484 6.5546 0.0103 9.2248-0.31748 15.172-1.862 8.3181-2.1603 17.773-6.9288 23.799-12.002l1.9293-1.6244-0.54927 1.0766c-5.7947 11.359-17.991 26.184-33.764 41.041l-2.4093 2.2695-0.44316 2.8867c-0.24373 1.5877-0.59598 4.15-0.78276 5.6941l-0.33961 2.8074 1.3432-1.094c2.3259-1.8945 3.8094-2.4019 7.0254-2.403 2.5071 0 2.925 0.0712 4.2842 0.73861 4.3678 2.1449 6.869 6.7873 6.0647 11.257-0.8404 4.6703-4.2396 8.0601-8.8486 8.8238-3.7837 0.62699-7.9058-1.12-10.241-4.3404l-0.71273-0.98272-0.16986 2.1733c-1.1787 15.081-2.0791 47.478-1.3267 47.734 0.18971 0.0645 0.34081-0.54764 0.42474-1.7207 0.41442-5.792 6.199-10.328 11.955-9.3737 4.6434 0.76946 8.0485 4.151 8.915 8.8535 0.61981 3.3639-0.72147 7.0509-3.4697 9.538l-1.5714 1.422 0.98625 0.4654c3.2753 1.5456 9.5103 5.7954 14.221 9.6931 12.374 10.238 26.294 26.733 37.836 44.835 2.287 3.5868 3.018 4.5107 4.7863 6.0496 8.7885 7.6486 38.026 29.663 74.539 56.124 9.0834 6.5828 10.451 7.9839 12.888 13.201 4.5144 9.6649 1.8625 21.972-6.679 30.995-12.29 12.984-31.659 13.498-50.217 1.3328-6.0315-3.9537-11.436-8.357-19.021-15.498-11.91-11.212-29.672-31.701-41.226-47.555l-2.0206-2.7726-1.2064 0.136c-2.9586 0.33348-9.2019-0.72763-14.289-2.4286-6.2166-2.0785-11.472-5.0575-15.313-8.6798-1.8488-1.7436-1.9404-1.795-2.2831-1.2796-1.219 1.833-4.2423 4.1088-5.4585 4.1088-0.3853 0-1.3926-0.23812-2.2386-0.52916s-1.6191-0.52917-1.7182-0.52917c-0.0991 0-0.13647 2.1134-0.083 4.6964 0.70152 33.899 0.87522 43.278 0.87522 47.256 0 4.6291-9e-3 4.701-0.64944 5.3417-0.47785 0.47784-0.93539 0.64942-1.7318 0.64942-0.79643 0-1.254-0.17158-1.7318-0.64942-0.57006-0.57007-0.64982-0.88537-0.6526-2.5797-2e-3 -1.0616-0.17474-9.6098-0.38445-18.996-0.20971-9.3861-0.46474-21.867-0.56675-27.735l-0.18546-10.669-2.0098-1.3494c-7.4847-5.0252-13.342-10.953-16.145-16.339-0.56798-1.0914-1.1122-2.4011-1.2093-2.9104-0.14568-0.76399-0.47628-1.1296-1.8892-2.0893-5.2981-3.5988-7.937-8.756-6.6477-12.992 0.33169-1.0898 0.31235-1.3392-0.22838-2.9455-3.1443-9.3404 2.9886-17.6 17.363-23.385 2.3352-0.93969 9.6524-3.3033 10.226-3.3033 0.0508 0 0.0924-0.15242 0.0924-0.33874s-1.8752-1.8814-4.1672-3.7669c-14.342-11.799-24.002-21.598-31.6-32.056l-1.6019-2.2049-81.561 0.134-0.13229 95.838-0.1323 95.838-0.54498 0.54497c-0.29974 0.29974-0.96117 0.61253-1.4698 0.69508-0.74846 0.12145-1.0861 0.0146-1.7701-0.56115zm266.96-8.0214c7.9945-2.1597 14.384-7.4921 17.974-15 1.9563-4.0914 2.4665-6.2198 2.4734-10.319 7e-3 -3.9251-0.50543-6.0956-2.1501-9.1152-1.8336-3.3663-3.0329-4.5678-8.5408-8.5562-39.645-28.708-70.459-51.941-78.506-59.19-0.8296-0.7474-2.1854-2.57-3.6414-4.8948-8.2752-13.214-19.153-27.078-28.856-36.777-10.329-10.325-20.346-17.295-29.077-20.234-1.8665-0.62817-3.3139-1.4274-7.0115-3.8718-14.339-9.479-24.581-17.51-30.324-23.776-5.1982-5.6725-5.5144-5.9602-6.5499-5.9602-0.783 0-1.111 0.1887-1.8705 1.076-1.3307 1.5546-2.1568 3.9315-2.1602 6.215l-3e-3 1.867 2.2231 3.0278c8.9735 12.221 18.542 21.622 37.379 36.723 3.158 2.5317 3.8203 3.3996 3.5168 4.6088-0.29909 1.1917-1.0028 1.5382-4.4052 2.169-13.59 2.5196-25.168 8.8-27.47 14.901-0.54429 1.4424-0.74634 4.8187-0.28837 4.8187 0.13175 0 0.75683-0.43576 1.3891-0.96837 3.1361-2.6419 8.6179-5.6212 14.908-8.1021 5.0601-1.9958 11.076-3.8941 12.34-3.8941 1.4242 0 2.3439 0.91157 2.3439 2.3231 0 1.5337-0.73371 2.0428-4.6605 3.2333-13.022 3.9482-22.781 9.3621-24.949 13.842-1.0907 2.2532-0.52078 4.0769 2.0777 6.6482 0.87394 0.86481 1.6219 1.5197 1.662 1.4552 0.0402-0.0644 0.43026-0.831 0.86682-1.7035 1.6846-3.3667 5.4586-6.2127 10.328-7.7881 4.0779-1.3194 10.331-2.0066 11.872-1.3046 0.82798 0.37725 1.55 1.8428 1.3333 2.7062-0.0892 0.35558-0.45004 0.91686-0.80176 1.2473-0.5519 0.51848-1.0472 0.62868-3.6156 0.80444-10.151 0.69472-15.808 4.523-15.808 10.698 0 1.2048 0.16633 1.6289 1.3559 3.4577 4.2013 6.4587 11.279 12.549 18.919 16.281l2.7767 1.3562 1.0462-1.0216c0.57542-0.56187 1.2931-1.5315 1.5948-2.1548 0.54104-1.1176 0.54171-1.145 0.0489-1.9924-0.72031-1.2387-3.4966-3.2216-6.6396-4.7424-3.0277-1.4649-3.8834-2.335-4.7214-4.801-0.59714-1.7571-0.64652-6.0365-0.0829-7.1826 1.2537-2.5492 6.191-2.694 10.698-0.31371 1.994 1.0531 4.3619 3.3514 5.2417 5.0875 1.3238 2.6124 1.4577 6.0172 0.34247 8.7098-0.27445 0.66265-0.2595 0.95213 0.0894 1.7316 1.5242 3.4052 6.6194 7.927 11.917 10.576 5.4584 2.7293 13.552 4.7708 17.539 4.4238 1.9524-0.16994 7.8062-2.3221 13.209-4.8562 3.0268-1.4198 3.1043-1.4403 4.0136-1.0604 1.4741 0.61592 1.9789 2.2751 1.0818 3.5558-0.49504 0.70678-4.1333 2.5772-8.1719 4.201-1.5953 0.64146-2.9516 1.2174-3.014 1.2798-0.13761 0.13761 4.1052 5.8193 8.7882 11.768 9.7965 12.445 19.905 23.969 28.866 32.908 5.6358 5.6219 13.967 13.129 14.57 13.129 0.1093 0 1.3429 0.87437 2.7414 1.943 3.1205 2.3846 6.7372 4.8424 9.025 6.133 3.8769 2.1872 9.3718 4.1936 13.758 5.0236 2.9977 0.56727 10.35 0.37031 13.011-0.34851zm-131.54-94.556c0-2.8404-3.0233-5.7543-6.6807-6.439l-0.99219-0.18574 2e-3 1.0216c7.9e-4 0.5619 0.12117 1.4526 0.26747 1.9792 0.24171 0.87019 0.48917 1.0671 2.7105 2.1569 1.3445 0.65961 2.8612 1.5028 3.3706 1.8737s1.0153 0.68024 1.1245 0.68738c0.10914 7e-3 0.19844-0.48522 0.19844-1.0941zm6.9505-75.678c3.2876-1.8175 3.8088-6.4916 1.0061-9.0237-3.2471-2.9336-8.1343-1.4406-9.3057 2.8428-0.74647 2.7295 1.0604 5.8662 3.9019 6.7734 1.1344 0.36218 3.1659 0.0885 4.3977-0.59256zm-58.544-20.526c0-3.456 1.7585-7.6582 4.1004-9.7986 3.8243-3.4952 8.3004-2.6026 12.216 2.4358 1.6696 2.1486 4.2491 4.8437 6.7893 7.0935 2.3411 2.0735 2.3968 2.0821 5.2639 0.81634 1.8756-0.82801 3.9323-2.9338 4.9164-5.0338l0.71328-1.522v-23.548l-0.7039-1.5015c-0.78929-1.6837-2.515-3.6898-3.961-4.6045-2.4178-1.5294 1.202-1.4457-59.248-1.3709l-55.426 0.0686-1.7466 0.85986c-2.1402 1.0536-3.6933 2.6818-4.8132 5.0457l-0.83728 1.7673v23.019l0.83032 1.7524c1.4102 2.9762 3.6219 4.9346 6.427 5.691 0.93305 0.25159 10.835 0.33015 43.344 0.34393l42.135 0.0179zm-58.738-9.7439c0-0.10207 1.3321-3.7425 2.9602-8.0899l2.9602-7.9043 5.0063 0.1502 2.2868 6.0854c1.2577 3.347 2.6067 6.9486 2.9977 8.0036l0.7109 1.9182h-4.1512l-1.0548-2.7781-6.6172-0.1476-1.0025 2.7934-2.0482 0.0773c-1.1265 0.0425-2.0482-6e-3 -2.0482-0.10832zm10.583-5.794c0-0.27824-1.9383-5.8237-2.1017-6.0129-0.16849-0.19513-2.1439 5.1865-2.1359 5.8187 3e-3 0.23667 0.60618 0.33073 2.1209 0.33073 1.1642 0 2.1167-0.0614 2.1167-0.13655zm16.404-2.1167v-8.1245l4.6964 0.10866c4.2101 0.0974 4.8124 0.16928 5.817 0.69435 1.3681 0.71506 1.9475 1.5506 2.1168 3.0524 0.15079 1.3378-0.38983 2.5871-1.4084 3.2545l-0.67349 0.4413 0.93608 0.53496c1.1844 0.67691 1.7451 1.8519 1.7438 3.6545-1e-3 1.8817-0.69394 2.9984-2.3212 3.7425-1.1025 0.50416-1.8186 0.58293-6.0784 0.66871l-4.8286 0.0972zm8.4975 4.6627c0.46611-0.37745 0.61861-0.76795 0.61861-1.5841 0-1.6045-0.52609-1.9862-2.9029-2.1062l-1.9798-0.1v4.2912h1.8228c1.3943 0 1.9682-0.11774 2.4414-0.50091zm-0.51467-7.0807c0.60245-0.54523 0.62427-1.6142 0.046-2.2533-0.33657-0.3719-0.82631-0.48385-2.1167-0.48385h-1.6788v3.175h1.6328c1.148 0 1.7765-0.12999 2.1167-0.43788zm16.888 2.4223v-8.0698h4.2333v16.14h-4.2333zm64.957-15.972c0.58333-0.26501 1.4339-0.90702 1.8902-1.4267 2.9693-3.3819 0.9923-8.6593-3.4988-9.3397-3.2352-0.49011-6.4642 2.4272-6.4594 5.8358 3e-3 1.8849 1.7967 4.3668 3.708 5.1296 1.0549 0.421 3.2119 0.3225 4.36-0.19907zm-10.8-30.169c5.7364-4.3248 14.973-13.762 22.522-23.014 1.3503-1.6547 2.4144-3.0493 2.3646-3.0991-0.0498-0.0498-1.6317 0.51147-3.5152 1.2472-7.6646 2.9941-14.815 4.4318-23.15 4.6549-8.7008 0.23286-15.101-0.65543-23.159-3.2145-1.1426-0.36285-2.1272-0.60994-2.1881-0.54909-0.33108 0.33107 14.756 16.588 19.456 20.964 4.3609 4.0606 4.931 4.5523 5.2882 4.5612 0.17295 4e-3 1.2445-0.69342 2.3812-1.5504zm7.3793 222.21c-7.4867-2.648-9.6019-12.028-3.9456-17.496 5.3029-5.1268 13.834-3.5371 16.974 3.1631 0.63441 1.3536 0.7091 1.8195 0.7091 4.4233 0 2.6592-0.0646 3.0421-0.74874 4.4358-1.0462 2.1315-2.9629 4.0087-5.127 5.0214-2.3836 1.1154-5.4835 1.2939-7.8618 0.45265zm5.8574-4.8441c1.1012-0.56946 2.2022-1.749 2.7528-2.9491 1.641-3.5772-1.1261-7.781-5.1338-7.7994-6.4645-0.0297-7.904 8.7464-1.8078 11.021 1.1144 0.4159 3.1081 0.28604 4.1889-0.27287zm104.79-77.046c-0.46633-0.25307-0.80962-0.73631-0.9793-1.3784-0.15687-0.59362-0.37386-13.519-0.54293-32.342-0.15491-17.244-0.35819-37.267-0.45175-44.494l-0.17012-13.141 0.81539-0.81536c1.0645-1.0645 2.1352-1.0835 3.2826-0.0582l0.84741 0.75716 0.48101 44.553c0.26453 24.504 0.41643 44.935 0.33753 45.401-0.27474 1.6252-2.0508 2.3704-3.6199 1.5188zm-127.27-162.97c-9.5837-1.16-18.753-4.3796-27.027-9.4897l-2.6197-1.618-5.2451-6.5462c-2.8848-3.6004-5.4935-7.0331-5.7971-7.6282-3.4492-6.7609-1.9222-21.568 4.1522-40.264 0.93379-2.874 1.7568-5.2255 1.8289-5.2255 0.25244 0 1.9662 0.76787 1.9662 0.88098 0 0.0628-0.42575 1.2893-0.94612 2.7255-1.3322 3.6769-3.6495 11.816-4.4346 15.576-1.3821 6.6186-1.6222 8.7371-1.6197 14.288 2e-3 4.8358 0.0545 5.4373 0.60624 6.9821 1.3519 3.7851 3.9186 8.1376 8.0896 13.718 3.6585 4.8946 4.6432 5.736 9.5179 8.1327 5.9413 2.9211 11.633 4.6304 19.082 5.7306 3.8351 0.56647 12.998 0.43299 17.251-0.25133 7.8253-1.259 15.411-3.8136 22.205-7.4778 1.3277-0.71609 2.6074-1.302 2.8438-1.302 0.23639 0 0.7868-0.56554 1.2232-1.2568 1.254-1.9864 4.6637-8.9977 5.4364-11.179 0.38669-1.0914 1.0456-2.9642 1.4644-4.1617 3.5304-10.097 2.8075-24.56-1.9012-38.039-0.71167-2.0373-1.294-3.7315-1.294-3.7649-9e-5 -0.10777 2.0882-1.1299 2.3085-1.1299 0.21137 0 2.1551 3.029 3.7353 5.8208 0.45301 0.80036 0.82628 1.3476 0.82949 1.216 8e-3 -0.31241-1.6366-3.2542-3.086-5.5213l-1.1455-1.7917 0.68067-0.25879c0.98405-0.37414 1.0943-0.3371 1.3957 0.46882 1.5074 4.031 2.2008 6.1224 2.2944 6.9206 0.0614 0.5229 0.40564 1.7841 0.76506 2.8028 1.3405 3.7991 2.541 12.505 2.541 18.427 0 7.6195-0.98766 12.621-4.1719 21.128-1.8211 4.8651-2.7193 6.3749-4.8847 8.2106-3.0197 2.56-7.916 5.6799-12.242 7.8008-10.824 5.3059-22.631 7.4285-33.801 6.0765zm-11.719-91.264c-1.335-1.335-0.50927-3.8485 1.2642-3.8485 1.0562 0 1.5088 0.25764 1.9494 1.1097 0.52008 1.0057 0.27282 2.16-0.61173 2.8558-0.90537 0.71217-1.8135 0.67132-2.6019-0.11704zm15.594-9.4281c-3.9578-0.66205-10.06-3.353-10.991-4.8473-0.64336-1.0318-0.46911-2.191 0.45103-3.0007 0.99103-0.8721 1.8043-0.74803 4.748 0.72437 3.5553 1.7783 6.1383 2.4346 9.6573 2.4538 4.3676 0.0238 7.8938-1.2069 11.628-4.0583 2.0814-1.5894 3.0832-1.7136 4.2675-0.52932 1.6098 1.6097 0.87493 3.0025-2.9251 5.5443-4.9498 3.3109-11.113 4.6703-16.835 3.7131zm3.2034-25.37c-3.4488-0.53646-6.6639-2.024-9.7627-4.5168-2.1452-1.7257-4.798-4.655-5.2194-5.7633-0.59731-1.571 0.61399-3.2201 2.3653-3.2201 0.80147 0 1.1138 0.20204 2.1471 1.3891 4.5877 5.2699 8.7328 7.5657 13.148 7.2823 1.6394-0.10522 2.3532-0.31681 4.275-1.2672 1.9414-0.96011 2.7393-1.5742 5.0354-3.8757 2.5497-2.5556 2.7975-2.7348 3.7823-2.7348 2.2312 0 3.057 2.1262 1.6031 4.1275-1.2266 1.6885-4.9905 5.0614-6.9414 6.2203-3.2113 1.9078-7.3361 2.8403-10.433 2.3586zm-98.69-25.912c-0.69109-0.29722-3.5111-3.267-4.5446-4.786-2.1824-3.2075-4.1273-8.2373-5.02-12.982-0.59432-3.1588-0.70376-14.027-0.151-14.995 0.85621-1.4986 3.005-1.705 4.0408-0.38825 0.51932 0.66022 0.53968 0.90829 0.37287 4.5438-0.35507 7.7387 1.0811 14.789 4.0402 19.833 0.54847 0.93495 1.8009 2.5709 2.7832 3.6354 1.4866 1.6111 1.7859 2.0887 1.7859 2.8494 0 1.6586-1.8295 2.9254-3.3073 2.2898zm188.22-1.4786c-0.8168-0.44391-1.4158-1.7291-1.2-2.5746 0.0843-0.33025 0.64672-1.255 1.2499-2.055 3.5316-4.6843 5.9929-13.831 6.8329-25.392 0.22519-3.0999 0.28202-3.3354 0.94139-3.9026 1.0845-0.93289 2.5516-0.82962 3.4543 0.24313 0.69768 0.82913 0.70884 0.89922 0.53768 3.3734-0.94099 13.604-4.2101 24.894-8.488 29.316-1.4365 1.4847-2.0729 1.6744-3.328 0.99228zm-118.09-19.74c-1.01-0.8668-2.6148-1.9592-3.5663-2.4276-1.5994-0.7874-1.93-0.85165-4.3814-0.85165-2.3558 0-2.8163 0.081-4.1305 0.72637-0.81348 0.3995-2.0636 1.3221-2.7781 2.0501-0.94467 0.96262-1.5008 1.3239-2.0387 1.3242-0.91435 5.3e-4 -2.0385-1.0651-2.0385-1.9323 0-1.5603 3.0213-4.2119 6.2877-5.5183 1.2829-0.51308 2.0084-0.60784 4.6925-0.61289 2.8459-5e-3 3.3472 0.0666 4.8363 0.69394 2.358 0.99346 4.3609 2.2555 6.1678 3.8863 1.3279 1.1985 1.5636 1.5475 1.5636 2.3151 0 1.1769-0.78175 1.9685-1.9182 1.9424-0.65294-0.015-1.3018-0.39905-2.6962-1.5957zm49.634 0.88789c-0.30095-0.25467-0.62792-0.80324-0.72658-1.219-0.16176-0.68175 1e-3 -0.92869 1.6596-2.5136 5.3716-5.1335 11.726-6.2759 17.593-3.163 1.7225 0.9138 3.818 2.8159 4.1952 3.808 0.52417 1.3787-0.40708 2.7569-1.8628 2.7569-0.46222 0-1.085-0.41251-1.9526-1.2934-2.3496-2.3854-5.4761-3.4623-8.4795-2.9204-2.0783 0.37495-4.7837 1.8069-6.7813 3.5894-1.7301 1.5438-2.6614 1.7878-3.6454 0.95514zm62.827-20.113c-0.41804-12.249-1.5451-19.222-3.7676-23.311-0.50388-0.92693-0.88078-1.7183-0.83757-1.7587 0.0432-0.04034 1.3882-0.33401 2.989-0.65262 6.1196-1.218 15.026-3.5333 18.038-4.6889 0.37298-0.14312 0.39973 0.10486 0.23686 2.1954-0.75587 9.7021-3.005 18.196-6.3054 23.811-1.7768 3.0234-6.1617 7.5206-8.5583 8.7775l-1.6164 0.84768zm-176.09 2.9519c-3.2418-2.9147-6.922-9.8419-9.0012-16.943-1.4922-5.0966-4.0156-20.466-3.36-20.466 0.0877 0 1.7982 0.70076 3.8011 1.5572 5.5674 2.3807 15.401 5.7856 18.78 6.5025l0.85116 0.18058-0.62046 0.98287c-3.0788 4.8771-5.9506 14.187-8.0857 26.211-0.29521 1.6626-0.53675 3.0615-0.53675 3.1088 0 0.3254-0.66259-0.0854-1.8284-1.1336zm65.328-10.183c-4.6499-2.3657-10.135-3.4356-14.888-2.9038-2.7209 0.30445-5.8324 1.0564-7.7208 1.8658-2.2319 0.95672-3.8486 0.49233-4.2808-1.2297-0.44121-1.7579 0.7795-2.8409 4.5715-4.0555 6.5756-2.1063 13.193-2.0969 19.872 0.02828 3.0902 0.98325 7.0128 2.9448 7.7416 3.8713 0.76548 0.97316 0.67442 2.0772-0.24738 2.999-1.0757 1.0757-2.0121 0.96897-5.0474-0.57533zm40.893 0.48883c-0.92372-0.81287-1.0945-1.9688-0.44475-3.0111 0.37483-0.60131 1.2657-1.1952 3.2514-2.1675 8.1919-4.0113 17.701-4.5303 25.748-1.4054 2.612 1.0142 3.3129 1.6498 3.3129 3.0041 0 0.74522-0.18387 1.2081-0.67499 1.6992-0.85061 0.85061-1.9438 0.77246-5.1458-0.36787-3.2445-1.1554-5.702-1.4813-9.9757-1.3227-4.3776 0.16246-7.0066 0.83638-11.104 2.8464-2.9885 1.4661-3.9635 1.6084-4.9675 0.72481zm-22.504-51.419c-24.219-0.70464-47.312-3.1116-63.368-6.6049-6.7069-1.4592-11.419-2.9339-12.456-3.8985-0.78039-0.7258-0.6745-2.1362 0.21278-2.8341 0.8156-0.64155 0.90071-0.63063 4.003 0.51384 8.722 3.2176 30.371 6.5339 52.69 8.0711 20.41 1.4058 42.021 1.1666 59.531-0.65893 14.298-1.4907 27.245-4.1491 37.504-7.7008 5.0185-1.7374 5.6335-1.8218 6.3782-0.87507 1.3432 1.7075 0.55496 2.6048-3.5769 4.0718-14.395 5.1109-33.466 8.4153-54.99 9.5278-5.696 0.2944-21.179 0.52593-25.929 0.38773z" fill="#030202"/>
  </g>
 </g>
</svg>
